<?xml version="1.0" standalone="no"?>
<!DOCTYPE svg PUBLIC "-//W3C//DTD SVG 20010904//EN"
 "http://www.w3.org/TR/2001/REC-SVG-20010904/DTD/svg10.dtd">
<svg version="1.0" xmlns="http://www.w3.org/2000/svg"
 width="1744.000000pt" height="294.000000pt" viewBox="0 0 1744.000000 294.000000"
 preserveAspectRatio="xMidYMid meet">

<g transform="translate(0.000000,294.000000) scale(0.100000,-0.100000)"
fill="#000000" stroke="none">
<path d="M4557 2423 c-4 -3 -7 -55 -7 -115 0 -89 3 -108 15 -108 11 0 15 12
15 50 l0 50 39 0 c55 0 61 18 9 22 -42 3 -43 4 -46 41 l-3 37 45 0 c34 0 46 4
46 15 0 11 -13 15 -53 15 -30 0 -57 -3 -60 -7z"/>
<path d="M5070 2390 c0 -11 -4 -20 -10 -20 -5 0 -10 -7 -10 -15 0 -8 5 -15 10
-15 6 0 10 -23 10 -51 0 -66 13 -89 50 -89 19 0 30 5 30 14 0 9 -7 12 -19 9
-21 -5 -31 19 -31 80 0 33 3 37 25 37 16 0 25 6 25 15 0 9 -9 15 -25 15 -18 0
-25 5 -25 20 0 11 -7 20 -15 20 -8 0 -15 -9 -15 -20z"/>
<path d="M4732 2347 c-29 -31 -30 -99 -2 -127 25 -25 91 -27 111 -4 11 14 9
15 -23 9 -43 -8 -78 8 -78 35 0 18 7 20 55 20 52 0 55 1 55 25 0 59 -77 86
-118 42z m69 -7 c34 -19 23 -40 -21 -40 -43 0 -55 20 -22 39 21 13 20 13 43 1z"/>
<path d="M4907 2359 c-26 -15 -11 -30 19 -19 32 13 30 13 48 -6 24 -23 20 -31
-20 -37 -44 -7 -64 -23 -64 -51 0 -29 18 -46 50 -46 14 0 31 5 38 12 9 9 12 9
12 0 0 -7 7 -12 15 -12 19 0 21 103 2 140 -14 28 -68 38 -100 19z m81 -101 c4
-19 -33 -42 -54 -34 -20 8 -17 44 4 49 29 8 47 3 50 -15z"/>
<path d="M5190 2298 c0 -44 5 -79 12 -86 15 -15 53 -16 79 -2 13 7 19 7 19 0
0 -5 5 -10 10 -10 6 0 10 35 10 86 0 64 -3 85 -12 82 -8 -3 -14 -28 -16 -66
-2 -48 -7 -64 -22 -72 -36 -19 -49 -3 -52 68 -2 41 -8 67 -15 70 -10 3 -13
-16 -13 -70z"/>
<path d="M5380 2285 c0 -69 3 -85 15 -85 12 0 15 13 15 58 0 60 11 82 42 82
10 0 18 7 18 15 0 18 -31 20 -49 3 -11 -10 -14 -10 -18 0 -13 35 -23 3 -23
-73z"/>
<path d="M5522 2347 c-29 -31 -30 -99 -2 -127 25 -25 91 -27 111 -4 11 14 9
15 -23 9 -43 -8 -78 8 -78 35 0 18 7 20 55 20 52 0 55 1 55 25 0 59 -77 86
-118 42z m69 -7 c34 -19 23 -40 -21 -40 -43 0 -55 20 -22 39 21 13 20 13 43 1z"/>
<path d="M4756 2013 c-3 -3 -6 -60 -6 -125 0 -98 3 -118 15 -118 12 0 15 20
15 119 0 109 -6 142 -24 124z"/>
<path d="M4412 1984 c-27 -19 -29 -64 -4 -86 9 -9 32 -23 50 -32 61 -31 26
-90 -40 -67 -36 13 -46 8 -28 -14 16 -20 79 -19 108 1 29 20 29 67 0 94 -12
11 -27 20 -33 20 -20 0 -48 38 -41 56 5 13 15 15 46 11 29 -4 40 -1 40 8 0 28
-63 34 -98 9z"/>
<path d="M5277 1994 c-9 -10 2 -24 19 -24 8 0 14 7 14 15 0 15 -21 21 -33 9z"/>
<path d="M7916 1991 c-10 -15 -76 -201 -76 -211 0 -24 29 -7 35 20 6 28 9 30
56 30 47 0 51 -2 60 -30 6 -16 17 -30 25 -30 19 0 19 1 -24 120 -36 99 -59
129 -76 101z m48 -118 c7 -21 4 -23 -28 -23 -42 0 -44 9 -19 72 l17 41 11 -34
c7 -19 15 -44 19 -56z"/>
<path d="M9177 1994 c-9 -10 2 -24 19 -24 8 0 14 7 14 15 0 15 -21 21 -33 9z"/>
<path d="M11972 1984 c-27 -19 -29 -64 -4 -86 9 -9 32 -23 50 -32 61 -31 26
-90 -40 -67 -36 13 -46 8 -28 -14 16 -20 79 -19 108 1 29 20 29 67 0 94 -12
11 -27 20 -33 20 -20 0 -48 38 -41 56 5 13 15 15 46 11 29 -4 40 -1 40 8 0 28
-63 34 -98 9z"/>
<path d="M5160 1960 c0 -11 -4 -20 -10 -20 -5 0 -10 -7 -10 -15 0 -8 5 -15 10
-15 6 0 10 -23 10 -51 0 -66 13 -89 50 -89 19 0 30 5 30 14 0 9 -7 12 -19 9
-21 -5 -31 19 -31 80 0 33 3 37 25 37 16 0 25 6 25 15 0 9 -9 15 -25 15 -18 0
-25 5 -25 20 0 11 -7 20 -15 20 -8 0 -15 -9 -15 -20z"/>
<path d="M9060 1960 c0 -11 -4 -20 -10 -20 -5 0 -10 -7 -10 -15 0 -8 5 -15 10
-15 6 0 10 -23 10 -51 0 -66 13 -89 50 -89 19 0 30 5 30 14 0 9 -7 12 -19 9
-21 -5 -31 19 -31 80 0 33 3 37 25 37 16 0 25 6 25 15 0 9 -9 15 -25 15 -18 0
-25 5 -25 20 0 11 -7 20 -15 20 -8 0 -15 -9 -15 -20z"/>
<path d="M12310 1960 c0 -11 -4 -20 -10 -20 -5 0 -10 -7 -10 -15 0 -8 5 -15
10 -15 6 0 10 -23 10 -51 0 -66 13 -89 50 -89 19 0 30 5 30 14 0 9 -7 12 -19
9 -21 -5 -31 19 -31 80 0 33 3 37 25 37 16 0 25 6 25 15 0 9 -9 15 -25 15 -18
0 -25 5 -25 20 0 11 -7 20 -15 20 -8 0 -15 -9 -15 -20z"/>
<path d="M4582 1917 c-29 -31 -30 -99 -2 -127 25 -25 91 -27 111 -4 11 14 9
15 -23 9 -43 -8 -78 8 -78 35 0 18 7 20 55 20 52 0 55 1 55 25 0 59 -77 86
-118 42z m69 -7 c34 -19 23 -40 -21 -40 -43 0 -55 20 -22 39 21 13 20 13 43 1z"/>
<path d="M4842 1917 c-29 -31 -30 -99 -2 -127 25 -25 91 -27 111 -4 11 14 9
15 -23 9 -43 -8 -78 8 -78 35 0 18 7 20 55 20 52 0 55 1 55 25 0 59 -77 86
-118 42z m69 -7 c34 -19 23 -40 -21 -40 -43 0 -55 20 -22 39 21 13 20 13 43 1z"/>
<path d="M5022 1920 c-27 -25 -30 -94 -6 -128 22 -32 104 -29 104 4 0 17 -5
17 -31 4 -32 -18 -59 4 -59 48 0 54 11 66 54 59 37 -6 45 0 24 21 -18 18 -62
14 -86 -8z"/>
<path d="M5280 1856 c0 -71 3 -86 15 -86 13 0 15 14 13 82 -2 54 -7 83 -15 86
-10 3 -13 -18 -13 -82z"/>
<path d="M5372 1917 c-26 -28 -30 -92 -6 -125 11 -16 25 -22 55 -22 54 0 79
27 79 85 0 32 -6 51 -20 65 -28 28 -81 26 -108 -3z m96 -47 c9 -58 -25 -93
-68 -70 -29 16 -28 83 2 104 19 13 25 14 43 2 11 -7 21 -23 23 -36z"/>
<path d="M5550 1855 c0 -68 3 -85 15 -85 10 0 15 16 17 61 3 65 19 88 52 76
12 -5 16 -20 16 -72 0 -51 3 -65 15 -65 22 0 21 132 -1 154 -19 19 -55 21 -73
4 -11 -10 -14 -10 -18 0 -13 35 -23 3 -23 -73z"/>
<path d="M8077 1922 c-11 -12 -15 -36 -15 -77 0 -33 -3 -68 -7 -79 -14 -32 8
-51 63 -54 45 -3 53 0 67 22 24 36 6 66 -40 66 -18 0 -40 3 -49 6 -28 11 -17
24 18 24 40 0 66 22 66 55 0 13 5 27 10 30 24 15 6 25 -43 25 -39 0 -58 -5
-70 -18z m61 -11 c8 -4 12 -19 10 -32 -2 -18 -9 -24 -28 -24 -19 0 -26 6 -28
24 -3 20 11 41 28 41 3 0 11 -4 18 -9z m27 -141 c11 -17 -15 -40 -46 -40 -31
0 -44 13 -35 35 6 17 71 21 81 5z"/>
<path d="M8247 1922 c-11 -12 -15 -36 -15 -77 0 -33 -3 -68 -7 -79 -14 -32 8
-51 63 -54 45 -3 53 0 67 22 24 36 6 66 -40 66 -18 0 -40 3 -49 6 -28 11 -17
24 18 24 40 0 66 22 66 55 0 13 5 27 10 30 24 15 6 25 -43 25 -39 0 -58 -5
-70 -18z m61 -11 c8 -4 12 -19 10 -32 -2 -18 -9 -24 -28 -24 -19 0 -26 6 -28
24 -3 20 11 41 28 41 3 0 11 -4 18 -9z m27 -141 c11 -17 -15 -40 -46 -40 -31
0 -44 13 -35 35 6 17 71 21 81 5z"/>
<path d="M8410 1855 c0 -69 3 -85 15 -85 12 0 15 13 15 58 0 60 11 82 42 82
10 0 18 7 18 15 0 18 -31 20 -49 3 -11 -10 -14 -10 -18 0 -13 35 -23 3 -23
-73z"/>
<path d="M8552 1917 c-29 -31 -30 -99 -2 -127 25 -25 91 -27 111 -4 11 14 9
15 -23 9 -43 -8 -78 8 -78 35 0 18 7 20 55 20 52 0 55 1 55 25 0 59 -77 86
-118 42z m69 -7 c34 -19 23 -40 -21 -40 -43 0 -55 20 -22 39 21 13 20 13 43 1z"/>
<path d="M8727 1922 c-11 -12 -15 -36 -15 -77 0 -33 -3 -68 -7 -79 -14 -32 8
-51 63 -54 45 -3 53 0 67 22 24 36 6 66 -40 66 -18 0 -40 3 -49 6 -28 11 -17
24 18 24 40 0 66 22 66 55 0 13 5 27 10 30 24 15 6 25 -43 25 -39 0 -58 -5
-70 -18z m61 -11 c8 -4 12 -19 10 -32 -2 -18 -9 -24 -28 -24 -19 0 -26 6 -28
24 -3 20 11 41 28 41 3 0 11 -4 18 -9z m27 -141 c11 -17 -15 -40 -46 -40 -31
0 -44 13 -35 35 6 17 71 21 81 5z"/>
<path d="M8897 1929 c-26 -15 -11 -30 19 -19 32 13 30 13 48 -6 24 -23 20 -31
-20 -37 -44 -7 -64 -23 -64 -51 0 -29 18 -46 50 -46 14 0 31 5 38 12 9 9 12 9
12 0 0 -7 7 -12 15 -12 19 0 21 103 2 140 -14 28 -68 38 -100 19z m81 -101 c4
-19 -33 -42 -54 -34 -20 8 -17 44 4 49 29 8 47 3 50 -15z"/>
<path d="M9180 1856 c0 -71 3 -86 15 -86 13 0 15 14 13 82 -2 54 -7 83 -15 86
-10 3 -13 -18 -13 -82z"/>
<path d="M9272 1917 c-26 -28 -30 -92 -6 -125 11 -16 25 -22 55 -22 54 0 79
27 79 85 0 32 -6 51 -20 65 -28 28 -81 26 -108 -3z m96 -47 c9 -58 -25 -93
-68 -70 -29 16 -28 83 2 104 19 13 25 14 43 2 11 -7 21 -23 23 -36z"/>
<path d="M9450 1855 c0 -68 3 -85 15 -85 10 0 15 16 17 61 3 65 19 88 52 76
12 -5 16 -20 16 -72 0 -51 3 -65 15 -65 22 0 21 132 -1 154 -19 19 -55 21 -73
4 -11 -10 -14 -10 -18 0 -13 35 -23 3 -23 -73z"/>
<path d="M12142 1917 c-29 -31 -30 -99 -2 -127 25 -25 91 -27 111 -4 11 14 9
15 -23 9 -43 -8 -78 8 -78 35 0 18 7 20 55 20 52 0 55 1 55 25 0 59 -77 86
-118 42z m69 -7 c34 -19 23 -40 -21 -40 -43 0 -55 20 -22 39 21 13 20 13 43 1z"/>
<path d="M12430 1868 c0 -44 5 -79 12 -86 15 -15 53 -16 79 -2 13 7 19 7 19 0
0 -5 5 -10 10 -10 6 0 10 35 10 86 0 64 -3 85 -12 82 -8 -3 -14 -28 -16 -66
-2 -48 -7 -64 -22 -72 -36 -19 -49 -3 -52 68 -2 41 -8 67 -15 70 -10 3 -13
-16 -13 -70z"/>
<path d="M12620 1825 c0 -96 3 -115 15 -115 10 0 15 10 15 33 0 32 1 32 39 29
48 -5 71 22 71 85 0 67 -59 108 -99 71 -11 -10 -14 -10 -18 0 -14 38 -23 -2
-23 -103z m104 69 c11 -29 6 -72 -10 -88 -18 -19 -20 -19 -45 -6 -22 12 -27
78 -7 98 17 17 55 15 62 -4z"/>
<path d="M5745 1920 c-8 -14 3 -30 21 -30 8 0 14 9 14 20 0 21 -24 28 -35 10z"/>
<path d="M5745 1801 c-8 -15 3 -31 21 -31 9 0 14 7 12 17 -4 20 -24 28 -33 14z"/>
<path d="M4616 1583 c-3 -3 -6 -60 -6 -125 0 -98 3 -118 15 -118 12 0 15 20
15 119 0 109 -6 142 -24 124z"/>
<path d="M5913 1580 c-13 -5 -23 -18 -23 -29 0 -11 -7 -26 -15 -35 -17 -17
-20 -36 -5 -36 6 0 10 -30 10 -70 0 -56 3 -70 15 -70 12 0 15 14 15 70 0 63 2
70 20 70 11 0 20 7 20 15 0 8 -9 15 -20 15 -11 0 -20 4 -20 9 0 23 14 41 32
41 11 0 18 5 16 12 -6 16 -19 18 -45 8z"/>
<path d="M11846 1583 c-3 -3 -6 -60 -6 -125 0 -98 3 -118 15 -118 12 0 15 20
15 119 0 109 -6 142 -24 124z"/>
<path d="M16226 1583 c-3 -3 -6 -60 -6 -125 0 -98 3 -118 15 -118 12 0 15 20
15 119 0 109 -6 142 -24 124z"/>
<path d="M8320 1533 c0 -37 -3 -44 -12 -35 -18 18 -56 14 -78 -8 -25 -25 -27
-95 -4 -128 17 -25 62 -30 83 -9 11 10 14 10 18 0 14 -39 23 1 23 107 0 100
-2 120 -15 120 -11 0 -15 -12 -15 -47z m-12 -65 c20 -20 15 -86 -8 -98 -32
-17 -60 4 -60 45 0 18 3 40 6 49 7 19 45 21 62 4z"/>
<path d="M15550 1533 c0 -37 -3 -44 -12 -35 -18 18 -56 14 -78 -8 -25 -25 -27
-95 -4 -128 17 -25 62 -30 83 -9 11 10 14 10 18 0 14 -39 23 1 23 107 0 100
-2 120 -15 120 -11 0 -15 -12 -15 -47z m-12 -65 c20 -20 15 -86 -8 -98 -32
-17 -60 4 -60 45 0 18 3 40 6 49 7 19 45 21 62 4z"/>
<path d="M720 1455 c0 -96 3 -115 15 -115 12 0 15 19 15 115 0 96 -3 115 -15
115 -12 0 -15 -19 -15 -115z"/>
<path d="M1587 1563 c-4 -3 -7 -55 -7 -115 l0 -108 45 0 c53 0 99 21 116 51
14 27 14 101 -1 129 -19 36 -129 67 -153 43z m111 -43 c16 -15 22 -32 22 -65
0 -56 -25 -85 -75 -85 l-35 0 0 85 0 85 33 0 c20 0 42 -8 55 -20z"/>
<path d="M4272 1554 c-27 -19 -29 -64 -4 -86 9 -9 32 -23 50 -32 61 -31 26
-90 -40 -67 -36 13 -46 8 -28 -14 16 -20 79 -19 108 1 29 20 29 67 0 94 -12
11 -27 20 -33 20 -20 0 -48 38 -41 56 5 13 15 15 46 11 29 -4 40 -1 40 8 0 28
-63 34 -98 9z"/>
<path d="M5137 1564 c-9 -10 2 -24 19 -24 8 0 14 7 14 15 0 15 -21 21 -33 9z"/>
<path d="M8507 1563 c-4 -3 -7 -55 -7 -115 0 -89 3 -108 15 -108 11 0 15 12
15 50 l0 50 39 0 c55 0 61 18 9 22 -42 3 -43 4 -46 41 l-3 37 45 0 c34 0 46 4
46 15 0 11 -13 15 -53 15 -30 0 -57 -3 -60 -7z"/>
<path d="M11684 1552 c-52 -42 -61 -130 -18 -181 21 -26 33 -31 69 -31 26 0
47 6 55 15 18 21 9 26 -26 16 -39 -11 -72 2 -84 34 -33 86 18 155 92 127 22
-8 28 -7 28 4 0 34 -80 45 -116 16z"/>
<path d="M12677 1564 c-9 -10 2 -24 19 -24 8 0 14 7 14 15 0 15 -21 21 -33 9z"/>
<path d="M14957 1563 c-4 -3 -7 -55 -7 -115 0 -89 3 -108 15 -108 11 0 15 12
15 45 0 45 0 45 35 45 69 0 101 78 49 119 -26 20 -93 29 -107 14z m95 -48 c9
-21 8 -28 -7 -45 -10 -11 -29 -20 -42 -20 -21 0 -23 4 -23 45 0 43 1 45 30 45
23 0 33 -6 42 -25z"/>
<path d="M15637 1564 c-9 -10 2 -24 19 -24 8 0 14 7 14 15 0 15 -21 21 -33 9z"/>
<path d="M1380 1530 c0 -11 -4 -20 -10 -20 -5 0 -10 -7 -10 -15 0 -8 5 -15 10
-15 6 0 10 -23 10 -51 0 -66 13 -89 50 -89 19 0 30 5 30 14 0 9 -7 12 -19 9
-21 -5 -31 19 -31 80 0 33 3 37 25 37 16 0 25 6 25 15 0 9 -9 15 -25 15 -18 0
-25 5 -25 20 0 11 -7 20 -15 20 -8 0 -15 -9 -15 -20z"/>
<path d="M1970 1530 c0 -11 -4 -20 -10 -20 -5 0 -10 -7 -10 -15 0 -8 5 -15 10
-15 6 0 10 -23 10 -51 0 -66 13 -89 50 -89 19 0 30 5 30 14 0 9 -7 12 -19 9
-21 -5 -31 19 -31 80 0 33 3 37 25 37 16 0 25 6 25 15 0 9 -9 15 -25 15 -18 0
-25 5 -25 20 0 11 -7 20 -15 20 -8 0 -15 -9 -15 -20z"/>
<path d="M5020 1530 c0 -11 -4 -20 -10 -20 -5 0 -10 -7 -10 -15 0 -8 5 -15 10
-15 6 0 10 -23 10 -51 0 -66 13 -89 50 -89 19 0 30 5 30 14 0 9 -7 12 -19 9
-21 -5 -31 19 -31 80 0 33 3 37 25 37 16 0 25 6 25 15 0 9 -9 15 -25 15 -18 0
-25 5 -25 20 0 11 -7 20 -15 20 -8 0 -15 -9 -15 -20z"/>
<path d="M9020 1530 c0 -11 -4 -20 -10 -20 -5 0 -10 -7 -10 -15 0 -8 5 -15 10
-15 6 0 10 -23 10 -51 0 -66 13 -89 50 -89 19 0 30 5 30 14 0 9 -7 12 -19 9
-21 -5 -31 19 -31 80 0 33 3 37 25 37 16 0 25 6 25 15 0 9 -9 15 -25 15 -18 0
-25 5 -25 20 0 11 -7 20 -15 20 -8 0 -15 -9 -15 -20z"/>
<path d="M12250 1530 c0 -11 -4 -20 -10 -20 -5 0 -10 -7 -10 -15 0 -8 5 -15
10 -15 6 0 10 -23 10 -51 0 -66 13 -89 50 -89 19 0 30 5 30 14 0 9 -7 12 -19
9 -21 -5 -31 19 -31 80 0 33 3 37 25 37 16 0 25 6 25 15 0 9 -9 15 -25 15 -18
0 -25 5 -25 20 0 11 -7 20 -15 20 -8 0 -15 -9 -15 -20z"/>
<path d="M15870 1530 c0 -11 -4 -20 -10 -20 -5 0 -10 -7 -10 -15 0 -8 5 -15
10 -15 6 0 10 -23 10 -51 0 -66 13 -89 50 -89 19 0 30 5 30 14 0 9 -7 12 -19
9 -21 -5 -31 19 -31 80 0 33 3 37 25 37 16 0 25 6 25 15 0 9 -9 15 -25 15 -18
0 -25 5 -25 20 0 11 -7 20 -15 20 -8 0 -15 -9 -15 -20z"/>
<path d="M16630 1530 c0 -11 -4 -20 -10 -20 -5 0 -10 -7 -10 -15 0 -8 5 -15
10 -15 6 0 10 -23 10 -51 0 -66 13 -89 50 -89 19 0 30 5 30 14 0 9 -7 12 -19
9 -21 -5 -31 19 -31 80 0 33 3 37 25 37 16 0 25 6 25 15 0 9 -9 15 -25 15 -18
0 -25 5 -25 20 0 11 -7 20 -15 20 -8 0 -15 -9 -15 -20z"/>
<path d="M810 1425 c0 -68 3 -85 15 -85 10 0 15 16 17 61 3 65 19 88 52 76 12
-5 16 -20 16 -72 0 -51 3 -65 15 -65 22 0 21 132 -1 154 -19 19 -55 21 -73 4
-11 -10 -14 -10 -18 0 -13 35 -23 3 -23 -73z"/>
<path d="M1000 1395 c0 -96 3 -115 15 -115 10 0 15 10 15 33 0 32 1 32 39 29
48 -5 71 22 71 85 0 67 -59 108 -99 71 -11 -10 -14 -10 -18 0 -14 38 -23 -2
-23 -103z m104 69 c11 -29 6 -72 -10 -88 -18 -19 -20 -19 -45 -6 -22 12 -27
78 -7 98 17 17 55 15 62 -4z"/>
<path d="M1190 1438 c0 -44 5 -79 12 -86 15 -15 53 -16 79 -2 13 7 19 7 19 0
0 -5 5 -10 10 -10 6 0 10 35 10 86 0 64 -3 85 -12 82 -8 -3 -14 -28 -16 -66
-2 -48 -7 -64 -22 -72 -36 -19 -49 -3 -52 68 -2 41 -8 67 -15 70 -10 3 -13
-16 -13 -70z"/>
<path d="M1807 1499 c-26 -15 -11 -30 19 -19 32 13 30 13 48 -6 24 -23 20 -31
-20 -37 -45 -7 -64 -23 -64 -52 0 -33 20 -44 78 -43 l52 1 0 56 c0 77 -16 105
-60 108 -19 2 -43 -2 -53 -8z m81 -101 c4 -19 -33 -42 -54 -34 -20 8 -17 44 4
49 29 8 47 3 50 -15z"/>
<path d="M2097 1499 c-26 -15 -11 -30 19 -19 32 13 30 13 48 -6 24 -23 20 -31
-20 -37 -45 -7 -64 -23 -64 -52 0 -33 20 -44 78 -43 l52 1 0 56 c0 77 -16 105
-60 108 -19 2 -43 -2 -53 -8z m81 -101 c4 -19 -33 -42 -54 -34 -20 8 -17 44 4
49 29 8 47 3 50 -15z"/>
<path d="M3540 1491 c0 -21 -2 -21 -315 -21 -273 0 -315 -2 -315 -15 0 -13 42
-15 315 -15 308 0 315 0 315 -20 0 -11 2 -20 4 -20 2 0 31 13 65 28 l62 28
-58 25 c-32 13 -61 26 -65 27 -4 2 -8 -6 -8 -17z"/>
<path d="M4442 1487 c-29 -31 -30 -99 -2 -127 25 -25 91 -27 111 -4 11 14 9
15 -23 9 -43 -8 -78 8 -78 35 0 18 7 20 55 20 52 0 55 1 55 25 0 59 -77 86
-118 42z m69 -7 c34 -19 23 -40 -21 -40 -43 0 -55 20 -22 39 21 13 20 13 43 1z"/>
<path d="M4702 1487 c-29 -31 -30 -99 -2 -127 25 -25 91 -27 111 -4 11 14 9
15 -23 9 -43 -8 -78 8 -78 35 0 18 7 20 55 20 52 0 55 1 55 25 0 59 -77 86
-118 42z m69 -7 c34 -19 23 -40 -21 -40 -43 0 -55 20 -22 39 21 13 20 13 43 1z"/>
<path d="M4882 1490 c-27 -25 -30 -94 -6 -128 22 -32 104 -29 104 4 0 17 -5
17 -31 4 -32 -18 -59 4 -59 48 0 54 11 66 54 59 37 -6 45 0 24 21 -18 18 -62
14 -86 -8z"/>
<path d="M5140 1426 c0 -71 3 -86 15 -86 13 0 15 14 13 82 -2 54 -7 83 -15 86
-10 3 -13 -18 -13 -82z"/>
<path d="M5232 1487 c-26 -28 -30 -92 -6 -125 11 -16 25 -22 55 -22 54 0 79
27 79 85 0 32 -6 51 -20 65 -28 28 -81 26 -108 -3z m96 -47 c9 -58 -25 -93
-68 -70 -29 16 -28 83 2 104 19 13 25 14 43 2 11 -7 21 -23 23 -36z"/>
<path d="M5410 1425 c0 -68 3 -85 15 -85 10 0 15 16 17 61 3 65 19 88 52 76
12 -5 16 -20 16 -72 0 -51 3 -65 15 -65 22 0 21 132 -1 154 -19 19 -55 21 -73
4 -11 -10 -14 -10 -18 0 -13 35 -23 3 -23 -73z"/>
<path d="M5702 1487 c-26 -28 -30 -92 -6 -125 11 -16 25 -22 55 -22 54 0 79
27 79 85 0 32 -6 51 -20 65 -28 28 -81 26 -108 -3z m96 -47 c9 -58 -25 -93
-68 -70 -29 16 -28 83 2 104 19 13 25 14 43 2 11 -7 21 -23 23 -36z"/>
<path d="M7170 1491 c0 -21 -2 -21 -315 -21 -273 0 -315 -2 -315 -15 0 -13 42
-15 315 -15 308 0 315 0 315 -20 0 -11 2 -20 4 -20 2 0 31 13 65 28 l62 28
-58 25 c-32 13 -61 26 -65 27 -4 2 -8 -6 -8 -17z"/>
<path d="M7867 1499 c-26 -15 -11 -30 19 -19 32 13 30 13 48 -6 24 -23 20 -31
-20 -37 -44 -7 -64 -23 -64 -51 0 -29 18 -46 50 -46 14 0 31 5 38 12 9 9 12 9
12 0 0 -7 7 -12 15 -12 19 0 21 103 2 140 -14 28 -68 38 -100 19z m81 -101 c4
-19 -33 -42 -54 -34 -20 8 -17 44 4 49 29 8 47 3 50 -15z"/>
<path d="M8030 1425 c0 -68 3 -85 15 -85 10 0 15 16 17 61 3 65 19 88 52 76
12 -5 16 -20 16 -72 0 -51 3 -65 15 -65 22 0 21 132 -1 154 -19 19 -55 21 -73
4 -11 -10 -14 -10 -18 0 -13 35 -23 3 -23 -73z"/>
<path d="M8682 1487 c-29 -31 -30 -99 -2 -127 25 -25 91 -27 111 -4 11 14 9
15 -23 9 -43 -8 -78 8 -78 35 0 18 7 20 55 20 52 0 55 1 55 25 0 59 -77 86
-118 42z m69 -7 c34 -19 23 -40 -21 -40 -43 0 -55 20 -22 39 21 13 20 13 43 1z"/>
<path d="M8857 1499 c-26 -15 -11 -30 19 -19 32 13 30 13 48 -6 24 -23 20 -31
-20 -37 -44 -7 -64 -23 -64 -51 0 -29 18 -46 50 -46 14 0 31 5 38 12 9 9 12 9
12 0 0 -7 7 -12 15 -12 19 0 21 103 2 140 -14 28 -68 38 -100 19z m81 -101 c4
-19 -33 -42 -54 -34 -20 8 -17 44 4 49 29 8 47 3 50 -15z"/>
<path d="M9140 1438 c0 -44 5 -79 12 -86 15 -15 53 -16 79 -2 13 7 19 7 19 0
0 -5 5 -10 10 -10 6 0 10 35 10 86 0 64 -3 85 -12 82 -8 -3 -14 -28 -16 -66
-2 -48 -7 -64 -22 -72 -36 -19 -49 -3 -52 68 -2 41 -8 67 -15 70 -10 3 -13
-16 -13 -70z"/>
<path d="M9330 1425 c0 -69 3 -85 15 -85 12 0 15 13 15 58 0 60 11 82 42 82
10 0 18 7 18 15 0 18 -31 20 -49 3 -11 -10 -14 -10 -18 0 -13 35 -23 3 -23
-73z"/>
<path d="M9472 1487 c-29 -31 -30 -99 -2 -127 25 -25 91 -27 111 -4 11 14 9
15 -23 9 -43 -8 -78 8 -78 35 0 18 7 20 55 20 52 0 55 1 55 25 0 59 -77 86
-118 42z m69 -7 c34 -19 23 -40 -21 -40 -43 0 -55 20 -22 39 21 13 20 13 43 1z"/>
<path d="M10800 1491 c0 -21 -2 -21 -315 -21 -273 0 -315 -2 -315 -15 0 -13
42 -15 315 -15 308 0 315 0 315 -20 0 -11 2 -20 4 -20 2 0 31 13 65 28 l62 28
-58 25 c-32 13 -61 26 -65 27 -4 2 -8 -6 -8 -17z"/>
<path d="M11920 1438 c0 -44 5 -79 12 -86 15 -15 53 -16 79 -2 13 7 19 7 19 0
0 -5 5 -10 10 -10 6 0 10 35 10 86 0 64 -3 85 -12 82 -8 -3 -14 -28 -16 -66
-2 -48 -7 -64 -22 -72 -36 -19 -49 -3 -52 68 -2 41 -8 67 -15 70 -10 3 -13
-16 -13 -70z"/>
<path d="M12118 1499 c-32 -19 -22 -56 23 -84 34 -22 39 -29 28 -41 -9 -11
-22 -14 -46 -9 -27 5 -32 3 -27 -10 4 -10 19 -15 45 -15 29 0 42 6 54 24 20
30 12 49 -31 70 -47 22 -44 52 5 48 23 -2 32 2 29 10 -6 17 -58 21 -80 7z"/>
<path d="M12382 1487 c-29 -31 -30 -99 -2 -127 25 -25 91 -27 111 -4 11 14 9
15 -23 9 -43 -8 -78 8 -78 35 0 18 7 20 55 20 52 0 55 1 55 25 0 59 -77 86
-118 42z m69 -7 c34 -19 23 -40 -21 -40 -43 0 -55 20 -22 39 21 13 20 13 43 1z"/>
<path d="M12550 1425 c0 -69 3 -85 15 -85 12 0 15 13 15 58 0 60 11 82 42 82
10 0 18 7 18 15 0 18 -31 20 -49 3 -11 -10 -14 -10 -18 0 -13 35 -23 3 -23
-73z"/>
<path d="M12680 1426 c0 -71 3 -86 15 -86 13 0 15 14 13 82 -2 54 -7 83 -15
86 -10 3 -13 -18 -13 -82z"/>
<path d="M12760 1425 c0 -68 3 -85 15 -85 10 0 15 16 17 61 3 65 19 88 52 76
12 -5 16 -20 16 -72 0 -51 3 -65 15 -65 22 0 21 132 -1 154 -19 19 -55 21 -73
4 -11 -10 -14 -10 -18 0 -13 35 -23 3 -23 -73z"/>
<path d="M12957 1492 c-11 -12 -15 -36 -15 -77 0 -33 -3 -68 -7 -79 -14 -32 8
-51 63 -54 45 -3 53 0 67 22 24 36 6 66 -40 66 -18 0 -40 3 -49 6 -28 11 -17
24 18 24 40 0 66 22 66 55 0 13 5 27 10 30 24 15 6 25 -43 25 -39 0 -58 -5
-70 -18z m61 -11 c8 -4 12 -19 10 -32 -2 -18 -9 -24 -28 -24 -19 0 -26 6 -28
24 -3 20 11 41 28 41 3 0 11 -4 18 -9z m27 -141 c11 -17 -15 -40 -46 -40 -31
0 -44 13 -35 35 6 17 71 21 81 5z"/>
<path d="M14430 1490 c0 -20 -7 -20 -315 -20 -273 0 -315 -2 -315 -15 0 -13
42 -15 315 -15 308 0 315 0 315 -20 0 -11 2 -20 4 -20 10 0 116 50 116 55 0 5
-106 55 -116 55 -2 0 -4 -9 -4 -20z"/>
<path d="M15140 1425 c0 -69 3 -85 15 -85 12 0 15 13 15 58 0 60 11 82 42 82
10 0 18 7 18 15 0 18 -31 20 -49 3 -11 -10 -14 -10 -18 0 -13 35 -23 3 -23
-73z"/>
<path d="M15282 1487 c-29 -31 -30 -99 -2 -127 25 -25 91 -27 111 -4 11 14 9
15 -23 9 -43 -8 -78 8 -78 35 0 18 7 20 55 20 52 0 55 1 55 25 0 59 -77 86
-118 42z m69 -7 c34 -19 23 -40 -21 -40 -43 0 -55 20 -22 39 21 13 20 13 43 1z"/>
<path d="M15640 1426 c0 -71 3 -86 15 -86 13 0 15 14 13 82 -2 54 -7 83 -15
86 -10 3 -13 -18 -13 -82z"/>
<path d="M15730 1490 c-25 -25 -27 -95 -4 -128 22 -32 104 -29 104 4 0 17 -5
17 -31 4 -32 -18 -59 4 -59 48 0 54 11 66 54 59 37 -6 45 0 24 21 -19 19 -66
14 -88 -8z"/>
<path d="M16080 1490 c-25 -25 -27 -95 -4 -128 22 -32 104 -29 104 4 0 17 -5
17 -31 4 -32 -18 -59 4 -59 48 0 54 11 66 54 59 37 -6 45 0 24 21 -19 19 -66
14 -88 -8z"/>
<path d="M16300 1438 c0 -44 5 -79 12 -86 15 -15 53 -16 79 -2 13 7 19 7 19 0
0 -5 5 -10 10 -10 6 0 10 35 10 86 0 64 -3 85 -12 82 -8 -3 -14 -28 -16 -66
-2 -48 -7 -64 -22 -72 -36 -19 -49 -3 -52 68 -2 41 -8 67 -15 70 -10 3 -13
-16 -13 -70z"/>
<path d="M16498 1499 c-32 -19 -22 -56 23 -84 34 -22 39 -29 28 -41 -9 -11
-22 -14 -46 -9 -27 5 -32 3 -27 -10 4 -10 19 -15 45 -15 29 0 42 6 54 24 20
30 12 49 -31 70 -47 22 -44 52 5 48 23 -2 32 2 29 10 -6 17 -58 21 -80 7z"/>
<path d="M16762 1487 c-29 -31 -30 -99 -2 -127 25 -25 91 -27 111 -4 11 14 9
15 -23 9 -43 -8 -78 8 -78 35 0 18 7 20 55 20 52 0 55 1 55 25 0 59 -77 86
-118 42z m69 -7 c34 -19 23 -40 -21 -40 -43 0 -55 20 -22 39 21 13 20 13 43 1z"/>
<path d="M16930 1425 c0 -69 3 -85 15 -85 12 0 15 13 15 58 0 60 11 82 42 82
10 0 18 7 18 15 0 18 -31 20 -49 3 -11 -10 -14 -10 -18 0 -13 35 -23 3 -23
-73z"/>
<path d="M4916 1153 c-3 -3 -6 -60 -6 -125 0 -98 3 -118 15 -118 12 0 15 20
15 119 0 109 -6 142 -24 124z"/>
<path d="M11846 1153 c-3 -3 -6 -60 -6 -125 0 -98 3 -118 15 -118 12 0 15 20
15 119 0 109 -6 142 -24 124z"/>
<path d="M12616 1153 c-3 -3 -6 -60 -6 -125 0 -96 3 -118 15 -118 10 0 15 16
17 61 3 65 19 88 52 76 12 -5 16 -20 16 -72 0 -51 3 -65 15 -65 22 0 21 132
-1 154 -18 19 -55 21 -72 4 -9 -9 -12 -2 -12 34 0 44 -10 65 -24 51z"/>
<path d="M5157 1134 c-9 -10 2 -24 19 -24 8 0 14 7 14 15 0 15 -21 21 -33 9z"/>
<path d="M5427 1134 c-9 -10 2 -24 19 -24 8 0 14 7 14 15 0 15 -21 21 -33 9z"/>
<path d="M8417 1134 c-9 -10 2 -24 19 -24 8 0 14 7 14 15 0 15 -21 21 -33 9z"/>
<path d="M9177 1134 c-9 -10 2 -24 19 -24 8 0 14 7 14 15 0 15 -21 21 -33 9z"/>
<path d="M12407 1134 c-9 -10 2 -24 19 -24 8 0 14 7 14 15 0 15 -21 21 -33 9z"/>
<path d="M12490 1100 c0 -11 -4 -20 -10 -20 -5 0 -10 -7 -10 -15 0 -8 5 -15
10 -15 6 0 10 -23 10 -51 0 -66 13 -89 50 -89 19 0 30 5 30 14 0 9 -7 12 -19
9 -21 -5 -31 19 -31 80 0 33 3 37 25 37 16 0 25 6 25 15 0 9 -9 15 -25 15 -18
0 -25 5 -25 20 0 11 -7 20 -15 20 -8 0 -15 -9 -15 -20z"/>
<path d="M4392 1057 c-29 -31 -30 -99 -2 -127 25 -25 91 -27 111 -4 11 14 9
15 -23 9 -43 -8 -78 8 -78 35 0 18 7 20 55 20 52 0 55 1 55 25 0 59 -77 86
-118 42z m69 -7 c34 -19 23 -40 -21 -40 -43 0 -55 20 -22 39 21 13 20 13 43 1z"/>
<path d="M4540 1074 c0 -3 8 -18 18 -32 10 -15 22 -32 25 -38 3 -6 -5 -27 -18
-47 -29 -42 -30 -47 -10 -47 8 0 22 14 30 31 13 24 19 28 30 19 8 -7 17 -20
20 -31 4 -10 15 -19 26 -19 19 0 18 2 -6 45 l-27 45 21 29 c12 16 21 34 21 40
0 21 -21 11 -38 -19 -9 -16 -19 -30 -22 -30 -3 0 -14 14 -23 30 -16 26 -47 42
-47 24z"/>
<path d="M4720 965 c0 -96 3 -115 15 -115 10 0 15 10 15 33 0 32 1 32 39 29
48 -5 71 22 71 85 0 67 -59 108 -99 71 -11 -10 -14 -10 -18 0 -14 38 -23 -2
-23 -103z m104 69 c11 -29 6 -72 -10 -88 -18 -19 -20 -19 -45 -6 -22 12 -27
78 -7 98 17 17 55 15 62 -4z"/>
<path d="M4997 1069 c-26 -15 -11 -30 19 -19 32 13 30 13 48 -6 24 -23 20 -31
-20 -37 -44 -7 -64 -23 -64 -51 0 -29 18 -46 50 -46 14 0 31 5 38 12 9 9 12 9
12 0 0 -7 7 -12 15 -12 19 0 21 103 2 140 -14 28 -68 38 -100 19z m81 -101 c4
-19 -33 -42 -54 -34 -20 8 -17 44 4 49 29 8 47 3 50 -15z"/>
<path d="M5160 996 c0 -71 3 -86 15 -86 13 0 15 14 13 82 -2 54 -7 83 -15 86
-10 3 -13 -18 -13 -82z"/>
<path d="M5240 995 c0 -68 3 -85 15 -85 10 0 15 16 17 61 3 65 19 88 52 76 12
-5 16 -20 16 -72 0 -51 3 -65 15 -65 22 0 21 132 -1 154 -19 19 -55 21 -73 4
-11 -10 -14 -10 -18 0 -13 35 -23 3 -23 -73z"/>
<path d="M5430 996 c0 -71 3 -86 15 -86 13 0 15 14 13 82 -2 54 -7 83 -15 86
-10 3 -13 -18 -13 -82z"/>
<path d="M5510 995 c0 -68 3 -85 15 -85 10 0 15 16 17 61 3 65 19 88 52 76 12
-5 16 -20 16 -72 0 -51 3 -65 15 -65 22 0 21 132 -1 154 -19 19 -55 21 -73 4
-11 -10 -14 -10 -18 0 -13 35 -23 3 -23 -73z"/>
<path d="M5707 1062 c-11 -12 -15 -36 -15 -77 0 -33 -3 -68 -7 -79 -14 -32 8
-51 63 -54 45 -3 53 0 67 22 24 36 6 66 -40 66 -18 0 -40 3 -49 6 -28 11 -17
24 18 24 40 0 66 22 66 55 0 13 5 27 10 30 24 15 6 25 -43 25 -39 0 -58 -5
-70 -18z m61 -11 c8 -4 12 -19 10 -32 -4 -34 -52 -34 -56 0 -3 20 11 41 28 41
3 0 11 -4 18 -9z m27 -141 c11 -17 -15 -40 -46 -40 -31 0 -44 13 -35 35 6 17
71 21 81 5z"/>
<path d="M7892 1057 c-29 -31 -30 -99 -2 -127 25 -25 91 -27 111 -4 11 14 9
15 -23 9 -43 -8 -78 8 -78 35 0 18 7 20 55 20 52 0 55 1 55 25 0 59 -77 86
-118 42z m69 -7 c34 -19 23 -40 -21 -40 -43 0 -55 20 -22 39 21 13 20 13 43 1z"/>
<path d="M8060 995 c0 -68 3 -85 15 -85 10 0 15 16 17 61 3 65 19 88 52 76 12
-5 16 -20 16 -72 0 -51 3 -65 15 -65 22 0 21 132 -1 154 -19 19 -55 21 -73 4
-11 -10 -14 -10 -18 0 -13 35 -23 3 -23 -73z"/>
<path d="M8257 1062 c-11 -12 -15 -36 -15 -77 0 -33 -3 -68 -7 -79 -14 -32 8
-51 63 -54 45 -3 53 0 67 22 24 36 6 66 -40 66 -18 0 -40 3 -49 6 -28 11 -17
24 18 24 40 0 66 22 66 55 0 13 5 27 10 30 24 15 6 25 -43 25 -39 0 -58 -5
-70 -18z m61 -11 c8 -4 12 -19 10 -32 -4 -34 -52 -34 -56 0 -3 20 11 41 28 41
3 0 11 -4 18 -9z m27 -141 c11 -17 -15 -40 -46 -40 -31 0 -44 13 -35 35 6 17
71 21 81 5z"/>
<path d="M8420 996 c0 -71 3 -86 15 -86 13 0 15 14 13 82 -2 54 -7 83 -15 86
-10 3 -13 -18 -13 -82z"/>
<path d="M8500 995 c0 -68 3 -85 15 -85 10 0 15 16 17 61 3 65 19 88 52 76 12
-5 16 -20 16 -72 0 -51 3 -65 15 -65 22 0 21 132 -1 154 -19 19 -55 21 -73 4
-11 -10 -14 -10 -18 0 -13 35 -23 3 -23 -73z"/>
<path d="M8702 1057 c-29 -31 -30 -99 -2 -127 25 -25 91 -27 111 -4 11 14 9
15 -23 9 -43 -8 -78 8 -78 35 0 18 7 20 55 20 52 0 55 1 55 25 0 59 -77 86
-118 42z m69 -7 c34 -19 23 -40 -21 -40 -43 0 -55 20 -22 39 21 13 20 13 43 1z"/>
<path d="M8882 1057 c-29 -31 -30 -99 -2 -127 25 -25 91 -27 111 -4 11 14 9
15 -23 9 -43 -8 -78 8 -78 35 0 18 7 20 55 20 52 0 55 1 55 25 0 59 -77 86
-118 42z m69 -7 c34 -19 23 -40 -21 -40 -43 0 -55 20 -22 39 21 13 20 13 43 1z"/>
<path d="M9050 995 c0 -69 3 -85 15 -85 12 0 15 13 15 58 0 60 11 82 42 82 10
0 18 7 18 15 0 18 -31 20 -49 3 -11 -10 -14 -10 -18 0 -13 35 -23 3 -23 -73z"/>
<path d="M9180 996 c0 -71 3 -86 15 -86 13 0 15 14 13 82 -2 54 -7 83 -15 86
-10 3 -13 -18 -13 -82z"/>
<path d="M9260 995 c0 -68 3 -85 15 -85 10 0 15 16 17 61 3 65 19 88 52 76 12
-5 16 -20 16 -72 0 -51 3 -65 15 -65 22 0 21 132 -1 154 -19 19 -55 21 -73 4
-11 -10 -14 -10 -18 0 -13 35 -23 3 -23 -73z"/>
<path d="M9457 1062 c-11 -12 -15 -36 -15 -77 0 -33 -3 -68 -7 -79 -14 -32 8
-51 63 -54 45 -3 53 0 67 22 24 36 6 66 -40 66 -18 0 -40 3 -49 6 -28 11 -17
24 18 24 40 0 66 22 66 55 0 13 5 27 10 30 24 15 6 25 -43 25 -39 0 -58 -5
-70 -18z m61 -11 c8 -4 12 -19 10 -32 -4 -34 -52 -34 -56 0 -3 20 11 41 28 41
3 0 11 -4 18 -9z m27 -141 c11 -17 -15 -40 -46 -40 -31 0 -44 13 -35 35 6 17
71 21 81 5z"/>
<path d="M11677 1069 c-26 -15 -11 -30 19 -19 32 13 30 13 48 -6 24 -23 20
-31 -20 -37 -44 -7 -64 -23 -64 -51 0 -29 18 -46 50 -46 14 0 31 5 38 12 9 9
12 9 12 0 0 -7 7 -12 15 -12 19 0 21 103 2 140 -14 28 -68 38 -100 19z m81
-101 c4 -19 -33 -42 -54 -34 -20 8 -17 44 4 49 29 8 47 3 50 -15z"/>
<path d="M11927 1062 c-11 -12 -15 -36 -15 -77 0 -33 -3 -68 -7 -79 -14 -32 8
-51 63 -54 45 -3 53 0 67 22 24 36 6 66 -40 66 -18 0 -40 3 -49 6 -28 11 -17
24 18 24 40 0 66 22 66 55 0 13 5 27 10 30 24 15 6 25 -43 25 -39 0 -58 -5
-70 -18z m61 -11 c8 -4 12 -19 10 -32 -4 -34 -52 -34 -56 0 -3 20 11 41 28 41
3 0 11 -4 18 -9z m27 -141 c11 -17 -15 -40 -46 -40 -31 0 -44 13 -35 35 6 17
71 21 81 5z"/>
<path d="M12102 1057 c-26 -28 -30 -92 -6 -125 11 -16 25 -22 55 -22 54 0 79
27 79 85 0 32 -6 51 -20 65 -28 28 -81 26 -108 -3z m96 -47 c9 -58 -25 -93
-68 -70 -29 16 -28 83 2 104 19 13 25 14 43 2 11 -7 21 -23 23 -36z"/>
<path d="M12280 995 c0 -69 3 -85 15 -85 12 0 15 13 15 58 0 60 11 82 42 82
10 0 18 7 18 15 0 18 -31 20 -49 3 -11 -10 -14 -10 -18 0 -13 35 -23 3 -23
-73z"/>
<path d="M12410 996 c0 -71 3 -86 15 -86 13 0 15 14 13 82 -2 54 -7 83 -15 86
-10 3 -13 -18 -13 -82z"/>
<path d="M12800 995 c0 -69 3 -85 15 -85 12 0 15 13 15 58 0 60 11 82 41 82
22 0 29 -20 29 -86 0 -41 4 -54 15 -54 10 0 15 16 17 61 3 65 19 88 52 76 12
-5 16 -20 16 -72 0 -51 3 -65 15 -65 22 0 21 132 -1 154 -20 20 -58 21 -74 1
-12 -14 -15 -14 -30 0 -20 18 -51 19 -69 3 -11 -10 -14 -10 -18 0 -13 35 -23
3 -23 -73z"/>
<path d="M5186 713 c-10 -11 -7 -243 4 -243 6 0 10 5 10 12 0 9 3 9 12 0 21
-21 75 -15 92 10 23 33 21 103 -4 128 -22 22 -60 26 -78 8 -9 -9 -12 -2 -12
34 0 44 -10 65 -24 51z m98 -119 c11 -29 6 -72 -10 -88 -18 -19 -20 -19 -45
-6 -22 12 -27 78 -7 98 17 17 55 15 62 -4z"/>
<path d="M5376 713 c-3 -3 -6 -60 -6 -125 0 -98 3 -118 15 -118 12 0 15 20 15
119 0 109 -6 142 -24 124z"/>
<path d="M4927 694 c-9 -10 2 -24 19 -24 8 0 14 7 14 15 0 15 -21 21 -33 9z"/>
<path d="M4450 630 c0 -7 12 -45 26 -86 22 -62 30 -74 47 -72 15 2 26 23 47
81 25 70 25 98 2 83 -5 -3 -17 -32 -27 -66 -10 -33 -21 -58 -24 -54 -3 3 -15
31 -26 61 -18 51 -45 82 -45 53z"/>
<path d="M4637 629 c-26 -15 -11 -30 19 -19 32 13 30 13 48 -6 24 -23 20 -31
-20 -37 -20 -3 -42 -11 -50 -18 -17 -14 -18 -51 -2 -67 15 -15 61 -15 76 0 9
9 12 9 12 0 0 -7 7 -12 15 -12 19 0 21 103 2 140 -14 28 -68 38 -100 19z m81
-101 c4 -19 -33 -42 -54 -34 -20 8 -17 44 4 49 29 8 47 3 50 -15z"/>
<path d="M4800 555 c0 -69 3 -85 15 -85 12 0 15 13 15 58 0 60 11 82 42 82 10
0 18 7 18 15 0 18 -31 20 -49 3 -11 -10 -14 -10 -18 0 -13 35 -23 3 -23 -73z"/>
<path d="M4930 556 c0 -71 3 -86 15 -86 13 0 15 14 13 82 -2 54 -7 83 -15 86
-10 3 -13 -18 -13 -82z"/>
<path d="M5017 629 c-26 -15 -11 -30 19 -19 32 13 30 13 48 -6 24 -23 20 -31
-20 -37 -20 -3 -42 -11 -50 -18 -17 -14 -18 -51 -2 -67 15 -15 61 -15 76 0 9
9 12 9 12 0 0 -7 7 -12 15 -12 19 0 21 103 2 140 -14 28 -68 38 -100 19z m81
-101 c4 -19 -33 -42 -54 -34 -20 8 -17 44 4 49 29 8 47 3 50 -15z"/>
<path d="M5462 617 c-29 -31 -30 -99 -2 -127 25 -25 91 -27 111 -4 11 14 9 15
-23 9 -43 -8 -78 8 -78 35 0 18 7 20 55 20 52 0 55 1 55 25 0 59 -77 86 -118
42z m69 -7 c34 -19 23 -40 -21 -40 -43 0 -55 20 -22 39 21 13 20 13 43 1z"/>
<path d="M5638 629 c-32 -19 -22 -56 23 -84 34 -22 39 -29 28 -41 -9 -11 -22
-14 -46 -9 -27 5 -32 3 -27 -10 4 -10 19 -15 45 -15 29 0 42 6 54 24 20 30 12
49 -31 70 -47 22 -44 52 5 48 23 -2 32 2 29 10 -6 17 -58 21 -80 7z"/>
</g>
</svg>
