<?xml version="1.0" standalone="no"?>
<!DOCTYPE svg PUBLIC "-//W3C//DTD SVG 20010904//EN"
 "http://www.w3.org/TR/2001/REC-SVG-20010904/DTD/svg10.dtd">
<svg version="1.0" xmlns="http://www.w3.org/2000/svg"
 width="1764.000000pt" height="700.000000pt" viewBox="0 0 1764.000000 700.000000"
 preserveAspectRatio="xMidYMid meet">

<g transform="translate(0.000000,700.000000) scale(0.100000,-0.100000)"
fill="#000000" stroke="none">
<path d="M4830 5870 c0 -85 3 -111 13 -107 8 2 12 33 12 107 0 74 -4 105 -12
108 -10 3 -13 -23 -13 -108z"/>
<path d="M5140 5871 c0 -67 4 -111 10 -111 6 0 10 5 10 12 0 9 3 9 12 0 16
-16 63 -15 77 2 22 26 25 84 6 112 -14 22 -22 25 -50 21 -33 -5 -34 -4 -37 30
-2 20 -9 38 -15 41 -10 3 -13 -23 -13 -107z m89 5 c17 -20 10 -77 -11 -89 -24
-16 -48 8 -48 47 0 49 34 73 59 42z"/>
<path d="M5847 5973 c-4 -3 -7 -21 -7 -39 0 -32 -1 -33 -34 -27 -27 4 -36 1
-50 -18 -35 -51 -9 -129 43 -129 15 0 32 5 39 12 9 9 12 9 12 0 0 -7 5 -12 10
-12 6 0 10 43 10 110 0 101 -5 122 -23 103z m-26 -93 c13 -7 19 -21 19 -44 0
-40 -24 -65 -48 -49 -21 12 -28 69 -11 89 14 17 15 17 40 4z"/>
<path d="M4490 5860 c0 -82 3 -100 15 -100 11 0 15 12 15 45 0 39 3 45 21 45
14 0 26 -13 40 -45 11 -25 27 -45 35 -45 12 0 12 5 -1 37 -9 20 -20 42 -25 48
-7 9 -5 16 5 25 18 15 20 61 3 78 -7 7 -34 12 -60 12 l-48 0 0 -100z m90 61
c12 -23 -10 -51 -41 -51 -15 0 -19 7 -19 35 0 31 3 35 25 35 14 0 29 -8 35
-19z"/>
<path d="M8370 5860 c0 -99 16 -141 22 -57 3 41 4 42 41 45 50 4 48 22 -3 22
-39 0 -40 1 -40 35 0 34 1 35 40 35 22 0 40 5 40 10 0 6 -22 10 -50 10 l-50 0
0 -100z"/>
<path d="M8830 5931 c0 -11 -6 -22 -12 -25 -10 -5 -10 -7 0 -12 7 -3 12 -25
12 -54 0 -27 3 -55 6 -64 7 -18 64 -23 64 -6 0 6 -9 10 -20 10 -18 0 -20 7
-20 55 0 48 2 55 20 55 11 0 20 5 20 10 0 6 -8 10 -19 10 -10 0 -21 9 -24 20
-7 26 -27 26 -27 1z"/>
<path d="M4662 5844 c4 -79 18 -96 68 -77 16 6 30 7 30 2 0 -5 5 -9 10 -9 6 0
10 32 10 75 0 59 -3 75 -15 75 -10 0 -15 -15 -17 -56 -2 -41 -8 -60 -20 -68
-26 -16 -41 5 -46 69 -6 78 -24 69 -20 -11z"/>
<path d="M4910 5890 c-24 -24 -26 -77 -4 -108 13 -19 24 -22 57 -20 22 2 42 8
44 14 2 7 -8 9 -27 6 -32 -5 -60 11 -60 34 0 10 14 14 50 14 41 0 50 3 50 18
0 55 -70 82 -110 42z m78 -22 c3 -15 -4 -18 -32 -18 -38 0 -44 8 -24 28 17 17
52 11 56 -10z"/>
<path d="M5317 5903 c-15 -14 -5 -20 30 -19 53 1 57 -27 7 -40 -80 -20 -71
-79 12 -79 l49 0 0 56 c0 32 -6 63 -14 73 -13 16 -71 22 -84 9z m73 -86 c0
-19 -21 -37 -42 -37 -21 0 -25 35 -5 43 23 10 47 7 47 -6z"/>
<path d="M5462 5898 c-22 -22 -13 -48 23 -70 42 -24 40 -44 -4 -41 -45 2 -34
-21 12 -25 63 -5 74 53 16 84 -40 20 -39 48 1 42 19 -3 29 -1 27 6 -5 16 -60
19 -75 4z"/>
<path d="M5600 5890 c-24 -24 -26 -77 -4 -108 13 -19 24 -22 57 -20 22 2 42 8
44 14 2 7 -8 9 -27 6 -32 -5 -60 11 -60 34 0 10 14 14 50 14 41 0 50 3 50 18
0 55 -70 82 -110 42z m78 -22 c3 -15 -4 -18 -32 -18 -38 0 -44 8 -24 28 17 17
52 11 56 -10z"/>
<path d="M8526 5891 c-32 -36 -20 -117 18 -127 33 -8 79 -1 83 13 3 9 -6 10
-33 6 -29 -5 -40 -2 -50 12 -22 30 -17 35 36 35 46 0 50 2 50 24 0 52 -69 76
-104 37z m72 -13 c21 -21 13 -28 -28 -28 -38 0 -40 2 -30 20 12 22 40 26 58 8z"/>
<path d="M8683 5903 c-26 -10 -12 -22 24 -20 28 1 38 -2 41 -14 2 -12 -7 -18
-33 -23 -40 -8 -59 -38 -43 -68 7 -14 20 -17 58 -16 l50 2 0 61 c0 34 -5 66
-12 73 -12 12 -62 15 -85 5z m65 -95 c-3 -25 -34 -36 -51 -19 -14 14 9 41 35
41 14 0 19 -6 16 -22z"/>
<path d="M8930 5863 c0 -27 3 -58 6 -71 8 -27 49 -40 76 -23 11 7 18 7 18 1 0
-5 5 -10 10 -10 6 0 10 32 10 75 0 43 -4 75 -10 75 -5 0 -10 -25 -10 -55 0
-45 -4 -56 -21 -65 -37 -20 -49 -6 -49 60 0 47 -3 60 -15 60 -11 0 -15 -12
-15 -47z"/>
<path d="M9100 5835 c0 -60 3 -75 15 -75 11 0 15 12 15 49 0 49 21 88 40 76 5
-3 11 -1 15 5 10 16 -23 24 -40 10 -10 -9 -15 -9 -15 -1 0 6 -7 11 -15 11 -12
0 -15 -15 -15 -75z"/>
<path d="M9226 5891 c-32 -36 -20 -117 18 -127 33 -8 79 -1 83 13 3 9 -6 10
-33 6 -29 -5 -40 -2 -50 12 -22 30 -17 35 36 35 46 0 50 2 50 24 0 52 -69 76
-104 37z m72 -13 c21 -21 13 -28 -28 -28 -38 0 -40 2 -30 20 12 22 40 26 58 8z"/>
<path d="M15907 5823 c-4 -3 -7 -53 -7 -110 0 -85 3 -103 15 -103 12 0 15 19
15 110 0 101 -5 122 -23 103z"/>
<path d="M15751 5784 c-15 -19 -21 -41 -21 -74 0 -63 28 -100 75 -100 43 0 65
9 65 25 0 10 -6 11 -29 2 -23 -9 -34 -7 -55 6 -22 15 -26 25 -26 66 0 69 38
99 92 70 17 -9 19 -8 16 8 -2 14 -14 19 -49 21 -41 3 -50 -1 -68 -24z"/>
<path d="M16280 5781 c0 -11 -6 -22 -12 -25 -10 -5 -10 -7 0 -12 7 -3 12 -25
12 -54 0 -27 3 -55 6 -64 7 -18 64 -23 64 -6 0 6 -9 10 -20 10 -18 0 -20 7
-20 55 0 48 2 55 20 55 11 0 20 5 20 10 0 6 -8 10 -19 10 -10 0 -21 9 -24 20
-7 26 -27 26 -27 1z"/>
<path d="M15970 5713 c0 -27 3 -58 6 -71 8 -27 49 -40 76 -23 11 7 18 7 18 1
0 -5 5 -10 10 -10 6 0 10 32 10 75 0 43 -4 75 -10 75 -5 0 -10 -25 -10 -55 0
-45 -4 -56 -21 -65 -37 -20 -49 -6 -49 60 0 47 -3 60 -15 60 -11 0 -15 -12
-15 -47z"/>
<path d="M16152 5748 c-22 -22 -14 -55 17 -68 56 -23 43 -60 -15 -46 -19 5
-25 3 -22 -6 6 -17 66 -23 84 -7 24 20 16 48 -21 71 -41 24 -41 43 1 43 16 1
29 5 29 10 0 15 -58 18 -73 3z"/>
<path d="M16396 5741 c-32 -36 -20 -117 18 -127 33 -8 79 -1 83 13 3 9 -6 10
-33 6 -29 -5 -40 -2 -50 12 -22 30 -17 35 36 35 46 0 50 2 50 24 0 52 -69 76
-104 37z m72 -13 c21 -21 13 -28 -28 -28 -38 0 -40 2 -30 20 12 22 40 26 58 8z"/>
<path d="M16540 5685 c0 -60 3 -75 15 -75 11 0 15 12 15 49 0 49 21 88 40 76
5 -3 11 -1 15 5 10 16 -23 24 -40 10 -10 -9 -15 -9 -15 -1 0 6 -7 11 -15 11
-12 0 -15 -15 -15 -75z"/>
<path d="M4202 5588 c-6 -6 -12 -22 -12 -35 0 -14 -6 -23 -15 -23 -8 0 -15 -4
-15 -9 0 -5 7 -11 15 -15 11 -4 15 -21 15 -66 0 -33 4 -60 10 -60 6 0 10 28
10 65 0 58 2 65 20 65 11 0 20 5 20 10 0 6 -9 10 -20 10 -11 0 -20 6 -20 13 0
19 16 38 27 35 6 -2 13 2 15 7 5 15 -35 18 -50 3z"/>
<path d="M5500 5490 c0 -85 3 -111 13 -107 8 2 12 33 12 107 0 74 -4 105 -12
108 -10 3 -13 -23 -13 -108z"/>
<path d="M9730 5561 c0 -39 0 -40 -33 -34 -24 4 -37 0 -51 -15 -20 -23 -24
-79 -7 -111 13 -24 59 -29 79 -9 9 9 12 9 12 0 0 -7 5 -12 10 -12 6 0 10 43
10 110 0 67 -4 110 -10 110 -5 0 -10 -18 -10 -39z m-19 -61 c13 -8 19 -21 19
-46 0 -27 -5 -37 -26 -46 -22 -11 -28 -10 -40 7 -17 22 -18 49 -4 76 12 22 23
24 51 9z"/>
<path d="M5820 5576 c0 -9 7 -16 16 -16 9 0 14 5 12 12 -6 18 -28 21 -28 4z"/>
<path d="M8847 5583 c-12 -11 -8 -23 8 -23 8 0 15 7 15 15 0 16 -12 20 -23 8z"/>
<path d="M7930 5480 l0 -100 55 0 c65 0 74 17 13 22 -40 3 -43 5 -46 35 -3 30
-1 32 35 35 49 4 49 22 1 26 -35 3 -38 6 -38 33 0 28 2 29 45 29 25 0 45 5 45
10 0 6 -25 10 -55 10 l-55 0 0 -100z"/>
<path d="M12910 5566 c0 -9 7 -16 16 -16 17 0 14 22 -4 28 -7 2 -12 -3 -12
-12z"/>
<path d="M4593 5553 c-4 -10 -11 -22 -17 -26 -8 -6 -7 -10 2 -14 6 -2 12 -22
12 -43 0 -60 15 -90 45 -90 30 0 33 15 5 23 -17 4 -20 14 -20 56 0 44 3 51 20
51 11 0 20 5 20 10 0 6 -9 10 -20 10 -13 0 -20 7 -20 20 0 25 -18 26 -27 3z"/>
<path d="M5713 5553 c-4 -10 -11 -22 -17 -26 -8 -6 -7 -10 2 -14 6 -2 12 -22
12 -43 0 -60 15 -90 45 -90 30 0 33 15 5 23 -17 4 -20 14 -20 56 0 44 3 51 20
51 11 0 20 5 20 10 0 6 -9 10 -20 10 -13 0 -20 7 -20 20 0 25 -18 26 -27 3z"/>
<path d="M8230 5551 c0 -11 -6 -22 -12 -25 -10 -5 -10 -7 0 -12 7 -3 12 -25
12 -54 0 -27 3 -55 6 -64 7 -18 64 -23 64 -6 0 6 -9 10 -20 10 -18 0 -20 7
-20 55 0 48 2 55 20 55 11 0 20 5 20 10 0 6 -8 10 -19 10 -10 0 -21 9 -24 20
-7 26 -27 26 -27 1z"/>
<path d="M8740 5551 c0 -11 -6 -22 -12 -25 -10 -5 -10 -7 0 -12 7 -3 12 -25
12 -54 0 -27 3 -55 6 -64 7 -18 64 -23 64 -6 0 6 -9 10 -20 10 -18 0 -20 7
-20 55 0 48 2 55 20 55 11 0 20 5 20 10 0 6 -8 10 -19 10 -10 0 -21 9 -24 20
-7 26 -27 26 -27 1z"/>
<path d="M11785 5558 c-2 -7 -18 -51 -35 -97 -35 -99 -34 -91 -15 -91 8 0 17
11 21 25 5 22 12 25 48 25 36 0 45 -4 54 -25 11 -23 32 -35 32 -17 0 4 -14 49
-32 100 -25 70 -37 92 -51 92 -9 0 -20 -6 -22 -12z m49 -95 c7 -20 4 -23 -23
-23 -35 0 -36 5 -19 63 l12 40 12 -29 c6 -16 15 -39 18 -51z"/>
<path d="M14630 5550 c0 -19 -7 -20 -145 -20 l-145 0 0 -2031 0 -2030 -192 2
c-171 1 -193 0 -196 -15 -3 -14 18 -16 207 -16 l211 0 0 2030 0 2030 130 0
c123 0 130 -1 130 -20 0 -11 2 -20 4 -20 10 0 116 50 116 55 0 5 -106 55 -116
55 -2 0 -4 -9 -4 -20z"/>
<path d="M12803 5543 c-4 -10 -11 -22 -17 -26 -8 -6 -7 -10 2 -14 6 -2 12 -22
12 -43 0 -60 15 -90 45 -90 30 0 33 15 5 23 -17 4 -20 14 -20 56 0 44 3 51 20
51 11 0 20 5 20 10 0 6 -9 10 -20 10 -13 0 -20 7 -20 20 0 25 -18 26 -27 3z"/>
<path d="M3620 5510 c0 -19 -7 -20 -150 -20 l-150 0 0 -2011 0 -2011 -200 4
c-185 3 -200 2 -200 -14 0 -17 17 -18 215 -18 l215 0 0 2010 0 2010 135 0
c128 0 135 -1 135 -20 0 -11 2 -20 4 -20 7 0 116 52 116 55 0 3 -109 55 -116
55 -2 0 -4 -9 -4 -20z"/>
<path d="M4290 5510 c-24 -24 -26 -77 -4 -108 13 -19 24 -22 57 -20 22 2 42 8
44 14 2 7 -8 9 -27 6 -32 -5 -60 11 -60 34 0 10 14 14 50 14 41 0 50 3 50 18
0 55 -70 82 -110 42z m78 -22 c3 -15 -4 -18 -32 -18 -38 0 -44 8 -24 28 17 17
52 11 56 -10z"/>
<path d="M4447 5523 c-15 -14 -5 -20 30 -19 53 1 57 -27 7 -40 -80 -20 -71
-79 12 -79 l49 0 0 56 c0 32 -6 63 -14 73 -13 16 -71 22 -84 9z m73 -86 c0
-19 -21 -37 -42 -37 -21 0 -25 35 -5 43 23 10 47 7 47 -6z"/>
<path d="M4702 5464 c4 -79 18 -96 68 -77 16 6 30 7 30 2 0 -5 5 -9 10 -9 6 0
10 32 10 75 0 59 -3 75 -15 75 -10 0 -15 -15 -17 -56 -2 -41 -8 -60 -20 -68
-26 -16 -41 5 -46 69 -6 78 -24 69 -20 -11z"/>
<path d="M4870 5454 c0 -56 3 -75 13 -72 7 3 13 26 15 54 4 53 17 78 39 70 7
-3 13 1 13 9 0 18 -31 20 -48 3 -9 -9 -12 -9 -12 0 0 7 -4 12 -10 12 -6 0 -10
-32 -10 -76z"/>
<path d="M4990 5510 c-24 -24 -26 -77 -4 -108 13 -19 24 -22 57 -20 22 2 42 8
44 14 2 7 -8 9 -27 6 -32 -5 -60 11 -60 34 0 10 14 14 50 14 41 0 50 3 50 18
0 55 -70 82 -110 42z m78 -22 c3 -15 -4 -18 -32 -18 -38 0 -44 8 -24 28 17 17
52 11 56 -10z"/>
<path d="M5212 5518 c-22 -22 -13 -48 23 -70 42 -24 40 -44 -4 -41 -45 2 -34
-21 12 -25 63 -5 74 53 16 84 -40 20 -39 48 1 42 19 -3 29 -1 27 6 -5 16 -60
19 -75 4z"/>
<path d="M5350 5510 c-24 -24 -26 -77 -4 -108 13 -19 24 -22 57 -20 22 2 42 8
44 14 2 7 -8 9 -27 6 -32 -5 -60 11 -60 34 0 10 14 14 50 14 41 0 50 3 50 18
0 55 -70 82 -110 42z m78 -22 c3 -15 -4 -18 -32 -18 -38 0 -44 8 -24 28 17 17
52 11 56 -10z"/>
<path d="M5580 5510 c-24 -24 -26 -77 -4 -108 20 -29 87 -28 92 1 3 16 1 17
-17 5 -30 -18 -55 0 -59 44 -4 45 18 66 53 50 20 -9 25 -9 25 2 0 31 -61 35
-90 6z"/>
<path d="M5820 5455 c0 -57 3 -76 13 -72 8 2 12 26 12 72 0 46 -4 70 -12 73
-10 3 -13 -16 -13 -73z"/>
<path d="M5900 5510 c-24 -24 -26 -77 -4 -108 20 -29 76 -30 104 -2 45 45 13
130 -50 130 -17 0 -39 -9 -50 -20z m79 -14 c17 -20 10 -77 -11 -90 -26 -16
-52 4 -56 43 -4 36 12 61 38 61 10 0 23 -6 29 -14z"/>
<path d="M6060 5454 c0 -56 3 -75 13 -72 7 3 13 26 15 55 3 54 21 79 47 69 11
-4 15 -21 15 -66 0 -47 3 -60 15 -60 12 0 15 13 15 56 0 86 -26 113 -81 84
-13 -7 -19 -7 -19 0 0 5 -4 10 -10 10 -6 0 -10 -32 -10 -76z"/>
<path d="M7290 5510 c0 -19 -7 -20 -150 -20 l-150 0 0 -2011 0 -2011 -195 4
c-180 3 -195 2 -195 -14 0 -17 17 -18 210 -18 l210 0 0 2010 0 2010 135 0
c128 0 135 -1 135 -20 0 -25 2 -25 50 0 22 11 40 18 40 15 0 -3 9 -1 21 6 23
12 15 27 -18 33 -12 3 -35 12 -52 20 -38 20 -41 20 -41 -4z"/>
<path d="M8070 5524 c0 -3 9 -19 21 -35 l21 -29 -21 -36 c-25 -41 -25 -44 -8
-44 8 0 19 11 25 25 6 14 15 25 20 25 5 0 14 -11 20 -25 6 -14 18 -25 27 -25
20 0 19 6 -6 42 l-22 30 22 39 c17 30 19 39 8 39 -7 0 -20 -11 -27 -25 -7 -14
-16 -25 -20 -25 -4 0 -12 11 -18 25 -10 22 -42 36 -42 19z"/>
<path d="M8330 5455 c0 -60 3 -75 15 -75 11 0 15 12 15 49 0 49 21 88 40 76 5
-3 11 -1 15 5 10 16 -23 24 -40 10 -10 -9 -15 -9 -15 -1 0 6 -7 11 -15 11 -12
0 -15 -15 -15 -75z"/>
<path d="M8453 5523 c-26 -10 -12 -22 24 -20 28 1 38 -2 41 -14 2 -12 -7 -18
-33 -23 -40 -8 -59 -38 -43 -68 7 -14 20 -17 58 -16 l50 2 0 61 c0 34 -5 66
-12 73 -12 12 -62 15 -85 5z m65 -95 c-3 -25 -34 -36 -51 -19 -14 14 9 41 35
41 14 0 19 -6 16 -22z"/>
<path d="M8608 5513 c-31 -36 -28 -104 5 -125 21 -13 64 -9 78 8 11 14 9 15
-24 9 -33 -6 -38 -4 -49 19 -8 19 -9 35 -2 54 8 22 16 27 42 25 42 -1 38 21
-4 25 -19 2 -36 -3 -46 -15z"/>
<path d="M8840 5455 c0 -60 3 -75 15 -75 12 0 15 15 15 75 0 60 -3 75 -15 75
-12 0 -15 -15 -15 -75z"/>
<path d="M8928 5513 c-31 -36 -28 -104 5 -125 22 -14 74 -8 90 10 23 26 22 94
-1 115 -24 22 -75 22 -94 0z m68 -11 c36 -24 21 -102 -20 -102 -42 0 -62 63
-30 94 17 17 33 20 50 8z"/>
<path d="M9080 5455 c0 -60 3 -75 15 -75 12 0 15 13 15 55 0 45 4 56 21 65 33
18 49 -4 49 -66 0 -43 3 -54 16 -54 14 0 16 9 11 60 -3 34 -11 67 -17 75 -15
18 -52 19 -68 3 -9 -9 -12 -9 -12 0 0 7 -7 12 -15 12 -12 0 -15 -15 -15 -75z"/>
<path d="M9323 5523 c-26 -10 -12 -22 24 -20 28 1 38 -2 41 -14 2 -12 -7 -18
-33 -23 -40 -8 -59 -38 -43 -68 7 -14 20 -17 58 -16 l50 2 0 61 c0 34 -5 66
-12 73 -12 12 -62 15 -85 5z m65 -95 c-3 -25 -34 -36 -51 -19 -14 14 9 41 35
41 14 0 19 -6 16 -22z"/>
<path d="M9460 5455 c0 -60 3 -75 15 -75 12 0 15 13 15 55 0 45 4 56 21 65 33
18 49 -4 49 -66 0 -43 3 -54 16 -54 14 0 16 9 11 60 -3 34 -11 67 -17 75 -15
18 -52 19 -68 3 -9 -9 -12 -9 -12 0 0 7 -7 12 -15 12 -12 0 -15 -15 -15 -75z"/>
<path d="M10960 5510 c0 -19 -7 -20 -150 -20 l-150 0 0 -2011 0 -2011 -195 4
c-180 3 -195 2 -195 -14 0 -17 17 -18 210 -18 l210 0 0 2010 0 2010 135 0
c128 0 135 -1 135 -20 0 -11 2 -20 4 -20 10 0 116 50 116 55 0 5 -106 55 -116
55 -2 0 -4 -9 -4 -20z"/>
<path d="M11940 5510 c-10 -6 -15 -28 -16 -72 -1 -35 -5 -70 -9 -79 -7 -19 28
-49 57 -49 38 0 68 23 68 51 0 29 -15 39 -60 39 -16 0 -32 5 -35 10 -4 6 6 10
24 10 36 0 61 23 61 56 0 13 5 24 11 24 5 0 7 5 4 10 -8 13 -85 13 -105 0z
m55 -40 c0 -16 -6 -26 -18 -28 -19 -4 -32 20 -23 44 9 25 41 13 41 -16z m15
-100 c13 -9 12 -12 -4 -25 -11 -8 -25 -15 -30 -15 -22 0 -39 18 -33 34 7 18
44 21 67 6z"/>
<path d="M12090 5510 c-10 -6 -15 -28 -16 -72 -1 -35 -5 -70 -9 -79 -7 -19 28
-49 57 -49 38 0 68 23 68 51 0 29 -15 39 -60 39 -16 0 -32 5 -35 10 -4 6 6 10
24 10 36 0 61 23 61 56 0 13 5 24 11 24 5 0 7 5 4 10 -8 13 -85 13 -105 0z
m55 -40 c0 -16 -6 -26 -18 -28 -19 -4 -32 20 -23 44 9 25 41 13 41 -16z m15
-100 c13 -9 12 -12 -4 -25 -11 -8 -25 -15 -30 -15 -22 0 -39 18 -33 34 7 18
44 21 67 6z"/>
<path d="M12230 5444 c0 -56 3 -75 13 -72 7 3 13 26 15 54 4 53 17 78 39 70 7
-3 13 1 13 9 0 18 -31 20 -48 3 -9 -9 -12 -9 -12 0 0 7 -4 12 -10 12 -6 0 -10
-32 -10 -76z"/>
<path d="M12350 5500 c-24 -24 -26 -77 -4 -108 13 -19 24 -22 57 -20 22 2 42
8 44 14 2 7 -8 9 -27 6 -32 -5 -60 11 -60 34 0 10 14 14 50 14 41 0 50 3 50
18 0 55 -70 82 -110 42z m78 -22 c3 -15 -4 -18 -32 -18 -38 0 -44 8 -24 28 17
17 52 11 56 -10z"/>
<path d="M12510 5510 c-10 -6 -15 -28 -16 -72 -1 -35 -5 -70 -9 -79 -7 -19 28
-49 57 -49 38 0 68 23 68 51 0 29 -15 39 -60 39 -16 0 -32 5 -35 10 -4 6 6 10
24 10 36 0 61 23 61 56 0 13 5 24 11 24 5 0 7 5 4 10 -8 13 -85 13 -105 0z
m55 -40 c0 -16 -6 -26 -18 -28 -19 -4 -32 20 -23 44 9 25 41 13 41 -16z m15
-100 c13 -9 12 -12 -4 -25 -11 -8 -25 -15 -30 -15 -22 0 -39 18 -33 34 7 18
44 21 67 6z"/>
<path d="M12657 5513 c-15 -14 -5 -20 30 -19 53 1 57 -27 7 -40 -80 -20 -71
-79 12 -79 l49 0 0 56 c0 32 -6 63 -14 73 -13 16 -71 22 -84 9z m73 -86 c0
-19 -21 -37 -42 -37 -21 0 -25 35 -5 43 23 10 47 7 47 -6z"/>
<path d="M12910 5445 c0 -57 3 -76 13 -72 8 2 12 26 12 72 0 46 -4 70 -12 73
-10 3 -13 -16 -13 -73z"/>
<path d="M12990 5500 c-24 -24 -26 -77 -4 -108 20 -29 76 -30 104 -2 45 45 13
130 -50 130 -17 0 -39 -9 -50 -20z m79 -14 c17 -20 10 -77 -11 -90 -26 -16
-52 4 -56 43 -4 36 12 61 38 61 10 0 23 -6 29 -14z"/>
<path d="M13150 5444 c0 -56 3 -75 13 -72 7 3 13 26 15 55 3 54 21 79 47 69
11 -4 15 -21 15 -66 0 -47 3 -60 15 -60 12 0 15 13 15 56 0 86 -26 113 -81 84
-13 -7 -19 -7 -19 0 0 5 -4 10 -10 10 -6 0 -10 -32 -10 -76z"/>
<path d="M16187 5443 c-4 -3 -7 -53 -7 -110 0 -85 3 -103 15 -103 12 0 15 19
15 110 0 101 -5 122 -23 103z"/>
<path d="M16527 5433 c-12 -11 -8 -23 8 -23 8 0 15 7 15 15 0 16 -12 20 -23 8z"/>
<path d="M15692 5338 c-18 -51 -32 -96 -32 -100 0 -18 21 -6 30 17 8 21 16 25
54 25 38 0 45 -3 50 -25 4 -14 13 -25 22 -25 17 0 17 -1 -25 117 -41 112 -57
111 -99 -9z m66 19 c18 -49 15 -57 -18 -57 -16 0 -30 3 -30 6 0 16 24 84 30
84 3 0 11 -15 18 -33z"/>
<path d="M15860 5305 c0 -60 3 -75 15 -75 12 0 15 13 15 55 0 45 4 56 21 65
33 18 49 -4 49 -66 0 -43 3 -54 16 -54 14 0 16 9 11 60 -3 34 -11 67 -17 75
-15 18 -52 19 -68 3 -9 -9 -12 -9 -12 0 0 7 -7 12 -15 12 -12 0 -15 -15 -15
-75z"/>
<path d="M16043 5373 c-26 -10 -12 -22 24 -20 28 1 38 -2 41 -14 2 -12 -7 -18
-33 -23 -40 -8 -59 -38 -43 -68 7 -14 20 -17 58 -16 l50 2 0 61 c0 34 -5 66
-12 73 -12 12 -62 15 -85 5z m65 -95 c-3 -25 -34 -36 -51 -19 -14 14 9 41 35
41 14 0 19 -6 16 -22z"/>
<path d="M16240 5370 c0 -5 11 -39 25 -75 19 -51 22 -71 14 -92 -5 -14 -7 -28
-4 -31 11 -12 33 25 60 103 16 44 30 86 33 93 2 6 -2 12 -10 12 -9 0 -22 -23
-33 -57 l-18 -58 -18 40 c-10 22 -20 48 -23 58 -4 18 -26 24 -26 7z"/>
<path d="M16402 5368 c-22 -22 -14 -55 17 -68 56 -23 43 -60 -15 -46 -19 5
-25 3 -22 -6 6 -17 66 -23 84 -7 24 20 16 48 -21 71 -41 24 -41 43 1 43 16 1
29 5 29 10 0 15 -58 18 -73 3z"/>
<path d="M16520 5305 c0 -60 3 -75 15 -75 12 0 15 15 15 75 0 60 -3 75 -15 75
-12 0 -15 -15 -15 -75z"/>
<path d="M16602 5368 c-22 -22 -14 -55 17 -68 56 -23 43 -60 -15 -46 -19 5
-25 3 -22 -6 6 -17 66 -23 84 -7 24 20 16 48 -21 71 -41 24 -41 43 1 43 16 1
29 5 29 10 0 15 -58 18 -73 3z"/>
<path d="M5477 5203 c-4 -3 -7 -21 -7 -39 0 -32 -1 -33 -34 -27 -27 4 -36 1
-50 -18 -35 -51 -9 -129 43 -129 15 0 32 5 39 12 9 9 12 9 12 0 0 -7 5 -12 10
-12 6 0 10 43 10 110 0 101 -5 122 -23 103z m-26 -93 c13 -7 19 -21 19 -44 0
-40 -24 -65 -48 -49 -21 12 -28 69 -11 89 14 17 15 17 40 4z"/>
<path d="M9117 5203 c-4 -3 -7 -53 -7 -110 0 -85 3 -103 15 -103 12 0 15 19
15 110 0 101 -5 122 -23 103z"/>
<path d="M8828 5186 c-15 -8 -24 -22 -26 -44 -3 -27 2 -35 30 -51 63 -38 70
-53 35 -75 -12 -7 -25 -7 -47 1 -24 9 -30 9 -30 -2 0 -26 74 -35 102 -12 37
30 26 77 -24 103 -39 20 -48 32 -41 52 4 9 17 13 39 10 22 -3 34 0 34 8 0 17
-45 23 -72 10z"/>
<path d="M9597 5193 c-12 -11 -8 -23 8 -23 8 0 15 7 15 15 0 16 -12 20 -23 8z"/>
<path d="M7730 5090 c0 -99 16 -141 22 -57 3 41 4 42 41 45 50 4 48 22 -3 22
-39 0 -40 1 -40 35 0 34 1 35 40 35 22 0 40 5 40 10 0 6 -22 10 -50 10 l-50 0
0 -100z"/>
<path d="M8190 5161 c0 -11 -6 -22 -12 -25 -10 -5 -10 -7 0 -12 7 -3 12 -25
12 -54 0 -27 3 -55 6 -64 7 -18 64 -23 64 -6 0 6 -9 10 -20 10 -18 0 -20 7
-20 55 0 48 2 55 20 55 11 0 20 5 20 10 0 6 -8 10 -19 10 -10 0 -21 9 -24 20
-7 26 -27 26 -27 1z"/>
<path d="M9490 5161 c0 -11 -6 -22 -12 -25 -10 -5 -10 -7 0 -12 7 -3 12 -25
12 -54 0 -27 3 -55 6 -64 7 -18 64 -23 64 -6 0 6 -9 10 -20 10 -18 0 -20 7
-20 55 0 48 2 55 20 55 11 0 20 5 20 10 0 6 -8 10 -19 10 -10 0 -21 9 -24 20
-7 26 -27 26 -27 1z"/>
<path d="M4590 5034 c0 -80 3 -105 13 -102 6 3 13 18 15 34 3 27 6 30 36 26
38 -4 55 11 63 62 10 65 -35 104 -88 76 -13 -7 -19 -7 -19 0 0 5 -4 10 -10 10
-6 0 -10 -42 -10 -106z m89 72 c17 -20 10 -77 -11 -89 -24 -16 -48 8 -48 47 0
49 34 73 59 42z"/>
<path d="M4770 5120 c-24 -24 -26 -77 -4 -108 13 -19 24 -22 57 -20 22 2 42 8
44 14 2 7 -8 9 -27 6 -32 -5 -60 11 -60 34 0 10 14 14 50 14 41 0 50 3 50 18
0 55 -70 82 -110 42z m78 -22 c3 -15 -4 -18 -32 -18 -38 0 -44 8 -24 28 17 17
52 11 56 -10z"/>
<path d="M4920 5064 c0 -56 3 -75 13 -72 7 3 13 26 15 54 4 53 17 78 39 70 7
-3 13 1 13 9 0 18 -31 20 -48 3 -9 -9 -12 -9 -12 0 0 7 -4 12 -10 12 -6 0 -10
-32 -10 -76z"/>
<path d="M5110 5120 c-24 -24 -26 -77 -4 -108 20 -29 76 -30 104 -2 45 45 13
130 -50 130 -17 0 -39 -9 -50 -20z m79 -14 c17 -20 10 -77 -11 -90 -26 -16
-52 4 -56 43 -4 36 12 61 38 61 10 0 23 -6 29 -14z"/>
<path d="M5270 5064 c0 -56 3 -75 13 -72 7 3 13 26 15 54 4 53 17 78 39 70 7
-3 13 1 13 9 0 18 -31 20 -48 3 -9 -9 -12 -9 -12 0 0 7 -4 12 -10 12 -6 0 -10
-32 -10 -76z"/>
<path d="M5560 5120 c-24 -24 -26 -77 -4 -108 13 -19 24 -22 57 -20 22 2 42 8
44 14 2 7 -8 9 -27 6 -32 -5 -60 11 -60 34 0 10 14 14 50 14 41 0 50 3 50 18
0 55 -70 82 -110 42z m78 -22 c3 -15 -4 -18 -32 -18 -38 0 -44 8 -24 28 17 17
52 11 56 -10z"/>
<path d="M5710 5064 c0 -56 3 -75 13 -72 7 3 13 26 15 54 4 53 17 78 39 70 7
-3 13 1 13 9 0 18 -31 20 -48 3 -9 -9 -12 -9 -12 0 0 7 -4 12 -10 12 -6 0 -10
-32 -10 -76z"/>
<path d="M7886 5121 c-32 -36 -20 -117 18 -127 33 -8 79 -1 83 13 3 9 -6 10
-33 6 -29 -5 -40 -2 -50 12 -22 30 -17 35 36 35 46 0 50 2 50 24 0 52 -69 76
-104 37z m72 -13 c21 -21 13 -28 -28 -28 -38 0 -40 2 -30 20 12 22 40 26 58 8z"/>
<path d="M8043 5133 c-26 -10 -12 -22 24 -20 28 1 38 -2 41 -14 2 -12 -7 -18
-33 -23 -40 -8 -59 -38 -43 -68 7 -14 20 -17 58 -16 l50 2 0 61 c0 34 -5 66
-12 73 -12 12 -62 15 -85 5z m65 -95 c-3 -25 -34 -36 -51 -19 -14 14 9 41 35
41 14 0 19 -6 16 -22z"/>
<path d="M8290 5093 c0 -27 3 -58 6 -71 8 -27 49 -40 76 -23 11 7 18 7 18 1 0
-5 5 -10 10 -10 6 0 10 32 10 75 0 43 -4 75 -10 75 -5 0 -10 -25 -10 -55 0
-45 -4 -56 -21 -65 -37 -20 -49 -6 -49 60 0 47 -3 60 -15 60 -11 0 -15 -12
-15 -47z"/>
<path d="M8460 5065 c0 -60 3 -75 15 -75 11 0 15 12 15 49 0 49 21 88 40 76 5
-3 11 -1 15 5 10 16 -23 24 -40 10 -10 -9 -15 -9 -15 -1 0 6 -7 11 -15 11 -12
0 -15 -15 -15 -75z"/>
<path d="M8586 5121 c-32 -36 -20 -117 18 -127 33 -8 79 -1 83 13 3 9 -6 10
-33 6 -29 -5 -40 -2 -50 12 -22 30 -17 35 36 35 46 0 50 2 50 24 0 52 -69 76
-104 37z m72 -13 c21 -21 13 -28 -28 -28 -38 0 -40 2 -30 20 12 22 40 26 58 8z"/>
<path d="M8966 5121 c-32 -36 -20 -117 18 -127 33 -8 79 -1 83 13 3 9 -6 10
-33 6 -29 -5 -40 -2 -50 12 -22 30 -17 35 36 35 46 0 50 2 50 24 0 52 -69 76
-104 37z m72 -13 c21 -21 13 -28 -28 -28 -38 0 -40 2 -30 20 12 22 40 26 58 8z"/>
<path d="M9196 5121 c-32 -36 -20 -117 18 -127 33 -8 79 -1 83 13 3 9 -6 10
-33 6 -29 -5 -40 -2 -50 12 -22 30 -17 35 36 35 46 0 50 2 50 24 0 52 -69 76
-104 37z m72 -13 c21 -21 13 -28 -28 -28 -38 0 -40 2 -30 20 12 22 40 26 58 8z"/>
<path d="M9358 5123 c-31 -36 -28 -104 5 -125 21 -13 64 -9 78 8 11 14 9 15
-24 9 -33 -6 -38 -4 -49 19 -8 19 -9 35 -2 54 8 22 16 27 42 25 42 -1 38 21
-4 25 -19 2 -36 -3 -46 -15z"/>
<path d="M9590 5065 c0 -60 3 -75 15 -75 12 0 15 15 15 75 0 60 -3 75 -15 75
-12 0 -15 -15 -15 -75z"/>
<path d="M9678 5123 c-31 -36 -28 -104 5 -125 22 -14 74 -8 90 10 23 26 22 94
-1 115 -24 22 -75 22 -94 0z m68 -11 c36 -24 21 -102 -20 -102 -42 0 -62 63
-30 94 17 17 33 20 50 8z"/>
<path d="M9830 5065 c0 -60 3 -75 15 -75 12 0 15 13 15 55 0 45 4 56 21 65 33
18 49 -4 49 -66 0 -43 3 -54 16 -54 14 0 16 9 11 60 -3 34 -11 67 -17 75 -15
18 -52 19 -68 3 -9 -9 -12 -9 -12 0 0 7 -7 12 -15 12 -12 0 -15 -15 -15 -75z"/>
<path d="M16170 3550 c0 -523 0 -530 -20 -530 -11 0 -20 -2 -20 -4 0 -10 50
-116 55 -116 5 0 55 106 55 116 0 2 -9 4 -20 4 -20 0 -20 7 -20 530 0 464 -2
530 -15 530 -13 0 -15 -66 -15 -530z"/>
<path d="M5166 3643 c-3 -219 -9 -449 -12 -510 -6 -102 -8 -113 -25 -113 -11
0 -19 -2 -19 -4 0 -9 50 -116 54 -116 6 0 56 99 56 111 0 5 -9 9 -21 9 -21 0
-21 3 -15 123 3 67 8 284 11 482 3 198 8 372 11 388 5 22 2 27 -14 27 -19 0
-20 -12 -26 -397z"/>
<path d="M8831 3723 c-1 -175 -4 -405 -7 -510 -7 -179 -8 -193 -26 -193 -10 0
-18 -2 -18 -4 0 -9 50 -116 55 -116 5 0 55 103 55 113 0 4 -9 7 -19 7 -20 0
-20 9 -15 423 2 232 6 461 9 510 3 80 2 87 -15 87 -18 0 -19 -13 -19 -317z"/>
<path d="M12504 4014 c4 -14 4 -243 0 -510 -7 -461 -8 -484 -26 -484 -10 0
-18 -2 -18 -4 0 -10 50 -116 55 -116 5 0 55 106 55 116 0 2 -10 4 -22 4 l-21
0 7 510 7 510 -21 0 c-19 0 -21 -4 -16 -26z"/>
<path d="M5067 2533 c-4 -3 -7 -53 -7 -110 0 -85 3 -103 15 -103 12 0 15 19
15 110 0 101 -5 122 -23 103z"/>
<path d="M5137 2533 c-4 -3 -7 -53 -7 -110 0 -85 3 -103 15 -103 12 0 15 19
15 110 0 101 -5 122 -23 103z"/>
<path d="M8740 2430 c0 -85 3 -111 13 -107 8 2 12 33 12 107 0 74 -4 105 -12
108 -10 3 -13 -23 -13 -108z"/>
<path d="M8810 2430 c0 -85 3 -111 13 -107 8 2 12 33 12 107 0 74 -4 105 -12
108 -10 3 -13 -23 -13 -108z"/>
<path d="M4780 2517 c-17 -9 -26 -22 -28 -45 -3 -27 2 -35 30 -51 63 -38 70
-53 35 -75 -12 -7 -25 -7 -47 1 -24 9 -30 9 -30 -2 0 -26 74 -35 102 -12 37
30 26 77 -24 103 -39 20 -48 32 -41 52 4 9 17 13 39 10 23 -3 34 0 34 9 0 7
-4 13 -9 13 -5 0 -15 2 -23 5 -7 3 -24 -1 -38 -8z"/>
<path d="M8462 2522 c-26 -4 -48 -42 -39 -66 3 -8 24 -27 47 -41 46 -29 54
-61 16 -71 -13 -3 -34 0 -46 6 -19 10 -21 9 -18 -7 5 -26 73 -31 99 -7 31 28
21 64 -26 95 -53 36 -54 64 -2 63 22 -1 36 3 34 9 -4 14 -37 24 -65 19z"/>
<path d="M4916 2451 c-32 -36 -20 -117 18 -127 33 -8 79 -1 83 13 3 9 -6 10
-33 6 -29 -5 -40 -2 -50 12 -22 30 -17 35 36 35 46 0 50 2 50 24 0 52 -69 76
-104 37z m72 -13 c21 -21 13 -28 -28 -28 -38 0 -40 2 -30 20 12 22 40 26 58 8z"/>
<path d="M5216 2451 c-32 -36 -20 -117 18 -127 33 -8 79 -1 83 13 3 9 -6 10
-33 6 -29 -5 -40 -2 -50 12 -22 30 -17 35 36 35 46 0 50 2 50 24 0 52 -69 76
-104 37z m72 -13 c21 -21 13 -28 -28 -28 -38 0 -40 2 -30 20 12 22 40 26 58 8z"/>
<path d="M5360 2395 c0 -60 3 -75 15 -75 11 0 15 12 15 48 0 53 9 72 35 76 11
2 21 8 23 14 5 16 -31 15 -46 0 -9 -9 -12 -9 -12 0 0 7 -7 12 -15 12 -12 0
-15 -15 -15 -75z"/>
<path d="M5482 2458 c-22 -22 -14 -55 17 -68 56 -23 43 -60 -15 -46 -19 5 -25
3 -22 -6 6 -17 66 -23 84 -7 24 20 16 48 -21 71 -41 24 -41 43 1 43 16 1 29 5
29 10 0 15 -58 18 -73 3z"/>
<path d="M8590 2450 c-24 -24 -26 -77 -4 -108 13 -19 24 -22 57 -20 22 2 42 8
44 14 2 7 -8 9 -27 6 -32 -5 -60 11 -60 34 0 10 14 14 50 14 41 0 50 3 50 18
0 55 -70 82 -110 42z m78 -22 c3 -15 -4 -18 -32 -18 -38 0 -44 8 -24 28 17 17
52 11 56 -10z"/>
<path d="M8890 2450 c-24 -24 -26 -77 -4 -108 13 -19 24 -22 57 -20 22 2 42 8
44 14 2 7 -8 9 -27 6 -32 -5 -60 11 -60 34 0 10 14 14 50 14 41 0 50 3 50 18
0 55 -70 82 -110 42z m78 -22 c3 -15 -4 -18 -32 -18 -38 0 -44 8 -24 28 17 17
52 11 56 -10z"/>
<path d="M9040 2394 c0 -56 3 -75 13 -72 7 3 13 26 15 54 4 53 17 78 39 70 7
-3 13 1 13 9 0 18 -31 20 -48 3 -9 -9 -12 -9 -12 0 0 7 -4 12 -10 12 -6 0 -10
-32 -10 -76z"/>
<path d="M9152 2458 c-22 -22 -13 -48 23 -70 42 -24 40 -44 -4 -41 -43 2 -35
-21 9 -25 24 -3 38 2 47 14 21 28 16 43 -22 65 -45 27 -47 53 -5 47 19 -3 29
-1 27 6 -5 16 -60 19 -75 4z"/>
<path d="M1390 2240 c0 -85 3 -111 13 -107 8 2 12 33 12 107 0 74 -4 105 -12
108 -10 3 -13 -23 -13 -108z"/>
<path d="M1460 2240 c0 -85 3 -111 13 -107 8 2 12 33 12 107 0 74 -4 105 -12
108 -10 3 -13 -23 -13 -108z"/>
<path d="M1112 2332 c-26 -4 -48 -42 -39 -66 3 -8 24 -27 47 -41 46 -29 54
-61 16 -71 -13 -3 -34 0 -46 6 -19 10 -21 9 -18 -7 5 -26 73 -31 99 -7 31 28
21 64 -26 95 -53 36 -54 64 -2 63 22 -1 36 3 34 9 -4 14 -37 24 -65 19z"/>
<path d="M1240 2260 c-24 -24 -26 -77 -4 -108 13 -19 24 -22 57 -20 22 2 42 8
44 14 2 7 -8 9 -27 6 -32 -5 -60 11 -60 34 0 10 14 14 50 14 41 0 50 3 50 18
0 55 -70 82 -110 42z m78 -22 c3 -15 -4 -18 -32 -18 -38 0 -44 8 -24 28 17 17
52 11 56 -10z"/>
<path d="M1540 2260 c-24 -24 -26 -77 -4 -108 13 -19 24 -22 57 -20 22 2 42 8
44 14 2 7 -8 9 -27 6 -32 -5 -60 11 -60 34 0 10 14 14 50 14 41 0 50 3 50 18
0 55 -70 82 -110 42z m78 -22 c3 -15 -4 -18 -32 -18 -38 0 -44 8 -24 28 17 17
52 11 56 -10z"/>
<path d="M1690 2204 c0 -56 3 -75 13 -72 7 3 13 26 15 54 4 53 17 78 39 70 7
-3 13 1 13 9 0 18 -31 20 -48 3 -9 -9 -12 -9 -12 0 0 7 -4 12 -10 12 -6 0 -10
-32 -10 -76z"/>
<path d="M1802 2268 c-22 -22 -13 -48 23 -70 42 -24 40 -44 -4 -41 -43 2 -35
-21 9 -25 24 -3 38 2 47 14 21 28 16 43 -22 65 -45 27 -47 53 -5 47 19 -3 29
-1 27 6 -5 16 -60 19 -75 4z"/>
<path d="M5026 2144 c-9 -8 -16 -24 -16 -34 0 -10 -6 -21 -12 -24 -10 -5 -10
-7 0 -12 8 -4 12 -28 12 -70 0 -50 3 -64 15 -64 12 0 15 14 15 65 0 51 3 65
15 65 8 0 15 5 15 10 0 6 -7 10 -16 10 -10 0 -14 7 -12 23 2 14 9 21 21 21 9
-1 17 4 17 12 0 19 -35 18 -54 -2z"/>
<path d="M5550 2121 c0 -39 0 -40 -33 -34 -24 4 -37 0 -51 -15 -20 -23 -24
-79 -7 -111 13 -24 59 -29 79 -9 9 9 12 9 12 0 0 -7 5 -12 10 -12 6 0 10 43
10 110 0 67 -4 110 -10 110 -5 0 -10 -18 -10 -39z m-19 -61 c13 -8 19 -21 19
-46 0 -27 -5 -37 -26 -46 -22 -11 -28 -10 -40 7 -17 22 -18 49 -4 76 12 22 23
24 51 9z"/>
<path d="M8702 2148 c-6 -6 -12 -22 -12 -35 0 -14 -6 -23 -15 -23 -8 0 -15 -4
-15 -9 0 -5 7 -11 15 -15 11 -4 15 -21 15 -66 0 -33 4 -60 10 -60 6 0 10 28
10 65 0 58 2 65 20 65 11 0 20 5 20 10 0 6 -9 10 -20 10 -11 0 -20 6 -20 13 0
19 16 38 27 35 6 -2 13 2 15 7 5 15 -35 18 -50 3z"/>
<path d="M9227 2153 c-4 -3 -7 -21 -7 -39 0 -32 -1 -33 -34 -27 -27 4 -36 1
-50 -18 -35 -51 -9 -129 43 -129 15 0 32 5 39 12 9 9 12 9 12 0 0 -7 5 -12 10
-12 6 0 10 43 10 110 0 101 -5 122 -23 103z m-26 -93 c13 -7 19 -21 19 -44 0
-40 -24 -65 -48 -49 -21 12 -28 69 -11 89 14 17 15 17 40 4z"/>
<path d="M4457 2143 c-12 -11 -8 -23 8 -23 8 0 15 7 15 15 0 16 -12 20 -23 8z"/>
<path d="M8130 2136 c0 -9 7 -16 16 -16 9 0 14 5 12 12 -6 18 -28 21 -28 4z"/>
<path d="M4330 2040 l0 -100 50 0 c58 0 68 17 13 22 l-38 3 -3 88 c-4 121 -22
111 -22 -13z"/>
<path d="M8000 2040 l0 -100 55 0 c30 0 55 5 55 10 0 6 -18 10 -40 10 l-40 0
0 90 c0 73 -3 90 -15 90 -12 0 -15 -18 -15 -100z"/>
<path d="M4660 2111 c0 -11 -6 -22 -12 -25 -10 -5 -10 -7 0 -12 7 -3 12 -25
12 -54 0 -27 3 -55 6 -64 7 -18 64 -23 64 -6 0 6 -9 10 -20 10 -18 0 -20 7
-20 55 0 48 2 55 20 55 11 0 20 5 20 10 0 6 -8 10 -19 10 -10 0 -21 9 -24 20
-7 26 -27 26 -27 1z"/>
<path d="M8333 2113 c-4 -10 -11 -22 -17 -26 -8 -6 -7 -10 2 -14 6 -2 12 -22
12 -43 0 -60 15 -90 45 -90 30 0 33 15 5 23 -17 4 -20 14 -20 56 0 44 3 51 20
51 11 0 20 5 20 10 0 6 -9 10 -20 10 -13 0 -20 7 -20 20 0 25 -18 26 -27 3z"/>
<path d="M4450 2015 c0 -60 3 -75 15 -75 12 0 15 15 15 75 0 60 -3 75 -15 75
-12 0 -15 -15 -15 -75z"/>
<path d="M4532 2078 c-22 -22 -14 -55 17 -68 56 -23 43 -60 -15 -46 -19 5 -25
3 -22 -6 6 -17 66 -23 84 -7 24 20 16 48 -21 71 -41 24 -41 43 1 43 16 1 29 5
29 10 0 15 -58 18 -73 3z"/>
<path d="M4848 2073 c-31 -36 -28 -104 5 -125 22 -14 74 -8 90 10 23 26 22 94
-1 115 -24 22 -75 22 -94 0z m68 -11 c36 -24 21 -102 -20 -102 -42 0 -62 63
-30 94 17 17 33 20 50 8z"/>
<path d="M5188 2073 c-31 -36 -28 -104 5 -125 22 -14 74 -8 90 10 23 26 22 94
-1 115 -24 22 -75 22 -94 0z m68 -11 c36 -24 21 -102 -20 -102 -42 0 -62 63
-30 94 17 17 33 20 50 8z"/>
<path d="M5340 2015 c0 -60 3 -75 15 -75 11 0 15 12 15 48 0 53 9 72 35 76 11
2 21 8 23 14 5 16 -31 15 -46 0 -9 -9 -12 -9 -12 0 0 7 -7 12 -15 12 -12 0
-15 -15 -15 -75z"/>
<path d="M5636 2071 c-32 -36 -20 -117 18 -127 33 -8 79 -1 83 13 3 9 -6 10
-33 6 -29 -5 -40 -2 -50 12 -22 30 -17 35 36 35 46 0 50 2 50 24 0 52 -69 76
-104 37z m72 -13 c21 -21 13 -28 -28 -28 -38 0 -40 2 -30 20 12 22 40 26 58 8z"/>
<path d="M5780 2015 c0 -60 3 -75 15 -75 11 0 15 12 15 48 0 53 9 72 35 76 11
2 21 8 23 14 5 16 -31 15 -46 0 -9 -9 -12 -9 -12 0 0 7 -7 12 -15 12 -12 0
-15 -15 -15 -75z"/>
<path d="M5902 2078 c-22 -22 -14 -55 17 -68 56 -23 43 -60 -15 -46 -19 5 -25
3 -22 -6 6 -17 66 -23 84 -7 24 20 16 48 -21 71 -41 24 -41 43 1 43 16 1 29 5
29 10 0 15 -58 18 -73 3z"/>
<path d="M8130 2015 c0 -57 3 -76 13 -72 8 2 12 26 12 72 0 46 -4 70 -12 73
-10 3 -13 -16 -13 -73z"/>
<path d="M8202 2078 c-22 -22 -13 -48 23 -70 42 -24 40 -44 -4 -41 -43 2 -35
-21 9 -25 24 -3 38 2 47 14 21 28 16 43 -22 65 -45 27 -47 53 -5 47 19 -3 29
-1 27 6 -5 16 -60 19 -75 4z"/>
<path d="M8520 2070 c-24 -24 -26 -77 -4 -108 20 -29 76 -30 104 -2 45 45 13
130 -50 130 -17 0 -39 -9 -50 -20z m79 -14 c17 -20 10 -77 -11 -90 -26 -16
-52 4 -56 43 -4 36 12 61 38 61 10 0 23 -6 29 -14z"/>
<path d="M8860 2070 c-24 -24 -26 -77 -4 -108 20 -29 76 -30 104 -2 45 45 13
130 -50 130 -17 0 -39 -9 -50 -20z m79 -14 c17 -20 10 -77 -11 -90 -26 -16
-52 4 -56 43 -4 36 12 61 38 61 10 0 23 -6 29 -14z"/>
<path d="M9020 2014 c0 -56 3 -75 13 -72 7 3 13 26 15 54 4 53 17 78 39 70 7
-3 13 1 13 9 0 18 -31 20 -48 3 -9 -9 -12 -9 -12 0 0 7 -4 12 -10 12 -6 0 -10
-32 -10 -76z"/>
<path d="M9310 2070 c-24 -24 -26 -77 -4 -108 13 -19 24 -22 57 -20 22 2 42 8
44 14 2 7 -8 9 -27 6 -32 -5 -60 11 -60 34 0 10 14 14 50 14 41 0 50 3 50 18
0 55 -70 82 -110 42z m78 -22 c3 -15 -4 -18 -32 -18 -38 0 -44 8 -24 28 17 17
52 11 56 -10z"/>
<path d="M9460 2014 c0 -56 3 -75 13 -72 7 3 13 26 15 54 4 53 17 78 39 70 7
-3 13 1 13 9 0 18 -31 20 -48 3 -9 -9 -12 -9 -12 0 0 7 -4 12 -10 12 -6 0 -10
-32 -10 -76z"/>
<path d="M9572 2078 c-22 -22 -13 -48 23 -70 42 -24 40 -44 -4 -41 -43 2 -35
-21 9 -25 24 -3 38 2 47 14 21 28 16 43 -22 65 -45 27 -47 53 -5 47 19 -3 29
-1 27 6 -5 16 -60 19 -75 4z"/>
<path d="M680 1860 c0 -85 3 -111 13 -107 8 2 12 33 12 107 0 74 -4 105 -12
108 -10 3 -13 -23 -13 -108z"/>
<path d="M1322 1958 c-6 -6 -12 -22 -12 -35 0 -14 -6 -23 -15 -23 -8 0 -15 -4
-15 -9 0 -5 7 -11 15 -15 11 -4 15 -21 15 -66 0 -33 4 -60 10 -60 6 0 10 28
10 65 0 58 2 65 20 65 11 0 20 5 20 10 0 6 -9 10 -20 10 -11 0 -20 6 -20 13 0
19 16 38 27 35 6 -2 13 2 15 7 5 15 -35 18 -50 3z"/>
<path d="M1847 1963 c-4 -3 -7 -21 -7 -39 0 -32 -1 -33 -34 -27 -27 4 -36 1
-50 -18 -35 -51 -9 -129 43 -129 15 0 32 5 39 12 9 9 12 9 12 0 0 -7 5 -12 10
-12 6 0 10 43 10 110 0 101 -5 122 -23 103z m-26 -93 c13 -7 19 -21 19 -44 0
-40 -24 -65 -48 -49 -21 12 -28 69 -11 89 14 17 15 17 40 4z"/>
<path d="M750 1946 c0 -9 7 -16 16 -16 17 0 14 22 -4 28 -7 2 -12 -3 -12 -12z"/>
<path d="M12417 1953 c-4 -3 -7 -53 -7 -110 0 -85 3 -103 15 -103 12 0 15 19
15 110 0 101 -5 122 -23 103z"/>
<path d="M12487 1953 c-4 -3 -7 -53 -7 -110 0 -85 3 -103 15 -103 12 0 15 19
15 110 0 101 -5 122 -23 103z"/>
<path d="M15537 1953 c-4 -3 -7 -53 -7 -110 0 -85 3 -103 15 -103 12 0 15 19
15 110 0 101 -5 122 -23 103z"/>
<path d="M15607 1953 c-4 -3 -7 -53 -7 -110 0 -85 3 -103 15 -103 12 0 15 19
15 110 0 101 -5 122 -23 103z"/>
<path d="M15956 1938 c-9 -12 -13 -24 -11 -27 6 -5 45 29 45 41 0 15 -19 8
-34 -14z"/>
<path d="M16417 1953 c-4 -3 -7 -53 -7 -110 0 -85 3 -103 15 -103 12 0 15 19
15 110 0 101 -5 122 -23 103z"/>
<path d="M12130 1937 c-17 -9 -26 -22 -28 -45 -3 -27 2 -35 30 -51 63 -38 70
-53 35 -75 -12 -7 -25 -7 -47 1 -24 9 -30 9 -30 -2 0 -26 74 -35 102 -12 37
30 26 77 -24 103 -39 20 -48 32 -41 52 4 9 17 13 39 10 23 -3 34 0 34 9 0 7
-4 13 -9 13 -5 0 -15 2 -23 5 -7 3 -24 -1 -38 -8z"/>
<path d="M15250 1937 c-17 -9 -26 -22 -28 -45 -3 -27 2 -35 30 -51 63 -38 70
-53 35 -75 -12 -7 -25 -7 -47 1 -24 9 -30 9 -30 -2 0 -26 74 -35 102 -12 37
30 26 77 -24 103 -39 20 -48 32 -41 52 4 9 17 13 39 10 23 -3 34 0 34 9 0 7
-4 13 -9 13 -5 0 -15 2 -23 5 -7 3 -24 -1 -38 -8z"/>
<path d="M953 1923 c-4 -10 -11 -22 -17 -26 -8 -6 -7 -10 2 -14 6 -2 12 -22
12 -43 0 -60 15 -90 45 -90 30 0 33 15 5 23 -17 4 -20 14 -20 56 0 44 3 51 20
51 11 0 20 5 20 10 0 6 -9 10 -20 10 -13 0 -20 7 -20 20 0 25 -18 26 -27 3z"/>
<path d="M16261 1914 c-15 -19 -21 -41 -21 -74 0 -63 28 -100 75 -100 43 0 65
9 65 25 0 10 -6 11 -29 2 -23 -9 -34 -7 -55 6 -22 15 -26 25 -26 66 0 69 38
99 92 70 17 -9 19 -8 16 8 -2 14 -14 19 -49 21 -41 3 -50 -1 -68 -24z"/>
<path d="M16790 1911 c0 -11 -6 -22 -12 -25 -10 -5 -10 -7 0 -12 7 -3 12 -25
12 -54 0 -27 3 -55 6 -64 7 -18 64 -23 64 -6 0 6 -9 10 -20 10 -18 0 -20 7
-20 55 0 48 2 55 20 55 11 0 20 5 20 10 0 6 -8 10 -19 10 -10 0 -21 9 -24 20
-7 26 -27 26 -27 1z"/>
<path d="M750 1825 c0 -57 3 -76 13 -72 8 2 12 26 12 72 0 46 -4 70 -12 73
-10 3 -13 -16 -13 -73z"/>
<path d="M822 1888 c-22 -22 -13 -48 23 -70 42 -24 40 -44 -4 -41 -43 2 -35
-21 9 -25 24 -3 38 2 47 14 21 28 16 43 -22 65 -45 27 -47 53 -5 47 19 -3 29
-1 27 6 -5 16 -60 19 -75 4z"/>
<path d="M1140 1880 c-24 -24 -26 -77 -4 -108 20 -29 76 -30 104 -2 45 45 13
130 -50 130 -17 0 -39 -9 -50 -20z m79 -14 c17 -20 10 -77 -11 -90 -26 -16
-52 4 -56 43 -4 36 12 61 38 61 10 0 23 -6 29 -14z"/>
<path d="M1480 1880 c-24 -24 -26 -77 -4 -108 20 -29 76 -30 104 -2 45 45 13
130 -50 130 -17 0 -39 -9 -50 -20z m79 -14 c17 -20 10 -77 -11 -90 -26 -16
-52 4 -56 43 -4 36 12 61 38 61 10 0 23 -6 29 -14z"/>
<path d="M1640 1824 c0 -56 3 -75 13 -72 7 3 13 26 15 54 4 53 17 78 39 70 7
-3 13 1 13 9 0 18 -31 20 -48 3 -9 -9 -12 -9 -12 0 0 7 -4 12 -10 12 -6 0 -10
-32 -10 -76z"/>
<path d="M1930 1880 c-24 -24 -26 -77 -4 -108 13 -19 24 -22 57 -20 22 2 42 8
44 14 2 7 -8 9 -27 6 -32 -5 -60 11 -60 34 0 10 14 14 50 14 41 0 50 3 50 18
0 55 -70 82 -110 42z m78 -22 c3 -15 -4 -18 -32 -18 -38 0 -44 8 -24 28 17 17
52 11 56 -10z"/>
<path d="M2080 1824 c0 -56 3 -75 13 -72 7 3 13 26 15 54 4 53 17 78 39 70 7
-3 13 1 13 9 0 18 -31 20 -48 3 -9 -9 -12 -9 -12 0 0 7 -4 12 -10 12 -6 0 -10
-32 -10 -76z"/>
<path d="M2192 1888 c-22 -22 -13 -48 23 -70 42 -24 40 -44 -4 -41 -43 2 -35
-21 9 -25 24 -3 38 2 47 14 21 28 16 43 -22 65 -45 27 -47 53 -5 47 19 -3 29
-1 27 6 -5 16 -60 19 -75 4z"/>
<path d="M12266 1871 c-32 -36 -20 -117 18 -127 33 -8 79 -1 83 13 3 9 -6 10
-33 6 -29 -5 -40 -2 -50 12 -22 30 -17 35 36 35 46 0 50 2 50 24 0 52 -69 76
-104 37z m72 -13 c21 -21 13 -28 -28 -28 -38 0 -40 2 -30 20 12 22 40 26 58 8z"/>
<path d="M12566 1871 c-32 -36 -20 -117 18 -127 33 -8 79 -1 83 13 3 9 -6 10
-33 6 -29 -5 -40 -2 -50 12 -22 30 -17 35 36 35 46 0 50 2 50 24 0 52 -69 76
-104 37z m72 -13 c21 -21 13 -28 -28 -28 -38 0 -40 2 -30 20 12 22 40 26 58 8z"/>
<path d="M12710 1815 c0 -60 3 -75 15 -75 11 0 15 12 15 48 0 53 9 72 35 76
11 2 21 8 23 14 5 16 -31 15 -46 0 -9 -9 -12 -9 -12 0 0 7 -7 12 -15 12 -12 0
-15 -15 -15 -75z"/>
<path d="M12832 1878 c-22 -22 -14 -55 17 -68 56 -23 43 -60 -15 -46 -19 5
-25 3 -22 -6 6 -17 66 -23 84 -7 24 20 16 48 -21 71 -41 24 -41 43 1 43 16 1
29 5 29 10 0 15 -58 18 -73 3z"/>
<path d="M15386 1871 c-32 -36 -20 -117 18 -127 33 -8 79 -1 83 13 3 9 -6 10
-33 6 -29 -5 -40 -2 -50 12 -22 30 -17 35 36 35 46 0 50 2 50 24 0 52 -69 76
-104 37z m72 -13 c21 -21 13 -28 -28 -28 -38 0 -40 2 -30 20 12 22 40 26 58 8z"/>
<path d="M15686 1871 c-32 -36 -20 -117 18 -127 33 -8 79 -1 83 13 3 9 -6 10
-33 6 -29 -5 -40 -2 -50 12 -22 30 -17 35 36 35 46 0 50 2 50 24 0 52 -69 76
-104 37z m72 -13 c21 -21 13 -28 -28 -28 -38 0 -40 2 -30 20 12 22 40 26 58 8z"/>
<path d="M15830 1815 c0 -60 3 -75 15 -75 11 0 15 12 15 48 0 53 9 72 35 76
11 2 21 8 23 14 5 16 -31 15 -46 0 -9 -9 -12 -9 -12 0 0 7 -7 12 -15 12 -12 0
-15 -15 -15 -75z"/>
<path d="M16042 1878 c-22 -22 -14 -55 17 -68 56 -23 43 -60 -15 -46 -19 5
-25 3 -22 -6 6 -17 66 -23 84 -7 24 20 16 48 -21 71 -41 24 -41 43 1 43 16 1
29 5 29 10 0 15 -58 18 -73 3z"/>
<path d="M16480 1843 c0 -27 3 -58 6 -71 8 -27 49 -40 76 -23 11 7 18 7 18 1
0 -5 5 -10 10 -10 6 0 10 32 10 75 0 43 -4 75 -10 75 -5 0 -10 -25 -10 -55 0
-45 -4 -56 -21 -65 -37 -20 -49 -6 -49 60 0 47 -3 60 -15 60 -11 0 -15 -12
-15 -47z"/>
<path d="M16662 1878 c-22 -22 -14 -55 17 -68 56 -23 43 -60 -15 -46 -19 5
-25 3 -22 -6 6 -17 66 -23 84 -7 24 20 16 48 -21 71 -41 24 -41 43 1 43 16 1
29 5 29 10 0 15 -58 18 -73 3z"/>
<path d="M16906 1871 c-32 -36 -20 -117 18 -127 33 -8 79 -1 83 13 3 9 -6 10
-33 6 -29 -5 -40 -2 -50 12 -22 30 -17 35 36 35 46 0 50 2 50 24 0 52 -69 76
-104 37z m72 -13 c21 -21 13 -28 -28 -28 -38 0 -40 2 -30 20 12 22 40 26 58 8z"/>
<path d="M17050 1815 c0 -60 3 -75 15 -75 11 0 15 12 15 48 0 53 9 72 35 76
11 2 21 8 23 14 5 16 -31 15 -46 0 -9 -9 -12 -9 -12 0 0 7 -7 12 -15 12 -12 0
-15 -15 -15 -75z"/>
<path d="M4540 1731 c0 -39 0 -40 -33 -34 -24 4 -37 0 -51 -15 -20 -23 -24
-79 -7 -111 13 -24 59 -29 79 -9 9 9 12 9 12 0 0 -7 5 -12 10 -12 6 0 10 43
10 110 0 67 -4 110 -10 110 -5 0 -10 -18 -10 -39z m-19 -61 c13 -8 19 -21 19
-46 0 -27 -5 -37 -26 -46 -22 -11 -28 -10 -40 7 -17 22 -18 49 -4 76 12 22 23
24 51 9z"/>
<path d="M6007 1763 c-4 -3 -7 -53 -7 -110 0 -85 3 -103 15 -103 12 0 15 19
15 110 0 101 -5 122 -23 103z"/>
<path d="M8307 1763 c-4 -3 -7 -21 -7 -39 0 -32 -1 -33 -34 -27 -27 4 -36 1
-50 -18 -35 -51 -9 -129 43 -129 15 0 32 5 39 12 9 9 12 9 12 0 0 -7 5 -12 10
-12 6 0 10 43 10 110 0 101 -5 122 -23 103z m-26 -93 c13 -7 19 -21 19 -44 0
-40 -24 -65 -48 -49 -21 12 -28 69 -11 89 14 17 15 17 40 4z"/>
<path d="M8960 1660 c0 -85 3 -111 13 -107 8 2 12 33 12 107 0 74 -4 105 -12
108 -10 3 -13 -23 -13 -108z"/>
<path d="M9580 1660 c0 -85 3 -111 13 -107 8 2 12 33 12 107 0 74 -4 105 -12
108 -10 3 -13 -23 -13 -108z"/>
<path d="M4183 1752 c-59 -9 -86 -120 -42 -176 16 -21 29 -26 63 -26 49 0 71
18 86 71 10 35 -2 103 -21 114 -18 12 -64 21 -86 17z m68 -39 c8 -9 14 -36 14
-60 0 -35 -5 -49 -24 -64 -30 -24 -53 -24 -75 0 -23 26 -24 96 -1 121 22 24
68 26 86 3z"/>
<path d="M7943 1748 c-56 -15 -81 -95 -48 -157 16 -32 33 -41 78 -41 55 1 87
40 87 108 0 71 -48 108 -117 90z m71 -40 c23 -32 20 -94 -4 -118 -42 -42 -100
-9 -100 58 0 50 23 82 60 82 18 0 34 -8 44 -22z"/>
<path d="M5560 1721 c0 -11 -6 -22 -12 -25 -10 -5 -10 -7 0 -12 7 -3 12 -25
12 -54 0 -27 3 -55 6 -64 7 -18 64 -23 64 -6 0 6 -9 10 -20 10 -18 0 -20 7
-20 55 0 48 2 55 20 55 11 0 20 5 20 10 0 6 -8 10 -19 10 -10 0 -21 9 -24 20
-7 26 -27 26 -27 1z"/>
<path d="M9133 1723 c-4 -10 -11 -22 -17 -26 -8 -6 -7 -10 2 -14 6 -2 12 -22
12 -43 0 -60 15 -90 45 -90 30 0 33 15 5 23 -17 4 -20 14 -20 56 0 44 3 51 20
51 11 0 20 5 20 10 0 6 -9 10 -20 10 -13 0 -20 7 -20 20 0 25 -18 26 -27 3z"/>
<path d="M4330 1625 c0 -60 3 -75 15 -75 11 0 15 12 15 48 0 53 9 72 35 76 11
2 21 8 23 14 5 16 -31 15 -46 0 -9 -9 -12 -9 -12 0 0 7 -7 12 -15 12 -12 0
-15 -15 -15 -75z"/>
<path d="M4626 1681 c-32 -36 -20 -117 18 -127 33 -8 79 -1 83 13 3 9 -6 10
-33 6 -29 -5 -40 -2 -50 12 -22 30 -17 35 36 35 46 0 50 2 50 24 0 52 -69 76
-104 37z m72 -13 c21 -21 13 -28 -28 -28 -38 0 -40 2 -30 20 12 22 40 26 58 8z"/>
<path d="M4770 1625 c0 -60 3 -75 15 -75 11 0 15 12 15 48 0 53 9 72 35 76 11
2 21 8 23 14 5 16 -31 15 -46 0 -9 -9 -12 -9 -12 0 0 7 -7 12 -15 12 -12 0
-15 -15 -15 -75z"/>
<path d="M5190 1625 c0 -60 3 -75 15 -75 12 0 15 13 15 55 0 45 4 56 21 66 29
15 37 3 41 -60 4 -76 28 -82 28 -7 0 47 3 57 22 67 30 16 48 -11 48 -73 0 -26
5 -48 10 -48 14 0 13 123 -2 138 -7 7 -21 12 -33 12 -12 0 -26 -5 -33 -12 -9
-9 -15 -9 -24 0 -7 7 -21 12 -33 12 -12 0 -26 -5 -33 -12 -9 -9 -12 -9 -12 0
0 7 -7 12 -15 12 -12 0 -15 -15 -15 -75z"/>
<path d="M5660 1653 c0 -27 3 -58 6 -71 8 -27 49 -40 76 -23 11 7 18 7 18 1 0
-5 5 -10 10 -10 6 0 10 32 10 75 0 43 -4 75 -10 75 -5 0 -10 -25 -10 -55 0
-45 -4 -56 -21 -65 -37 -20 -49 -6 -49 60 0 47 -3 60 -15 60 -11 0 -15 -12
-15 -47z"/>
<path d="M5832 1598 c2 -70 7 -103 16 -106 8 -2 12 8 12 32 0 34 1 35 30 29
44 -8 70 18 70 72 0 61 -52 99 -88 63 -9 -9 -12 -9 -12 0 0 7 -7 12 -15 12
-13 0 -15 -16 -13 -102z m87 73 c13 -9 18 -71 6 -90 -8 -15 -38 -14 -53 1 -18
18 -15 75 6 87 21 13 24 13 41 2z"/>
<path d="M6086 1681 c-32 -36 -20 -117 18 -127 33 -8 79 -1 83 13 3 9 -6 10
-33 6 -29 -5 -40 -2 -50 12 -22 30 -17 35 36 35 46 0 50 2 50 24 0 52 -69 76
-104 37z m72 -13 c21 -21 13 -28 -28 -28 -38 0 -40 2 -30 20 12 22 40 26 58 8z"/>
<path d="M8100 1624 c0 -56 3 -75 13 -72 7 3 13 26 15 54 4 53 17 78 39 70 7
-3 13 1 13 9 0 18 -31 20 -48 3 -9 -9 -12 -9 -12 0 0 7 -4 12 -10 12 -6 0 -10
-32 -10 -76z"/>
<path d="M8390 1680 c-24 -24 -26 -77 -4 -108 13 -19 24 -22 57 -20 22 2 42 8
44 14 2 7 -8 9 -27 6 -32 -5 -60 11 -60 34 0 10 14 14 50 14 41 0 50 3 50 18
0 55 -70 82 -110 42z m78 -22 c3 -15 -4 -18 -32 -18 -38 0 -44 8 -24 28 17 17
52 11 56 -10z"/>
<path d="M8540 1624 c0 -56 3 -75 13 -72 7 3 13 26 15 54 4 53 17 78 39 70 7
-3 13 1 13 9 0 18 -31 20 -48 3 -9 -9 -12 -9 -12 0 0 7 -4 12 -10 12 -6 0 -10
-32 -10 -76z"/>
<path d="M9242 1634 c4 -79 18 -96 68 -77 16 6 30 7 30 2 0 -5 5 -9 10 -9 6 0
10 32 10 75 0 59 -3 75 -15 75 -10 0 -15 -15 -17 -56 -2 -41 -8 -60 -20 -68
-26 -16 -41 5 -46 69 -6 78 -24 69 -20 -11z"/>
<path d="M9410 1594 c0 -80 3 -105 13 -102 6 3 13 18 15 34 3 27 6 30 36 26
38 -4 55 11 63 62 10 65 -35 104 -88 76 -13 -7 -19 -7 -19 0 0 5 -4 10 -10 10
-6 0 -10 -42 -10 -106z m89 72 c17 -20 10 -77 -11 -89 -24 -16 -48 8 -48 47 0
49 34 73 59 42z"/>
<path d="M9660 1680 c-24 -24 -26 -77 -4 -108 13 -19 24 -22 57 -20 22 2 42 8
44 14 2 7 -8 9 -27 6 -32 -5 -60 11 -60 34 0 10 14 14 50 14 41 0 50 3 50 18
0 55 -70 82 -110 42z m78 -22 c3 -15 -4 -18 -32 -18 -38 0 -44 8 -24 28 17 17
52 11 56 -10z"/>
<path d="M4960 1670 c0 -6 27 -10 60 -10 33 0 60 4 60 10 0 6 -27 10 -60 10
-33 0 -60 -4 -60 -10z"/>
<path d="M8720 1670 c0 -6 28 -10 65 -10 37 0 65 4 65 10 0 6 -28 10 -65 10
-37 0 -65 -4 -65 -10z"/>
<path d="M5440 1630 c0 -5 18 -10 40 -10 22 0 40 5 40 10 0 6 -18 10 -40 10
-22 0 -40 -4 -40 -10z"/>
<path d="M9020 1630 c0 -5 16 -10 35 -10 19 0 35 5 35 10 0 6 -16 10 -35 10
-19 0 -35 -4 -35 -10z"/>
<path d="M4960 1610 c0 -6 27 -10 60 -10 33 0 60 4 60 10 0 6 -27 10 -60 10
-33 0 -60 -4 -60 -10z"/>
<path d="M8720 1610 c0 -6 28 -10 65 -10 37 0 65 4 65 10 0 6 -28 10 -65 10
-37 0 -65 -4 -65 -10z"/>
<path d="M907 1573 c-4 -3 -7 -21 -7 -39 0 -32 -1 -33 -34 -27 -27 4 -36 1
-50 -18 -35 -51 -9 -129 43 -129 15 0 32 5 39 12 9 9 12 9 12 0 0 -7 5 -12 10
-12 6 0 10 43 10 110 0 101 -5 122 -23 103z m-26 -93 c13 -7 19 -21 19 -44 0
-40 -24 -65 -48 -49 -21 12 -28 69 -11 89 14 17 15 17 40 4z"/>
<path d="M2280 1470 c0 -85 3 -111 13 -107 8 2 12 33 12 107 0 74 -4 105 -12
108 -10 3 -13 -23 -13 -108z"/>
<path d="M13267 1573 c-4 -3 -7 -53 -7 -110 0 -85 3 -103 15 -103 12 0 15 19
15 110 0 101 -5 122 -23 103z"/>
<path d="M13337 1573 c-4 -3 -7 -53 -7 -110 0 -85 3 -103 15 -103 12 0 15 19
15 110 0 101 -5 122 -23 103z"/>
<path d="M15445 1528 c-8 -28 -15 -66 -15 -83 0 -47 29 -135 44 -135 12 0 12
7 0 47 -8 25 -14 65 -14 88 0 23 6 63 14 88 12 40 12 47 0 47 -7 0 -20 -22
-29 -52z"/>
<path d="M16887 1573 c-4 -3 -7 -53 -7 -110 0 -85 3 -103 15 -103 12 0 15 19
15 110 0 101 -5 122 -23 103z"/>
<path d="M543 1558 c-56 -15 -81 -95 -48 -157 16 -32 33 -41 78 -41 55 1 87
40 87 108 0 71 -48 108 -117 90z m71 -40 c23 -32 20 -94 -4 -118 -42 -42 -100
-9 -100 58 0 50 23 82 60 82 18 0 34 -8 44 -22z"/>
<path d="M12417 1563 c-12 -11 -8 -23 8 -23 8 0 15 7 15 15 0 16 -12 20 -23 8z"/>
<path d="M12657 1563 c-12 -11 -8 -23 8 -23 8 0 15 7 15 15 0 16 -12 20 -23 8z"/>
<path d="M16527 1563 c-12 -11 -8 -23 8 -23 8 0 15 7 15 15 0 16 -12 20 -23 8z"/>
<path d="M11661 1534 c-15 -19 -21 -41 -21 -74 0 -63 28 -100 75 -100 43 0 65
9 65 25 0 10 -6 11 -29 2 -23 -9 -34 -7 -55 6 -22 15 -26 25 -26 66 0 69 38
99 92 70 17 -9 19 -8 16 8 -2 14 -14 19 -49 21 -41 3 -50 -1 -68 -24z"/>
<path d="M1833 1533 c-4 -10 -11 -22 -17 -26 -8 -6 -7 -10 2 -14 6 -2 12 -22
12 -43 0 -60 15 -90 45 -90 30 0 33 15 5 23 -17 4 -20 14 -20 56 0 44 3 51 20
51 11 0 20 5 20 10 0 6 -9 10 -20 10 -13 0 -20 7 -20 20 0 25 -18 26 -27 3z"/>
<path d="M12160 1531 c0 -11 -6 -22 -12 -25 -10 -5 -10 -7 0 -12 7 -3 12 -25
12 -54 0 -27 3 -55 6 -64 7 -18 64 -23 64 -6 0 6 -9 10 -20 10 -18 0 -20 7
-20 55 0 48 2 55 20 55 11 0 20 5 20 10 0 6 -8 10 -19 10 -10 0 -21 9 -24 20
-7 26 -27 26 -27 1z"/>
<path d="M15830 1531 c0 -11 -6 -22 -12 -25 -10 -5 -10 -7 0 -12 7 -3 12 -25
12 -54 0 -27 3 -55 6 -64 7 -18 64 -23 64 -6 0 6 -9 10 -20 10 -18 0 -20 7
-20 55 0 48 2 55 20 55 11 0 20 5 20 10 0 6 -8 10 -19 10 -10 0 -21 9 -24 20
-7 26 -27 26 -27 1z"/>
<path d="M700 1434 c0 -56 3 -75 13 -72 7 3 13 26 15 54 4 53 17 78 39 70 7
-3 13 1 13 9 0 18 -31 20 -48 3 -9 -9 -12 -9 -12 0 0 7 -4 12 -10 12 -6 0 -10
-32 -10 -76z"/>
<path d="M990 1490 c-24 -24 -26 -77 -4 -108 13 -19 24 -22 57 -20 22 2 42 8
44 14 2 7 -8 9 -27 6 -32 -5 -60 11 -60 34 0 10 14 14 50 14 41 0 50 3 50 18
0 55 -70 82 -110 42z m78 -22 c3 -15 -4 -18 -32 -18 -38 0 -44 8 -24 28 17 17
52 11 56 -10z"/>
<path d="M1140 1434 c0 -56 3 -75 13 -72 7 3 13 26 15 54 4 53 17 78 39 70 7
-3 13 1 13 9 0 18 -31 20 -48 3 -9 -9 -12 -9 -12 0 0 7 -4 12 -10 12 -6 0 -10
-32 -10 -76z"/>
<path d="M1560 1434 c0 -56 3 -75 13 -72 7 3 13 26 15 55 3 54 21 79 47 69 11
-4 15 -21 15 -66 0 -47 3 -60 15 -60 12 0 15 13 15 56 0 86 -26 113 -81 84
-13 -7 -19 -7 -19 0 0 5 -4 10 -10 10 -6 0 -10 -32 -10 -76z"/>
<path d="M1942 1444 c4 -79 18 -96 68 -77 16 6 30 7 30 2 0 -5 5 -9 10 -9 6 0
10 32 10 75 0 59 -3 75 -15 75 -10 0 -15 -15 -17 -56 -2 -41 -8 -60 -20 -68
-26 -16 -41 5 -46 69 -6 78 -24 69 -20 -11z"/>
<path d="M2110 1404 c0 -80 3 -105 13 -102 6 3 13 18 15 34 3 27 6 30 36 26
38 -4 55 11 63 62 10 65 -35 104 -88 76 -13 -7 -19 -7 -19 0 0 5 -4 10 -10 10
-6 0 -10 -42 -10 -106z m89 72 c17 -20 10 -77 -11 -89 -24 -16 -48 8 -48 47 0
49 34 73 59 42z"/>
<path d="M2360 1490 c-24 -24 -26 -77 -4 -108 13 -19 24 -22 57 -20 22 2 42 8
44 14 2 7 -8 9 -27 6 -32 -5 -60 11 -60 34 0 10 14 14 50 14 41 0 50 3 50 18
0 55 -70 82 -110 42z m78 -22 c3 -15 -4 -18 -32 -18 -38 0 -44 8 -24 28 17 17
52 11 56 -10z"/>
<path d="M11828 1493 c-31 -36 -28 -104 5 -125 22 -14 74 -8 90 10 23 26 22
94 -1 115 -24 22 -75 22 -94 0z m68 -11 c36 -24 21 -102 -20 -102 -42 0 -62
63 -30 94 17 17 33 20 50 8z"/>
<path d="M11980 1435 c0 -60 3 -75 15 -75 12 0 15 13 15 55 0 45 4 56 21 65
33 18 49 -4 49 -66 0 -43 3 -54 16 -54 14 0 16 9 11 60 -3 34 -11 67 -17 75
-15 18 -52 19 -68 3 -9 -9 -12 -9 -12 0 0 7 -7 12 -15 12 -12 0 -15 -15 -15
-75z"/>
<path d="M12273 1503 c-26 -10 -12 -22 24 -20 28 1 38 -2 41 -14 2 -12 -7 -18
-33 -23 -40 -8 -59 -38 -43 -68 7 -14 20 -17 58 -16 l50 2 0 61 c0 34 -5 66
-12 73 -12 12 -62 15 -85 5z m65 -95 c-3 -25 -34 -36 -51 -19 -14 14 9 41 35
41 14 0 19 -6 16 -22z"/>
<path d="M12410 1435 c0 -60 3 -75 15 -75 12 0 15 15 15 75 0 60 -3 75 -15 75
-12 0 -15 -15 -15 -75z"/>
<path d="M12480 1435 c0 -60 3 -75 15 -75 12 0 15 13 15 55 0 45 4 56 21 65
33 18 49 -4 49 -66 0 -43 3 -54 16 -54 14 0 16 9 11 60 -3 34 -11 67 -17 75
-15 18 -52 19 -68 3 -9 -9 -12 -9 -12 0 0 7 -7 12 -15 12 -12 0 -15 -15 -15
-75z"/>
<path d="M12650 1435 c0 -60 3 -75 15 -75 12 0 15 15 15 75 0 60 -3 75 -15 75
-12 0 -15 -15 -15 -75z"/>
<path d="M12720 1435 c0 -60 3 -75 15 -75 12 0 15 13 15 55 0 45 4 56 21 65
33 18 49 -4 49 -66 0 -43 3 -54 16 -54 14 0 16 9 11 60 -3 34 -11 67 -17 75
-15 18 -52 19 -68 3 -9 -9 -12 -9 -12 0 0 7 -7 12 -15 12 -12 0 -15 -15 -15
-75z"/>
<path d="M12903 1498 c-14 -17 -23 -107 -12 -114 5 -3 3 -13 -3 -23 -6 -10 -9
-25 -5 -34 8 -22 61 -31 94 -15 56 27 33 78 -34 78 -21 0 -33 5 -33 13 0 9 9
12 29 9 23 -3 33 1 45 21 9 13 14 32 10 41 -3 9 -1 16 5 16 6 0 11 5 11 10 0
15 -96 12 -107 -2z m65 -36 c4 -28 -24 -41 -44 -20 -20 20 -7 50 20 46 13 -2
22 -12 24 -26z m10 -114 c4 -21 -31 -32 -58 -18 -17 9 -19 14 -9 26 16 19 63
14 67 -8z"/>
<path d="M13123 1503 c-26 -10 -12 -22 24 -20 28 1 38 -2 41 -14 2 -12 -7 -18
-33 -23 -40 -8 -59 -38 -43 -68 7 -14 20 -17 58 -16 l50 2 0 61 c0 34 -5 66
-12 73 -12 12 -62 15 -85 5z m65 -95 c-3 -25 -34 -36 -51 -19 -14 14 9 41 35
41 14 0 19 -6 16 -22z"/>
<path d="M15548 1493 c-31 -36 -28 -104 5 -125 21 -13 64 -9 78 8 11 14 9 15
-24 9 -33 -6 -38 -4 -49 19 -8 19 -9 35 -2 54 8 22 16 27 42 25 42 -1 38 21
-4 25 -19 2 -36 -3 -46 -15z"/>
<path d="M15683 1503 c-26 -10 -12 -22 24 -20 28 1 38 -2 41 -14 2 -12 -7 -18
-33 -23 -40 -8 -59 -38 -43 -68 7 -14 20 -17 58 -16 l50 2 0 61 c0 34 -5 66
-12 73 -12 12 -62 15 -85 5z m65 -95 c-3 -25 -34 -36 -51 -19 -14 14 9 41 35
41 14 0 19 -6 16 -22z"/>
<path d="M15946 1491 c-32 -36 -20 -117 18 -127 33 -8 79 -1 83 13 3 9 -6 10
-33 6 -29 -5 -40 -2 -50 12 -22 30 -17 35 36 35 46 0 50 2 50 24 0 52 -69 76
-104 37z m72 -13 c21 -21 13 -28 -28 -28 -38 0 -40 2 -30 20 12 22 40 26 58 8z"/>
<path d="M16103 1498 c-14 -17 -23 -107 -12 -114 5 -3 3 -13 -3 -23 -6 -10 -9
-25 -5 -34 8 -22 61 -31 94 -15 56 27 33 78 -34 78 -21 0 -33 5 -33 13 0 9 9
12 29 9 23 -3 33 1 45 21 9 13 14 32 10 41 -3 9 -1 16 5 16 6 0 11 5 11 10 0
15 -96 12 -107 -2z m65 -36 c4 -28 -24 -41 -44 -20 -20 20 -7 50 20 46 13 -2
22 -12 24 -26z m10 -114 c4 -21 -31 -32 -58 -18 -17 9 -19 14 -9 26 16 19 63
14 67 -8z"/>
<path d="M16258 1493 c-31 -36 -28 -104 5 -125 22 -14 74 -8 90 10 23 26 22
94 -1 115 -24 22 -75 22 -94 0z m68 -11 c36 -24 21 -102 -20 -102 -42 0 -62
63 -30 94 17 17 33 20 50 8z"/>
<path d="M16410 1435 c0 -60 3 -75 15 -75 11 0 15 12 15 48 0 53 9 72 35 76
11 2 21 8 23 14 5 16 -31 15 -46 0 -9 -9 -12 -9 -12 0 0 7 -7 12 -15 12 -12 0
-15 -15 -15 -75z"/>
<path d="M16520 1435 c0 -60 3 -75 15 -75 12 0 15 15 15 75 0 60 -3 75 -15 75
-12 0 -15 -15 -15 -75z"/>
<path d="M16608 1493 c-31 -36 -28 -104 5 -125 21 -13 64 -9 78 8 11 14 9 15
-24 9 -33 -6 -38 -4 -49 19 -8 19 -9 35 -2 54 8 22 16 27 42 25 42 -1 38 21
-4 25 -19 2 -36 -3 -46 -15z"/>
<path d="M16743 1503 c-26 -10 -12 -22 24 -20 28 1 38 -2 41 -14 2 -12 -7 -18
-33 -23 -40 -8 -59 -38 -43 -68 7 -14 20 -17 58 -16 l50 2 0 61 c0 34 -5 66
-12 73 -12 12 -62 15 -85 5z m65 -95 c-3 -25 -34 -36 -51 -19 -14 14 9 41 35
41 14 0 19 -6 16 -22z"/>
<path d="M1320 1480 c0 -6 28 -10 65 -10 37 0 65 4 65 10 0 6 -28 10 -65 10
-37 0 -65 -4 -65 -10z"/>
<path d="M1720 1440 c0 -5 16 -10 35 -10 19 0 35 5 35 10 0 6 -16 10 -35 10
-19 0 -35 -4 -35 -10z"/>
<path d="M1320 1420 c0 -6 28 -10 65 -10 37 0 65 4 65 10 0 6 -28 10 -65 10
-37 0 -65 -4 -65 -10z"/>
<path d="M5907 1383 c-4 -3 -7 -53 -7 -110 0 -85 3 -103 15 -103 12 0 15 19
15 110 0 101 -5 122 -23 103z"/>
<path d="M5977 1383 c-4 -3 -7 -53 -7 -110 0 -85 3 -103 15 -103 12 0 15 19
15 110 0 101 -5 122 -23 103z"/>
<path d="M9580 1280 c0 -85 3 -111 13 -107 8 2 12 33 12 107 0 74 -4 105 -12
108 -10 3 -13 -23 -13 -108z"/>
<path d="M9650 1280 c0 -85 3 -111 13 -107 8 2 12 33 12 107 0 74 -4 105 -12
108 -10 3 -13 -23 -13 -108z"/>
<path d="M5057 1373 c-12 -11 -8 -23 8 -23 8 0 15 7 15 15 0 16 -12 20 -23 8z"/>
<path d="M5297 1373 c-12 -11 -8 -23 8 -23 8 0 15 7 15 15 0 16 -12 20 -23 8z"/>
<path d="M8730 1366 c0 -9 7 -16 16 -16 9 0 14 5 12 12 -6 18 -28 21 -28 4z"/>
<path d="M8970 1366 c0 -9 7 -16 16 -16 17 0 14 22 -4 28 -7 2 -12 -3 -12 -12z"/>
<path d="M4800 1341 c0 -11 -6 -22 -12 -25 -10 -5 -10 -7 0 -12 7 -3 12 -25
12 -54 0 -27 3 -55 6 -64 7 -18 64 -23 64 -6 0 6 -9 10 -20 10 -18 0 -20 7
-20 55 0 48 2 55 20 55 11 0 20 5 20 10 0 6 -8 10 -19 10 -10 0 -21 9 -24 20
-7 26 -27 26 -27 1z"/>
<path d="M8473 1343 c-4 -10 -11 -22 -17 -26 -8 -6 -7 -10 2 -14 6 -2 12 -22
12 -43 0 -60 15 -90 45 -90 30 0 33 15 5 23 -17 4 -20 14 -20 56 0 44 3 51 20
51 11 0 20 5 20 10 0 6 -9 10 -20 10 -13 0 -20 7 -20 20 0 25 -18 26 -27 3z"/>
<path d="M4328 1303 c-31 -36 -28 -104 5 -125 21 -13 64 -9 78 8 11 14 9 15
-24 9 -33 -6 -38 -4 -49 19 -8 19 -9 35 -2 54 8 22 16 27 42 25 42 -1 38 21
-4 25 -19 2 -36 -3 -46 -15z"/>
<path d="M4468 1303 c-31 -36 -28 -104 5 -125 22 -14 74 -8 90 10 23 26 22 94
-1 115 -24 22 -75 22 -94 0z m68 -11 c36 -24 21 -102 -20 -102 -42 0 -62 63
-30 94 17 17 33 20 50 8z"/>
<path d="M4620 1245 c0 -60 3 -75 15 -75 12 0 15 13 15 55 0 45 4 56 21 65 33
18 49 -4 49 -66 0 -43 3 -54 16 -54 14 0 16 9 11 60 -3 34 -11 67 -17 75 -15
18 -52 19 -68 3 -9 -9 -12 -9 -12 0 0 7 -7 12 -15 12 -12 0 -15 -15 -15 -75z"/>
<path d="M4913 1313 c-26 -10 -12 -22 24 -20 28 1 38 -2 41 -14 2 -12 -7 -18
-33 -23 -40 -8 -59 -38 -43 -68 7 -14 20 -17 58 -16 l50 2 0 61 c0 34 -5 66
-12 73 -12 12 -62 15 -85 5z m65 -95 c-3 -25 -34 -36 -51 -19 -14 14 9 41 35
41 14 0 19 -6 16 -22z"/>
<path d="M5050 1245 c0 -60 3 -75 15 -75 12 0 15 15 15 75 0 60 -3 75 -15 75
-12 0 -15 -15 -15 -75z"/>
<path d="M5120 1245 c0 -60 3 -75 15 -75 12 0 15 13 15 55 0 45 4 56 21 65 33
18 49 -4 49 -66 0 -43 3 -54 16 -54 14 0 16 9 11 60 -3 34 -11 67 -17 75 -15
18 -52 19 -68 3 -9 -9 -12 -9 -12 0 0 7 -7 12 -15 12 -12 0 -15 -15 -15 -75z"/>
<path d="M5290 1245 c0 -60 3 -75 15 -75 12 0 15 15 15 75 0 60 -3 75 -15 75
-12 0 -15 -15 -15 -75z"/>
<path d="M5360 1245 c0 -60 3 -75 15 -75 12 0 15 13 15 55 0 45 4 56 21 65 33
18 49 -4 49 -66 0 -43 3 -54 16 -54 14 0 16 9 11 60 -3 34 -11 67 -17 75 -15
18 -52 19 -68 3 -9 -9 -12 -9 -12 0 0 7 -7 12 -15 12 -12 0 -15 -15 -15 -75z"/>
<path d="M5543 1308 c-14 -17 -23 -107 -12 -114 5 -3 3 -13 -3 -23 -6 -10 -9
-25 -5 -34 8 -22 61 -31 94 -15 56 27 33 78 -34 78 -21 0 -33 5 -33 13 0 9 9
12 29 9 23 -3 33 1 45 21 9 13 14 32 10 41 -3 9 -1 16 5 16 6 0 11 5 11 10 0
15 -96 12 -107 -2z m65 -36 c4 -28 -24 -41 -44 -20 -20 20 -7 50 20 46 13 -2
22 -12 24 -26z m10 -114 c4 -21 -31 -32 -58 -18 -17 9 -19 14 -9 26 16 19 63
14 67 -8z"/>
<path d="M5763 1313 c-26 -10 -12 -22 24 -20 28 1 38 -2 41 -14 2 -12 -7 -18
-33 -23 -40 -8 -59 -38 -43 -68 7 -14 20 -17 58 -16 l50 2 0 61 c0 34 -5 66
-12 73 -12 12 -62 15 -85 5z m65 -95 c-3 -25 -34 -36 -51 -19 -14 14 9 41 35
41 14 0 19 -6 16 -22z"/>
<path d="M8000 1300 c-24 -24 -26 -77 -4 -108 12 -18 24 -22 52 -20 26 2 38 8
40 21 3 15 0 16 -22 6 -34 -16 -56 2 -56 46 0 43 22 62 55 47 20 -9 25 -9 25
2 0 31 -61 35 -90 6z"/>
<path d="M8140 1300 c-24 -24 -26 -77 -4 -108 20 -29 76 -30 104 -2 45 45 13
130 -50 130 -17 0 -39 -9 -50 -20z m79 -14 c17 -20 10 -77 -11 -90 -26 -16
-52 4 -56 43 -4 36 12 61 38 61 10 0 23 -6 29 -14z"/>
<path d="M8300 1244 c0 -56 3 -75 13 -72 7 3 13 26 15 55 3 54 21 79 47 69 11
-4 15 -21 15 -66 0 -47 3 -60 15 -60 12 0 15 13 15 56 0 86 -26 113 -81 84
-13 -7 -19 -7 -19 0 0 5 -4 10 -10 10 -6 0 -10 -32 -10 -76z"/>
<path d="M8587 1313 c-15 -14 -5 -20 30 -19 53 1 57 -27 7 -40 -80 -20 -71
-79 12 -79 l49 0 0 56 c0 32 -6 63 -14 73 -13 16 -71 22 -84 9z m73 -86 c0
-19 -21 -37 -42 -37 -21 0 -25 35 -5 43 23 10 47 7 47 -6z"/>
<path d="M8730 1245 c0 -57 3 -76 13 -72 8 2 12 26 12 72 0 46 -4 70 -12 73
-10 3 -13 -16 -13 -73z"/>
<path d="M8800 1244 c0 -56 3 -75 13 -72 7 3 13 26 15 55 3 54 21 79 47 69 11
-4 15 -21 15 -66 0 -47 3 -60 15 -60 12 0 15 13 15 56 0 86 -26 113 -81 84
-13 -7 -19 -7 -19 0 0 5 -4 10 -10 10 -6 0 -10 -32 -10 -76z"/>
<path d="M8970 1245 c0 -57 3 -76 13 -72 8 2 12 26 12 72 0 46 -4 70 -12 73
-10 3 -13 -16 -13 -73z"/>
<path d="M9040 1244 c0 -56 3 -75 13 -72 7 3 13 26 15 55 3 54 21 79 47 69 11
-4 15 -21 15 -66 0 -47 3 -60 15 -60 12 0 15 13 15 56 0 86 -26 113 -81 84
-13 -7 -19 -7 -19 0 0 5 -4 10 -10 10 -6 0 -10 -32 -10 -76z"/>
<path d="M9220 1310 c-10 -6 -15 -28 -16 -72 -1 -35 -5 -70 -9 -79 -7 -19 28
-49 57 -49 38 0 68 23 68 51 0 29 -15 39 -60 39 -16 0 -32 5 -35 10 -4 6 6 10
24 10 36 0 61 23 61 56 0 13 5 24 11 24 5 0 7 5 4 10 -8 13 -85 13 -105 0z
m55 -40 c0 -16 -6 -26 -18 -28 -19 -4 -32 20 -23 44 9 25 41 13 41 -16z m15
-100 c13 -9 12 -12 -4 -25 -11 -8 -25 -15 -30 -15 -22 0 -39 18 -33 34 7 18
44 21 67 6z"/>
<path d="M9437 1313 c-15 -14 -5 -20 30 -19 53 1 57 -27 7 -40 -80 -20 -71
-79 12 -79 l49 0 0 56 c0 32 -6 63 -14 73 -13 16 -71 22 -84 9z m73 -86 c0
-19 -21 -37 -42 -37 -21 0 -25 35 -5 43 23 10 47 7 47 -6z"/>
<path d="M2230 1090 c0 -85 3 -111 13 -107 17 5 17 209 0 215 -10 3 -13 -23
-13 -108z"/>
<path d="M2300 1090 c0 -85 3 -111 13 -107 17 5 17 209 0 215 -10 3 -13 -23
-13 -108z"/>
<path d="M1380 1176 c0 -9 7 -16 16 -16 17 0 14 22 -4 28 -7 2 -12 -3 -12 -12z"/>
<path d="M1620 1176 c0 -9 7 -16 16 -16 9 0 14 5 12 12 -6 18 -28 21 -28 4z"/>
<path d="M11577 1183 c-4 -3 -7 -53 -7 -110 0 -85 3 -103 15 -103 11 0 15 11
15 38 l0 37 33 -39 c44 -52 69 -44 27 8 l-31 39 26 27 c27 29 31 40 13 40 -6
0 -24 -15 -39 -32 l-28 -33 -1 68 c0 62 -6 78 -23 60z"/>
<path d="M12060 1151 c0 -39 0 -40 -33 -34 -24 4 -37 0 -51 -15 -20 -23 -24
-79 -7 -111 13 -24 59 -29 79 -9 9 9 12 9 12 0 0 -7 5 -12 10 -12 6 0 10 43
10 110 0 67 -4 110 -10 110 -5 0 -10 -18 -10 -39z m-19 -61 c13 -8 19 -21 19
-46 0 -27 -5 -37 -26 -46 -22 -11 -28 -10 -40 7 -17 22 -18 49 -4 76 12 22 23
24 51 9z"/>
<path d="M12516 1174 c-9 -8 -16 -24 -16 -34 0 -10 -6 -21 -12 -24 -10 -5 -10
-7 0 -12 8 -4 12 -28 12 -70 0 -50 3 -64 15 -64 12 0 15 14 15 65 0 51 3 65
15 65 8 0 15 5 15 10 0 6 -7 10 -16 10 -10 0 -14 7 -12 23 2 14 9 21 21 21 9
-1 17 4 17 12 0 19 -35 18 -54 -2z"/>
<path d="M12957 1183 c-4 -3 -7 -53 -7 -110 0 -85 3 -103 15 -103 12 0 15 19
15 110 0 101 -5 122 -23 103z"/>
<path d="M16097 1183 c-4 -3 -7 -53 -7 -110 0 -85 3 -103 15 -103 12 0 15 19
15 110 0 101 -5 122 -23 103z"/>
<path d="M16495 1173 c22 -57 27 -130 12 -188 -8 -33 -13 -62 -10 -65 10 -10
32 34 43 85 11 53 2 124 -21 166 -12 24 -34 25 -24 2z"/>
<path d="M11727 1173 c-12 -11 -8 -23 8 -23 8 0 15 7 15 15 0 16 -12 20 -23 8z"/>
<path d="M1123 1153 c-4 -10 -11 -22 -17 -26 -8 -6 -7 -10 2 -14 6 -2 12 -22
12 -43 0 -60 15 -90 45 -90 30 0 33 15 5 23 -17 4 -20 14 -20 56 0 44 3 51 20
51 11 0 20 5 20 10 0 6 -9 10 -20 10 -13 0 -20 7 -20 20 0 25 -18 26 -27 3z"/>
<path d="M650 1110 c-24 -24 -26 -77 -4 -108 12 -18 24 -22 52 -20 26 2 38 8
40 21 3 15 0 16 -22 6 -34 -16 -56 2 -56 46 0 43 22 62 55 47 20 -9 25 -9 25
2 0 31 -61 35 -90 6z"/>
<path d="M790 1110 c-24 -24 -26 -77 -4 -108 20 -29 76 -30 104 -2 45 45 13
130 -50 130 -17 0 -39 -9 -50 -20z m79 -14 c17 -20 10 -77 -11 -90 -26 -16
-52 4 -56 43 -4 36 12 61 38 61 10 0 23 -6 29 -14z"/>
<path d="M950 1054 c0 -56 3 -75 13 -72 7 3 13 26 15 55 3 54 21 79 47 69 11
-4 15 -21 15 -66 0 -47 3 -60 15 -60 12 0 15 13 15 56 0 86 -26 113 -81 84
-13 -7 -19 -7 -19 0 0 5 -4 10 -10 10 -6 0 -10 -32 -10 -76z"/>
<path d="M1237 1123 c-15 -14 -5 -20 30 -19 53 1 57 -27 7 -40 -80 -20 -71
-79 12 -79 l49 0 0 56 c0 32 -6 63 -14 73 -13 16 -71 22 -84 9z m73 -86 c0
-19 -21 -37 -42 -37 -21 0 -25 35 -5 43 23 10 47 7 47 -6z"/>
<path d="M1380 1055 c0 -57 3 -76 13 -72 8 2 12 26 12 72 0 46 -4 70 -12 73
-10 3 -13 -16 -13 -73z"/>
<path d="M1450 1054 c0 -56 3 -75 13 -72 7 3 13 26 15 55 3 54 21 79 47 69 11
-4 15 -21 15 -66 0 -47 3 -60 15 -60 12 0 15 13 15 56 0 86 -26 113 -81 84
-13 -7 -19 -7 -19 0 0 5 -4 10 -10 10 -6 0 -10 -32 -10 -76z"/>
<path d="M1620 1055 c0 -57 3 -76 13 -72 8 2 12 26 12 72 0 46 -4 70 -12 73
-10 3 -13 -16 -13 -73z"/>
<path d="M1690 1054 c0 -56 3 -75 13 -72 7 3 13 26 15 55 3 54 21 79 47 69 11
-4 15 -21 15 -66 0 -47 3 -60 15 -60 12 0 15 13 15 56 0 86 -26 113 -81 84
-13 -7 -19 -7 -19 0 0 5 -4 10 -10 10 -6 0 -10 -32 -10 -76z"/>
<path d="M1870 1120 c-10 -6 -15 -28 -16 -72 -1 -35 -5 -70 -9 -79 -7 -19 28
-49 57 -49 38 0 68 23 68 51 0 29 -15 39 -60 39 -16 0 -32 5 -35 10 -4 6 6 10
24 10 36 0 61 23 61 56 0 13 5 24 11 24 5 0 7 5 4 10 -8 13 -85 13 -105 0z
m55 -40 c0 -16 -6 -26 -18 -28 -19 -4 -32 20 -23 44 9 25 41 13 41 -16z m15
-100 c13 -9 12 -12 -4 -25 -11 -8 -25 -15 -30 -15 -22 0 -39 18 -33 34 7 18
44 21 67 6z"/>
<path d="M2087 1123 c-15 -14 -5 -20 30 -19 53 1 57 -27 7 -40 -80 -20 -71
-79 12 -79 l49 0 0 56 c0 32 -6 63 -14 73 -13 16 -71 22 -84 9z m73 -86 c0
-19 -21 -37 -42 -37 -21 0 -25 35 -5 43 23 10 47 7 47 -6z"/>
<path d="M11720 1045 c0 -60 3 -75 15 -75 12 0 15 15 15 75 0 60 -3 75 -15 75
-12 0 -15 -15 -15 -75z"/>
<path d="M11790 1045 c0 -60 3 -75 15 -75 12 0 15 13 15 55 0 45 4 56 21 65
33 18 49 -4 49 -66 0 -43 3 -54 16 -54 14 0 16 9 11 60 -3 34 -11 67 -17 75
-15 18 -52 19 -68 3 -9 -9 -12 -9 -12 0 0 7 -7 12 -15 12 -12 0 -15 -15 -15
-75z"/>
<path d="M12142 1108 c-22 -22 -14 -55 17 -68 56 -23 43 -60 -15 -46 -19 5
-25 3 -22 -6 6 -17 66 -23 84 -7 24 20 16 48 -21 71 -41 24 -41 43 1 43 16 1
29 5 29 10 0 15 -58 18 -73 3z"/>
<path d="M12338 1103 c-31 -36 -28 -104 5 -125 22 -14 74 -8 90 10 23 26 22
94 -1 115 -24 22 -75 22 -94 0z m68 -11 c36 -24 21 -102 -20 -102 -42 0 -62
63 -30 94 17 17 33 20 50 8z"/>
<path d="M12650 1110 c0 -6 10 -40 22 -76 31 -86 48 -85 82 7 30 82 30 79 13
79 -7 0 -21 -25 -31 -56 -10 -31 -21 -53 -24 -49 -4 3 -14 27 -23 53 -14 42
-39 69 -39 42z"/>
<path d="M12813 1113 c-26 -10 -12 -22 24 -20 28 1 38 -2 41 -14 2 -12 -7 -18
-33 -23 -40 -8 -59 -38 -43 -68 7 -14 20 -17 58 -16 l50 2 0 61 c0 34 -5 66
-12 73 -12 12 -62 15 -85 5z m65 -95 c-3 -25 -34 -36 -51 -19 -14 14 9 41 35
41 14 0 19 -6 16 -22z"/>
<path d="M13020 1073 c0 -27 3 -58 6 -71 8 -27 49 -40 76 -23 11 7 18 7 18 1
0 -5 5 -10 10 -10 6 0 10 32 10 75 0 43 -4 75 -10 75 -5 0 -10 -25 -10 -55 0
-45 -4 -56 -21 -65 -37 -20 -49 -6 -49 60 0 47 -3 60 -15 60 -11 0 -15 -12
-15 -47z"/>
<path d="M13206 1101 c-32 -36 -20 -117 18 -127 33 -8 79 -1 83 13 3 9 -6 10
-33 6 -29 -5 -40 -2 -50 12 -22 30 -17 35 36 35 46 0 50 2 50 24 0 52 -69 76
-104 37z m72 -13 c21 -21 13 -28 -28 -28 -38 0 -40 2 -30 20 12 22 40 26 58 8z"/>
<path d="M13362 1108 c-22 -22 -14 -55 17 -68 56 -23 43 -60 -15 -46 -19 5
-25 3 -22 -6 6 -17 66 -23 84 -7 24 20 16 48 -21 71 -41 24 -41 43 1 43 16 1
29 5 29 10 0 15 -58 18 -73 3z"/>
<path d="M15790 1110 c0 -6 10 -40 22 -76 31 -86 48 -85 82 7 30 82 30 79 13
79 -7 0 -21 -25 -31 -56 -10 -31 -21 -53 -24 -49 -4 3 -14 27 -23 53 -14 42
-39 69 -39 42z"/>
<path d="M15953 1113 c-26 -10 -12 -22 24 -20 28 1 38 -2 41 -14 2 -12 -7 -18
-33 -23 -40 -8 -59 -38 -43 -68 7 -14 20 -17 58 -16 l50 2 0 61 c0 34 -5 66
-12 73 -12 12 -62 15 -85 5z m65 -95 c-3 -25 -34 -36 -51 -19 -14 14 9 41 35
41 14 0 19 -6 16 -22z"/>
<path d="M16160 1073 c0 -27 3 -58 6 -71 8 -27 49 -40 76 -23 11 7 18 7 18 1
0 -5 5 -10 10 -10 6 0 10 32 10 75 0 43 -4 75 -10 75 -5 0 -10 -25 -10 -55 0
-45 -4 -56 -21 -65 -37 -20 -49 -6 -49 60 0 47 -3 60 -15 60 -11 0 -15 -12
-15 -47z"/>
<path d="M16346 1101 c-32 -36 -20 -117 18 -127 33 -8 79 -1 83 13 3 9 -6 10
-33 6 -29 -5 -40 -2 -50 12 -22 30 -17 35 36 35 46 0 50 2 50 24 0 52 -69 76
-104 37z m72 -13 c21 -21 13 -28 -28 -28 -38 0 -40 2 -30 20 12 22 40 26 58 8z"/>
<path d="M4227 993 c-4 -3 -7 -53 -7 -110 0 -85 3 -103 15 -103 11 0 15 11 15
38 l0 37 33 -39 c44 -52 69 -44 27 8 l-31 39 26 27 c27 29 31 40 13 40 -6 0
-24 -15 -39 -32 l-28 -33 -1 68 c0 62 -6 78 -23 60z"/>
<path d="M4710 961 c0 -39 0 -40 -33 -34 -24 4 -37 0 -51 -15 -20 -23 -24 -79
-7 -111 13 -24 59 -29 79 -9 9 9 12 9 12 0 0 -7 5 -12 10 -12 6 0 10 43 10
110 0 67 -4 110 -10 110 -5 0 -10 -18 -10 -39z m-19 -61 c13 -8 19 -21 19 -46
0 -27 -5 -37 -26 -46 -22 -11 -28 -10 -40 7 -17 22 -18 49 -4 76 12 22 23 24
51 9z"/>
<path d="M5166 984 c-9 -8 -16 -24 -16 -34 0 -10 -6 -21 -12 -24 -10 -5 -10
-7 0 -12 8 -4 12 -28 12 -70 0 -50 3 -64 15 -64 12 0 15 14 15 65 0 51 3 65
15 65 8 0 15 5 15 10 0 6 -7 10 -16 10 -10 0 -14 7 -12 23 2 14 9 21 21 21 9
-1 17 4 17 12 0 19 -35 18 -54 -2z"/>
<path d="M5607 993 c-4 -3 -7 -53 -7 -110 0 -85 3 -103 15 -103 12 0 15 19 15
110 0 101 -5 122 -23 103z"/>
<path d="M7900 890 c0 -85 3 -111 13 -108 6 3 14 18 17 35 l5 31 25 -34 c14
-18 31 -34 38 -34 18 0 15 9 -13 46 -31 41 -31 42 2 76 19 20 22 28 12 28 -9
0 -26 -12 -40 -26 l-24 -26 -5 58 c-3 33 -10 59 -17 62 -10 3 -13 -23 -13
-108z"/>
<path d="M8387 993 c-4 -3 -7 -21 -7 -39 0 -32 -1 -33 -34 -27 -27 4 -36 1
-50 -18 -35 -51 -9 -129 43 -129 15 0 32 5 39 12 9 9 12 9 12 0 0 -7 5 -12 10
-12 6 0 10 43 10 110 0 101 -5 122 -23 103z m-26 -93 c13 -7 19 -21 19 -44 0
-40 -24 -65 -48 -49 -21 12 -28 69 -11 89 14 17 15 17 40 4z"/>
<path d="M8842 988 c-6 -6 -12 -22 -12 -35 0 -14 -6 -23 -15 -23 -8 0 -15 -4
-15 -9 0 -5 7 -11 15 -15 11 -4 15 -21 15 -66 0 -33 4 -60 10 -60 6 0 10 28
10 65 0 58 2 65 20 65 11 0 20 5 20 10 0 6 -9 10 -20 10 -11 0 -20 6 -20 13 0
19 16 38 27 35 6 -2 13 2 15 7 5 15 -35 18 -50 3z"/>
<path d="M9280 890 c0 -85 3 -111 13 -107 8 2 12 33 12 107 0 74 -4 105 -12
108 -10 3 -13 -23 -13 -108z"/>
<path d="M4377 983 c-12 -11 -8 -23 8 -23 8 0 15 7 15 15 0 16 -12 20 -23 8z"/>
<path d="M8050 976 c0 -9 7 -16 16 -16 9 0 14 5 12 12 -6 18 -28 21 -28 4z"/>
<path d="M4370 855 c0 -60 3 -75 15 -75 12 0 15 15 15 75 0 60 -3 75 -15 75
-12 0 -15 -15 -15 -75z"/>
<path d="M4440 855 c0 -60 3 -75 15 -75 12 0 15 13 15 55 0 45 4 56 21 65 33
18 49 -4 49 -66 0 -43 3 -54 16 -54 14 0 16 9 11 60 -3 34 -11 67 -17 75 -15
18 -52 19 -68 3 -9 -9 -12 -9 -12 0 0 7 -7 12 -15 12 -12 0 -15 -15 -15 -75z"/>
<path d="M4792 918 c-22 -22 -14 -55 17 -68 56 -23 43 -60 -15 -46 -19 5 -25
3 -22 -6 6 -17 66 -23 84 -7 24 20 16 48 -21 71 -41 24 -41 43 1 43 16 1 29 5
29 10 0 15 -58 18 -73 3z"/>
<path d="M4988 913 c-31 -36 -28 -104 5 -125 22 -14 74 -8 90 10 23 26 22 94
-1 115 -24 22 -75 22 -94 0z m68 -11 c36 -24 21 -102 -20 -102 -42 0 -62 63
-30 94 17 17 33 20 50 8z"/>
<path d="M5300 920 c0 -6 10 -40 22 -76 31 -86 48 -85 82 7 30 82 30 79 13 79
-7 0 -21 -25 -31 -56 -10 -31 -21 -53 -24 -49 -4 3 -14 27 -23 53 -14 42 -39
69 -39 42z"/>
<path d="M5463 923 c-26 -10 -12 -22 24 -20 28 1 38 -2 41 -14 2 -12 -7 -18
-33 -23 -40 -8 -59 -38 -43 -68 7 -14 20 -17 58 -16 l50 2 0 61 c0 34 -5 66
-12 73 -12 12 -62 15 -85 5z m65 -95 c-3 -25 -34 -36 -51 -19 -14 14 9 41 35
41 14 0 19 -6 16 -22z"/>
<path d="M5670 883 c0 -27 3 -58 6 -71 8 -27 49 -40 76 -23 11 7 18 7 18 1 0
-5 5 -10 10 -10 6 0 10 32 10 75 0 43 -4 75 -10 75 -5 0 -10 -25 -10 -55 0
-45 -4 -56 -21 -65 -37 -20 -49 -6 -49 60 0 47 -3 60 -15 60 -11 0 -15 -12
-15 -47z"/>
<path d="M5856 911 c-32 -36 -20 -117 18 -127 33 -8 79 -1 83 13 3 9 -6 10
-33 6 -29 -5 -40 -2 -50 12 -22 30 -17 35 36 35 46 0 50 2 50 24 0 52 -69 76
-104 37z m72 -13 c21 -21 13 -28 -28 -28 -38 0 -40 2 -30 20 12 22 40 26 58 8z"/>
<path d="M6012 918 c-22 -22 -14 -55 17 -68 56 -23 43 -60 -15 -46 -19 5 -25
3 -22 -6 6 -17 66 -23 84 -7 24 20 16 48 -21 71 -41 24 -41 43 1 43 16 1 29 5
29 10 0 15 -58 18 -73 3z"/>
<path d="M8050 855 c0 -57 3 -76 13 -72 8 2 12 26 12 72 0 46 -4 70 -12 73
-10 3 -13 -16 -13 -73z"/>
<path d="M8120 854 c0 -56 3 -75 13 -72 7 3 13 26 15 55 3 54 21 79 47 69 11
-4 15 -21 15 -66 0 -47 3 -60 15 -60 12 0 15 13 15 56 0 86 -26 113 -81 84
-13 -7 -19 -7 -19 0 0 5 -4 10 -10 10 -6 0 -10 -32 -10 -76z"/>
<path d="M8462 918 c-22 -22 -13 -48 23 -70 42 -24 40 -44 -4 -41 -43 2 -35
-21 9 -25 24 -3 38 2 47 14 21 28 16 43 -22 65 -45 27 -47 53 -5 47 19 -3 29
-1 27 6 -5 16 -60 19 -75 4z"/>
<path d="M8660 910 c-24 -24 -26 -77 -4 -108 20 -29 76 -30 104 -2 45 45 13
130 -50 130 -17 0 -39 -9 -50 -20z m79 -14 c17 -20 10 -77 -11 -90 -26 -16
-52 4 -56 43 -4 36 12 61 38 61 10 0 23 -6 29 -14z"/>
<path d="M8976 908 c46 -151 68 -163 103 -58 13 39 22 73 18 76 -11 12 -24 -6
-37 -51 -7 -25 -16 -47 -20 -50 -4 -2 -14 20 -24 50 -11 35 -23 55 -32 55 -11
0 -13 -6 -8 -22z"/>
<path d="M9137 923 c-15 -14 -5 -20 30 -19 53 1 57 -27 7 -40 -80 -20 -71 -79
12 -79 l49 0 0 56 c0 32 -6 63 -14 73 -13 16 -71 22 -84 9z m73 -86 c0 -19
-21 -37 -42 -37 -21 0 -25 35 -5 43 23 10 47 7 47 -6z"/>
<path d="M9352 864 c4 -79 18 -96 68 -77 16 6 30 7 30 2 0 -5 5 -9 10 -9 6 0
10 32 10 75 0 59 -3 75 -15 75 -10 0 -15 -15 -17 -56 -2 -41 -8 -60 -20 -68
-26 -16 -41 5 -46 69 -6 78 -24 69 -20 -11z"/>
<path d="M9530 910 c-24 -24 -26 -77 -4 -108 13 -19 24 -22 57 -20 22 2 42 8
44 14 2 7 -8 9 -27 6 -32 -5 -60 11 -60 34 0 10 14 14 50 14 41 0 50 3 50 18
0 55 -70 82 -110 42z m78 -22 c3 -15 -4 -18 -32 -18 -38 0 -44 8 -24 28 17 17
52 11 56 -10z"/>
<path d="M9682 918 c-22 -22 -13 -48 23 -70 42 -24 40 -44 -4 -41 -43 2 -35
-21 9 -25 24 -3 38 2 47 14 21 28 16 43 -22 65 -45 27 -47 53 -5 47 19 -3 29
-1 27 6 -5 16 -60 19 -75 4z"/>
<path d="M550 700 c0 -85 3 -111 13 -108 6 3 14 18 17 35 l5 31 25 -34 c14
-18 31 -34 38 -34 18 0 15 9 -13 46 -31 41 -31 42 2 76 19 20 22 28 12 28 -9
0 -26 -12 -40 -26 l-24 -26 -5 58 c-3 33 -10 59 -17 62 -10 3 -13 -23 -13
-108z"/>
<path d="M1037 803 c-4 -3 -7 -21 -7 -39 0 -32 -1 -33 -34 -27 -27 4 -36 1
-50 -18 -35 -51 -9 -129 43 -129 15 0 32 5 39 12 9 9 12 9 12 0 0 -7 5 -12 10
-12 6 0 10 43 10 110 0 101 -5 122 -23 103z m-26 -93 c13 -7 19 -21 19 -44 0
-40 -24 -65 -48 -49 -21 12 -28 69 -11 89 14 17 15 17 40 4z"/>
<path d="M1492 798 c-6 -6 -12 -22 -12 -35 0 -14 -6 -23 -15 -23 -8 0 -15 -4
-15 -9 0 -5 7 -11 15 -15 11 -4 15 -21 15 -66 0 -33 4 -60 10 -60 6 0 10 28
10 65 0 58 2 65 20 65 11 0 20 5 20 10 0 6 -9 10 -20 10 -11 0 -20 6 -20 13 0
19 16 38 27 35 6 -2 13 2 15 7 5 15 -35 18 -50 3z"/>
<path d="M1930 700 c0 -85 3 -111 13 -107 8 2 12 33 12 107 0 74 -4 105 -12
108 -10 3 -13 -23 -13 -108z"/>
<path d="M700 786 c0 -9 7 -16 16 -16 17 0 14 22 -4 28 -7 2 -12 -3 -12 -12z"/>
<path d="M700 665 c0 -57 3 -76 13 -72 8 2 12 26 12 72 0 46 -4 70 -12 73 -10
3 -13 -16 -13 -73z"/>
<path d="M770 664 c0 -56 3 -75 13 -72 7 3 13 26 15 55 3 54 21 79 47 69 11
-4 15 -21 15 -66 0 -47 3 -60 15 -60 12 0 15 13 15 56 0 86 -26 113 -81 84
-13 -7 -19 -7 -19 0 0 5 -4 10 -10 10 -6 0 -10 -32 -10 -76z"/>
<path d="M1112 728 c-22 -22 -13 -48 23 -70 42 -24 40 -44 -4 -41 -43 2 -35
-21 9 -25 24 -3 38 2 47 14 21 28 16 43 -22 65 -45 27 -47 53 -5 47 19 -3 29
-1 27 6 -5 16 -60 19 -75 4z"/>
<path d="M1310 720 c-24 -24 -26 -77 -4 -108 20 -29 76 -30 104 -2 45 45 13
130 -50 130 -17 0 -39 -9 -50 -20z m79 -14 c17 -20 10 -77 -11 -90 -26 -16
-52 4 -56 43 -4 36 12 61 38 61 10 0 23 -6 29 -14z"/>
<path d="M1626 718 c46 -151 68 -163 103 -58 13 39 22 73 18 76 -11 12 -24 -6
-37 -51 -7 -25 -16 -47 -20 -50 -4 -2 -14 20 -24 50 -11 35 -23 55 -32 55 -11
0 -13 -6 -8 -22z"/>
<path d="M1787 733 c-15 -14 -5 -20 30 -19 53 1 57 -27 7 -40 -80 -20 -71 -79
12 -79 l49 0 0 56 c0 32 -6 63 -14 73 -13 16 -71 22 -84 9z m73 -86 c0 -19
-21 -37 -42 -37 -21 0 -25 35 -5 43 23 10 47 7 47 -6z"/>
<path d="M2002 674 c4 -79 18 -96 68 -77 16 6 30 7 30 2 0 -5 5 -9 10 -9 6 0
10 32 10 75 0 59 -3 75 -15 75 -10 0 -15 -15 -17 -56 -2 -41 -8 -60 -20 -68
-26 -16 -41 5 -46 69 -6 78 -24 69 -20 -11z"/>
<path d="M2180 720 c-24 -24 -26 -77 -4 -108 13 -19 24 -22 57 -20 22 2 42 8
44 14 2 7 -8 9 -27 6 -32 -5 -60 11 -60 34 0 10 14 14 50 14 41 0 50 3 50 18
0 55 -70 82 -110 42z m78 -22 c3 -15 -4 -18 -32 -18 -38 0 -44 8 -24 28 17 17
52 11 56 -10z"/>
<path d="M2332 728 c-22 -22 -13 -48 23 -70 42 -24 40 -44 -4 -41 -43 2 -35
-21 9 -25 24 -3 38 2 47 14 21 28 16 43 -22 65 -45 27 -47 53 -5 47 19 -3 29
-1 27 6 -5 16 -60 19 -75 4z"/>
<path d="M8610 510 c0 -85 3 -111 13 -107 8 2 12 33 12 107 0 74 -4 105 -12
108 -10 3 -13 -23 -13 -108z"/>
<path d="M5188 529 c-32 -16 -58 -34 -58 -39 0 -8 110 -70 125 -70 3 0 5 5 5
10 0 6 -20 20 -45 32 -25 12 -45 25 -45 28 0 3 20 16 45 28 25 12 45 26 45 32
0 15 -9 12 -72 -21z"/>
<path d="M8723 532 c-31 -15 -53 -33 -53 -42 0 -14 95 -70 120 -70 27 0 4 23
-40 42 -27 11 -50 24 -50 28 0 4 23 17 50 28 28 12 50 26 50 31 0 17 -20 12
-77 -17z"/>
<path d="M4880 475 c0 -60 3 -75 15 -75 12 0 15 13 15 55 0 45 4 56 21 66 29
15 37 3 41 -60 4 -76 28 -82 28 -7 0 47 3 57 22 67 30 16 48 -11 48 -73 0 -26
5 -48 10 -48 14 0 13 123 -2 138 -7 7 -21 12 -33 12 -12 0 -26 -5 -33 -12 -9
-9 -15 -9 -24 0 -7 7 -21 12 -33 12 -12 0 -26 -5 -33 -12 -9 -9 -12 -9 -12 0
0 7 -7 12 -15 12 -12 0 -15 -15 -15 -75z"/>
<path d="M5300 475 c0 -60 3 -75 15 -75 12 0 15 13 15 55 0 45 4 56 21 65 33
18 49 -4 49 -66 0 -43 3 -54 16 -54 14 0 16 9 11 60 -3 34 -11 67 -17 75 -15
18 -52 19 -68 3 -9 -9 -12 -9 -12 0 0 7 -7 12 -15 12 -12 0 -15 -15 -15 -75z"/>
<path d="M8840 474 c0 -56 3 -75 13 -72 7 3 13 26 15 55 6 98 62 95 62 -3 0
-41 4 -54 15 -54 11 0 15 13 15 54 0 56 17 83 45 72 11 -4 15 -21 15 -66 0
-47 3 -60 15 -60 12 0 15 13 15 59 0 81 -28 109 -82 80 -14 -8 -23 -8 -31 0
-15 15 -50 14 -65 -1 -9 -9 -12 -9 -12 0 0 7 -4 12 -10 12 -6 0 -10 -32 -10
-76z"/>
</g>
</svg>
