<?xml version="1.0" standalone="no"?>
<!DOCTYPE svg PUBLIC "-//W3C//DTD SVG 20010904//EN"
 "http://www.w3.org/TR/2001/REC-SVG-20010904/DTD/svg10.dtd">
<svg version="1.0" xmlns="http://www.w3.org/2000/svg"
 width="1750.000000pt" height="938.000000pt" viewBox="0 0 1750.000000 938.000000"
 preserveAspectRatio="xMidYMid meet">

<g transform="translate(0.000000,938.000000) scale(0.100000,-0.100000)"
fill="#000000" stroke="none">
<path d="M8090 8805 c0 -57 4 -95 10 -95 6 0 10 38 10 95 0 57 -4 95 -10 95
-6 0 -10 -38 -10 -95z"/>
<path d="M8360 8807 l0 -94 39 -1 c45 -2 71 23 71 68 0 42 -22 63 -58 58 -30
-4 -32 -3 -32 29 0 18 -4 33 -10 33 -6 0 -10 -38 -10 -93z m75 -32 c0 -36 -2
-40 -25 -40 -20 0 -26 6 -28 28 -5 42 5 59 30 55 20 -3 23 -9 23 -43z"/>
<path d="M8970 8867 c0 -32 -2 -33 -32 -29 -37 6 -58 -16 -58 -61 0 -51 15
-67 65 -65 l45 2 0 93 c0 55 -4 93 -10 93 -5 0 -10 -15 -10 -33z m-12 -59 c26
-26 7 -78 -29 -78 -28 0 -40 55 -17 78 7 7 17 12 23 12 6 0 16 -5 23 -12z"/>
<path d="M7790 8800 c0 -53 4 -90 10 -90 6 0 10 18 10 40 0 29 4 40 15 40 13
0 48 -45 58 -74 2 -5 8 -7 15 -5 8 3 6 16 -7 45 -16 35 -16 43 -5 59 18 25 18
31 -6 55 -12 12 -33 20 -55 20 l-35 0 0 -90z m70 55 c18 -21 5 -45 -25 -45
-21 0 -25 5 -25 30 0 23 5 30 19 30 10 0 24 -7 31 -15z"/>
<path d="M7933 8824 c-3 -9 -2 -37 3 -63 l9 -46 48 -1 47 -1 0 64 c0 35 -4 63
-10 63 -5 0 -10 -20 -10 -44 0 -46 -19 -72 -45 -62 -11 4 -15 20 -15 56 0 49
-14 67 -27 34z"/>
<path d="M8156 8824 c-9 -8 -16 -31 -16 -49 0 -18 7 -41 16 -49 17 -18 79 -22
89 -6 4 6 -10 10 -33 10 -27 0 -42 5 -46 16 -9 24 -9 24 39 24 48 0 56 11 35
51 -13 23 -62 26 -84 3z m68 -19 c4 -12 -3 -15 -29 -15 -26 0 -33 3 -29 15 4
8 16 15 29 15 13 0 25 -7 29 -15z"/>
<path d="M8510 8830 c-16 -11 -8 -13 29 -10 13 1 28 -4 32 -12 6 -9 -1 -16
-29 -24 -32 -9 -37 -15 -37 -40 0 -28 2 -29 48 -30 l47 -2 0 52 c0 29 -5 57
-12 64 -14 14 -57 15 -78 2z m68 -77 c-4 -20 -35 -30 -50 -15 -15 15 0 32 28
32 19 0 25 -5 22 -17z"/>
<path d="M8640 8825 c-16 -20 -6 -43 25 -57 36 -16 33 -41 -5 -36 -21 3 -30 0
-30 -9 0 -10 11 -13 38 -11 32 3 37 7 40 30 3 21 -3 30 -27 43 -40 20 -40 35
0 35 17 0 28 4 24 10 -9 15 -51 12 -65 -5z"/>
<path d="M8756 8824 c-9 -8 -16 -31 -16 -49 0 -18 7 -41 16 -49 17 -18 79 -22
89 -6 4 6 -10 10 -33 10 -27 0 -42 5 -46 16 -9 24 -9 24 39 24 48 0 56 11 35
51 -13 23 -62 26 -84 3z m68 -19 c4 -12 -3 -15 -29 -15 -26 0 -33 3 -29 15 4
8 16 15 29 15 13 0 25 -7 29 -15z"/>
<path d="M7542 8548 c-7 -7 -12 -20 -12 -29 0 -10 -6 -20 -12 -23 -10 -5 -10
-7 0 -12 7 -3 12 -26 12 -60 0 -30 5 -54 10 -54 6 0 10 25 10 55 0 48 2 55 20
55 11 0 20 5 20 10 0 6 -9 10 -19 10 -14 0 -18 5 -14 20 3 11 12 20 19 20 8 0
14 5 14 10 0 14 -33 13 -48 -2z"/>
<path d="M8680 8465 c0 -57 4 -95 10 -95 6 0 10 38 10 95 0 57 -4 95 -10 95
-6 0 -10 -38 -10 -95z"/>
<path d="M17150 8527 c0 -32 -2 -33 -32 -29 -37 6 -58 -16 -58 -61 0 -51 15
-67 65 -65 l45 2 0 93 c0 55 -4 93 -10 93 -5 0 -10 -15 -10 -33z m-12 -59 c26
-26 7 -78 -29 -78 -28 0 -40 55 -17 78 7 7 17 12 23 12 6 0 16 -5 23 -12z"/>
<path d="M8945 8541 c-6 -11 9 -23 19 -14 9 9 7 23 -3 23 -6 0 -12 -4 -16 -9z"/>
<path d="M15355 8473 c-16 -43 -30 -84 -33 -90 -8 -25 19 -13 28 12 8 20 16
25 45 25 29 0 37 -5 45 -25 5 -14 14 -25 20 -25 13 0 13 11 -3 51 -8 19 -22
55 -31 82 -10 26 -23 47 -30 47 -8 0 -26 -35 -41 -77z m64 -25 c1 -5 -10 -8
-24 -8 -29 0 -29 2 -13 47 l12 34 12 -33 c7 -18 13 -36 13 -40z"/>
<path d="M16345 8541 c-6 -11 9 -23 19 -14 9 9 7 23 -3 23 -6 0 -12 -4 -16 -9z"/>
<path d="M7890 8516 c0 -8 -6 -17 -12 -20 -10 -5 -10 -7 0 -12 6 -3 12 -23 12
-44 0 -21 3 -45 6 -54 7 -17 54 -22 54 -6 0 6 -6 10 -14 10 -17 0 -26 22 -26
61 0 22 5 29 20 29 11 0 20 5 20 10 0 6 -9 10 -20 10 -11 0 -20 7 -20 15 0 8
-4 15 -10 15 -5 0 -10 -6 -10 -14z"/>
<path d="M8860 8516 c0 -8 -6 -17 -12 -20 -10 -5 -10 -7 0 -12 6 -3 12 -23 12
-44 0 -21 3 -45 6 -54 7 -17 54 -22 54 -6 0 6 -6 10 -14 10 -17 0 -26 22 -26
61 0 22 5 29 20 29 11 0 20 5 20 10 0 6 -9 10 -20 10 -11 0 -20 7 -20 15 0 8
-4 15 -10 15 -5 0 -10 -6 -10 -14z"/>
<path d="M16260 8516 c0 -8 -6 -17 -12 -20 -10 -5 -10 -7 0 -12 6 -3 12 -23
12 -44 0 -21 3 -45 6 -54 7 -17 54 -22 54 -6 0 6 -6 10 -14 10 -17 0 -26 22
-26 61 0 22 5 29 20 29 11 0 20 5 20 10 0 6 -9 10 -20 10 -11 0 -20 7 -20 15
0 8 -4 15 -10 15 -5 0 -10 -6 -10 -14z"/>
<path d="M7626 8484 c-9 -8 -16 -31 -16 -49 0 -18 7 -41 16 -49 17 -18 79 -22
89 -6 4 6 -10 10 -33 10 -27 0 -42 5 -46 16 -9 24 -9 24 39 24 48 0 56 11 35
51 -13 23 -62 26 -84 3z m68 -19 c4 -12 -3 -15 -29 -15 -26 0 -33 3 -29 15 4
8 16 15 29 15 13 0 25 -7 29 -15z"/>
<path d="M7760 8490 c-16 -11 -8 -13 29 -10 13 1 28 -4 32 -12 6 -9 -1 -16
-29 -24 -32 -9 -37 -15 -37 -40 0 -28 2 -29 48 -30 l47 -2 0 52 c0 29 -5 57
-12 64 -14 14 -57 15 -78 2z m68 -77 c-4 -20 -35 -30 -50 -15 -15 15 0 32 28
32 19 0 25 -5 22 -17z"/>
<path d="M7973 8484 c-3 -9 -2 -37 3 -63 l9 -46 48 -1 47 -1 0 64 c0 35 -4 63
-10 63 -5 0 -10 -20 -10 -44 0 -46 -19 -72 -45 -62 -11 4 -15 20 -15 56 0 49
-14 67 -27 34z"/>
<path d="M8130 8433 c0 -73 17 -86 22 -15 2 38 7 49 26 57 32 14 27 25 -13 23
l-35 -1 0 -64z"/>
<path d="M8236 8484 c-9 -8 -16 -31 -16 -49 0 -18 7 -41 16 -49 17 -18 79 -22
89 -6 4 6 -10 10 -33 10 -27 0 -42 5 -46 16 -9 24 -9 24 39 24 48 0 56 11 35
51 -13 23 -62 26 -84 3z m68 -19 c4 -12 -3 -15 -29 -15 -26 0 -33 3 -29 15 4
8 16 15 29 15 13 0 25 -7 29 -15z"/>
<path d="M8430 8485 c-16 -20 -6 -43 25 -57 36 -16 33 -41 -5 -36 -21 3 -30 0
-30 -9 0 -10 11 -13 38 -11 32 3 37 7 40 30 3 21 -3 30 -27 43 -40 20 -40 35
0 35 17 0 28 4 24 10 -9 15 -51 12 -65 -5z"/>
<path d="M8546 8484 c-9 -8 -16 -31 -16 -49 0 -18 7 -41 16 -49 17 -18 79 -22
89 -6 4 6 -10 10 -33 10 -27 0 -42 5 -46 16 -9 24 -9 24 39 24 48 0 56 11 35
51 -13 23 -62 26 -84 3z m68 -19 c4 -12 -3 -15 -29 -15 -26 0 -33 3 -29 15 4
8 16 15 29 15 13 0 25 -7 29 -15z"/>
<path d="M8746 8485 c-19 -20 -21 -74 -3 -99 14 -19 68 -19 74 0 2 7 -8 9 -26
6 -23 -3 -30 0 -36 18 -4 12 -4 33 0 47 5 21 10 24 36 21 18 -3 28 -1 26 6 -6
18 -53 18 -71 1z"/>
<path d="M8950 8435 c0 -37 4 -65 10 -65 6 0 10 28 10 65 0 37 -4 65 -10 65
-6 0 -10 -28 -10 -65z"/>
<path d="M9017 8482 c-21 -23 -22 -76 -1 -96 39 -39 104 -5 104 55 0 52 -69
79 -103 41z m74 -23 c8 -16 8 -28 0 -45 -18 -41 -71 -25 -71 21 0 44 50 61 71
24z"/>
<path d="M9160 8433 c0 -35 4 -63 10 -63 6 0 10 22 10 49 0 41 4 51 20 56 31
10 40 -2 40 -56 0 -27 5 -49 10 -49 15 0 12 106 -3 119 -8 6 -30 10 -50 9
l-37 -1 0 -64z"/>
<path d="M15502 8487 c-6 -7 -11 -33 -10 -58 0 -24 -3 -53 -7 -63 -17 -39 66
-64 100 -30 9 9 14 23 11 31 -3 8 -6 16 -6 19 0 2 -18 7 -40 10 -22 4 -40 11
-40 16 0 6 7 7 16 4 24 -9 54 12 54 39 0 14 5 25 10 25 6 0 10 5 10 10 0 15
-86 12 -98 -3z m58 -26 c0 -27 -19 -36 -37 -18 -18 18 -9 37 18 37 12 0 19 -7
19 -19z m8 -103 c3 -14 -3 -18 -27 -18 -29 0 -41 17 -24 34 13 13 48 1 51 -16z"/>
<path d="M15632 8487 c-6 -7 -11 -33 -10 -58 0 -24 -3 -53 -7 -63 -17 -39 66
-64 100 -30 9 9 14 23 11 31 -3 8 -6 16 -6 19 0 2 -18 7 -40 10 -22 4 -40 11
-40 16 0 6 7 7 16 4 24 -9 54 12 54 39 0 14 5 25 10 25 6 0 10 5 10 10 0 15
-86 12 -98 -3z m58 -26 c0 -27 -19 -36 -37 -18 -18 18 -9 37 18 37 12 0 19 -7
19 -19z m8 -103 c3 -14 -3 -18 -27 -18 -29 0 -41 17 -24 34 13 13 48 1 51 -16z"/>
<path d="M15760 8433 c0 -73 17 -86 22 -15 2 38 7 49 26 57 32 14 27 25 -13
23 l-35 -1 0 -64z"/>
<path d="M15866 8484 c-9 -8 -16 -31 -16 -49 0 -18 7 -41 16 -49 17 -18 79
-22 89 -6 4 6 -10 10 -33 10 -27 0 -42 5 -46 16 -9 24 -9 24 39 24 48 0 56 11
35 51 -13 23 -62 26 -84 3z m68 -19 c4 -12 -3 -15 -29 -15 -26 0 -33 3 -29 15
4 8 16 15 29 15 13 0 25 -7 29 -15z"/>
<path d="M16002 8487 c-6 -7 -11 -33 -10 -58 0 -24 -3 -53 -7 -63 -17 -39 66
-64 100 -30 9 9 14 23 11 31 -3 8 -6 16 -6 19 0 2 -18 7 -40 10 -22 4 -40 11
-40 16 0 6 7 7 16 4 24 -9 54 12 54 39 0 14 5 25 10 25 6 0 10 5 10 10 0 15
-86 12 -98 -3z m58 -26 c0 -27 -19 -36 -37 -18 -18 18 -9 37 18 37 12 0 19 -7
19 -19z m8 -103 c3 -14 -3 -18 -27 -18 -29 0 -41 17 -24 34 13 13 48 1 51 -16z"/>
<path d="M16130 8490 c-16 -11 -8 -13 29 -10 13 1 28 -4 32 -12 6 -9 -1 -16
-29 -24 -32 -9 -37 -15 -37 -40 0 -28 2 -29 48 -30 l47 -2 0 52 c0 29 -5 57
-12 64 -14 14 -57 15 -78 2z m68 -77 c-4 -20 -35 -30 -50 -15 -15 15 0 32 28
32 19 0 25 -5 22 -17z"/>
<path d="M16350 8435 c0 -37 4 -65 10 -65 6 0 10 28 10 65 0 37 -4 65 -10 65
-6 0 -10 -28 -10 -65z"/>
<path d="M16417 8482 c-21 -23 -22 -76 -1 -96 39 -39 104 -5 104 55 0 52 -69
79 -103 41z m74 -23 c8 -16 8 -28 0 -45 -18 -41 -71 -25 -71 21 0 44 50 61 71
24z"/>
<path d="M16560 8433 c0 -35 4 -63 10 -63 6 0 10 22 10 49 0 41 4 51 20 56 31
10 40 -2 40 -56 0 -27 5 -49 10 -49 15 0 12 106 -3 119 -8 6 -30 10 -50 9
l-37 -1 0 -64z"/>
<path d="M16790 8490 c-16 -11 -8 -13 29 -10 13 1 28 -4 32 -12 6 -9 -1 -16
-29 -24 -32 -9 -37 -15 -37 -40 0 -28 2 -29 48 -30 l47 -2 0 52 c0 29 -5 57
-12 64 -14 14 -57 15 -78 2z m68 -77 c-4 -20 -35 -30 -50 -15 -15 15 0 32 28
32 19 0 25 -5 22 -17z"/>
<path d="M16920 8433 c0 -35 4 -63 10 -63 6 0 10 22 10 49 0 41 4 51 20 56 31
10 40 -2 40 -56 0 -27 5 -49 10 -49 15 0 12 106 -3 119 -8 6 -30 10 -50 9
l-37 -1 0 -64z"/>
<path d="M4440 8367 c0 -32 -2 -33 -32 -29 -37 6 -58 -16 -58 -61 0 -51 15
-67 65 -65 l45 2 0 93 c0 55 -4 93 -10 93 -5 0 -10 -15 -10 -33z m-12 -59 c26
-26 7 -78 -29 -78 -28 0 -40 55 -17 78 7 7 17 12 23 12 6 0 16 -5 23 -12z"/>
<path d="M4660 8305 c0 -57 4 -95 10 -95 6 0 10 22 10 49 0 41 4 51 20 56 31
10 40 -2 40 -56 0 -27 5 -49 10 -49 6 0 10 24 10 54 0 61 -15 81 -55 74 -23
-5 -25 -2 -25 28 0 19 -4 34 -10 34 -6 0 -10 -38 -10 -95z"/>
<path d="M11797 8393 c-4 -3 -7 -16 -7 -29 0 -12 -6 -25 -12 -28 -10 -5 -10
-7 0 -12 7 -3 12 -26 12 -60 0 -30 5 -54 10 -54 6 0 10 25 10 55 0 42 3 55 15
55 8 0 15 5 15 10 0 6 -7 10 -15 10 -8 0 -15 9 -15 20 0 13 7 20 20 20 11 0
20 5 20 10 0 11 -43 14 -53 3z"/>
<path d="M3960 8300 l0 -90 45 0 c25 0 45 5 45 10 0 6 -16 10 -35 10 l-35 0 0
80 c0 47 -4 80 -10 80 -6 0 -10 -37 -10 -90z"/>
<path d="M5015 8381 c-6 -11 9 -23 19 -14 9 9 7 23 -3 23 -6 0 -12 -4 -16 -9z"/>
<path d="M11130 8381 c0 -5 12 -11 28 -13 27 -3 27 -4 30 -80 4 -103 22 -101
22 2 0 79 0 80 25 80 14 0 25 5 25 10 0 6 -28 10 -65 10 -36 0 -65 -4 -65 -9z"/>
<path d="M12562 8381 c4 -13 18 -16 19 -4 0 4 -5 9 -11 12 -7 2 -11 -2 -8 -8z"/>
<path d="M4570 8356 c0 -8 -6 -17 -12 -20 -10 -5 -10 -7 0 -12 6 -3 12 -23 12
-44 0 -21 3 -45 6 -54 7 -17 54 -22 54 -6 0 6 -6 10 -14 10 -17 0 -26 22 -26
61 0 22 5 29 20 29 11 0 20 5 20 10 0 6 -9 10 -20 10 -11 0 -20 7 -20 15 0 8
-4 15 -10 15 -5 0 -10 -6 -10 -14z"/>
<path d="M5530 8356 c0 -8 -6 -17 -12 -20 -10 -5 -10 -7 0 -12 6 -3 12 -23 12
-44 0 -21 3 -45 6 -54 7 -17 54 -22 54 -6 0 6 -6 10 -14 10 -17 0 -26 22 -26
61 0 22 5 29 20 29 11 0 20 5 20 10 0 6 -9 10 -20 10 -11 0 -20 7 -20 15 0 8
-4 15 -10 15 -5 0 -10 -6 -10 -14z"/>
<path d="M12480 8355 c0 -8 -8 -15 -17 -15 -17 -1 -17 -1 -1 -13 11 -9 18 -31
20 -63 3 -42 6 -49 26 -52 12 -2 22 1 22 7 0 6 -7 11 -15 11 -11 0 -15 12 -15
45 0 33 4 45 15 45 8 0 15 5 15 10 0 6 -7 10 -15 10 -8 0 -15 7 -15 15 0 8 -4
15 -10 15 -5 0 -10 -7 -10 -15z"/>
<path d="M4087 8322 c-21 -23 -22 -76 -1 -96 39 -39 104 -5 104 55 0 52 -69
79 -103 41z m74 -23 c8 -16 8 -28 0 -45 -18 -41 -71 -25 -71 21 0 44 50 61 71
24z"/>
<path d="M4230 8330 c-16 -11 -8 -13 29 -10 13 1 28 -4 32 -12 6 -9 -1 -16
-29 -24 -32 -9 -37 -15 -37 -40 0 -28 2 -29 48 -30 l47 -2 0 52 c0 29 -5 57
-12 64 -14 14 -57 15 -78 2z m68 -77 c-4 -20 -35 -30 -50 -15 -15 15 0 32 28
32 19 0 25 -5 22 -17z"/>
<path d="M4816 8324 c-9 -8 -16 -31 -16 -49 0 -18 7 -41 16 -49 17 -18 79 -22
89 -6 4 6 -10 10 -33 10 -27 0 -42 5 -46 16 -9 24 -9 24 39 24 48 0 56 11 35
51 -13 23 -62 26 -84 3z m68 -19 c4 -12 -3 -15 -29 -15 -26 0 -33 3 -29 15 4
8 16 15 29 15 13 0 25 -7 29 -15z"/>
<path d="M5020 8275 c0 -37 4 -65 10 -65 6 0 10 28 10 65 0 37 -4 65 -10 65
-6 0 -10 -28 -10 -65z"/>
<path d="M5080 8273 c0 -35 4 -63 10 -63 6 0 10 22 10 49 0 41 4 51 20 56 31
10 40 -2 40 -56 0 -27 5 -49 10 -49 15 0 12 106 -3 119 -8 6 -30 10 -50 9
l-37 -1 0 -64z"/>
<path d="M5230 8248 c0 -52 4 -88 10 -88 6 0 10 13 10 28 0 26 3 28 29 24 48
-7 78 58 51 109 -9 15 -20 19 -55 17 l-45 -1 0 -89z m75 27 c0 -36 -2 -40 -25
-40 -20 0 -26 6 -28 28 -5 42 5 59 30 55 20 -3 23 -9 23 -43z"/>
<path d="M5373 8324 c-3 -9 -2 -37 3 -63 l9 -46 48 -1 47 -1 0 64 c0 35 -4 63
-10 63 -5 0 -10 -20 -10 -44 0 -46 -19 -72 -45 -62 -11 4 -15 20 -15 56 0 49
-14 67 -27 34z"/>
<path d="M11290 8273 c0 -73 17 -86 22 -15 2 38 7 49 26 57 32 14 27 23 -13
22 l-35 -1 0 -63z"/>
<path d="M11397 8334 c-14 -14 -7 -19 25 -19 41 0 48 -21 9 -30 -70 -15 -65
-69 8 -71 l42 -2 -3 62 -3 61 -35 3 c-20 2 -39 0 -43 -4z m61 -81 c-4 -22 -48
-31 -48 -10 0 19 10 27 32 27 13 0 18 -6 16 -17z"/>
<path d="M11520 8273 c0 -35 4 -63 10 -63 6 0 10 19 10 43 0 46 13 67 42 67
15 0 18 -9 18 -55 0 -42 3 -55 15 -55 11 0 15 12 15 46 0 69 -12 84 -65 82
l-45 -2 0 -63z"/>
<path d="M11672 8323 c-13 -25 -4 -43 24 -53 13 -5 24 -17 24 -26 0 -12 -7
-15 -30 -12 -19 3 -29 1 -27 -6 5 -16 56 -20 73 -5 22 18 17 38 -16 57 -36 21
-39 42 -5 42 14 0 25 5 25 10 0 18 -59 11 -68 -7z"/>
<path d="M11876 8318 c-33 -46 -7 -108 44 -108 46 0 66 29 60 85 -3 32 -20 45
-56 45 -23 0 -38 -7 -48 -22z m80 -22 c10 -41 -4 -68 -34 -64 -21 2 -28 9 -30
31 -5 41 4 57 32 57 19 0 27 -7 32 -24z"/>
<path d="M12020 8273 c0 -73 17 -86 22 -15 2 38 7 49 26 57 32 14 27 23 -13
22 l-35 -1 0 -63z"/>
<path d="M12120 8273 c0 -35 4 -63 10 -63 6 0 10 20 10 44 0 46 19 72 45 62
11 -4 15 -20 15 -56 0 -27 5 -50 10 -50 6 0 10 20 10 44 0 46 19 72 45 62 11
-4 15 -20 15 -56 0 -28 5 -50 10 -50 7 0 10 24 8 63 -3 56 -5 62 -26 65 -13 2
-29 -2 -37 -8 -9 -7 -15 -8 -20 -1 -3 6 -26 10 -50 9 l-45 -2 0 -63z"/>
<path d="M12347 8334 c-14 -14 -7 -19 25 -19 41 0 48 -21 9 -30 -70 -15 -65
-69 8 -71 l42 -2 -3 62 -3 61 -35 3 c-20 2 -39 0 -43 -4z m61 -81 c-4 -22 -48
-31 -48 -10 0 19 10 27 32 27 13 0 18 -6 16 -17z"/>
<path d="M12560 8275 c0 -37 4 -65 10 -65 6 0 10 28 10 65 0 37 -4 65 -10 65
-6 0 -10 -28 -10 -65z"/>
<path d="M12626 8318 c-33 -46 -7 -108 44 -108 46 0 66 29 60 85 -3 32 -20 45
-56 45 -23 0 -38 -7 -48 -22z m80 -22 c10 -41 -4 -68 -34 -64 -21 2 -28 9 -30
31 -5 41 4 57 32 57 19 0 27 -7 32 -24z"/>
<path d="M12770 8273 c0 -35 4 -63 10 -63 6 0 10 19 10 43 0 46 13 67 42 67
15 0 18 -9 18 -55 0 -42 3 -55 15 -55 11 0 15 12 15 46 0 69 -12 84 -65 82
l-45 -2 0 -63z"/>
<path d="M8052 8218 c-7 -7 -12 -20 -12 -29 0 -10 -6 -20 -12 -23 -10 -5 -10
-7 0 -12 7 -3 12 -26 12 -60 0 -30 5 -54 10 -54 6 0 10 25 10 55 0 48 2 55 20
55 11 0 20 5 20 10 0 6 -9 10 -19 10 -14 0 -18 5 -14 20 3 11 12 20 19 20 8 0
14 5 14 10 0 14 -33 13 -48 -2z"/>
<path d="M16932 8208 c-7 -7 -12 -20 -12 -29 0 -10 -6 -20 -12 -23 -10 -5 -10
-7 0 -12 7 -3 12 -26 12 -60 0 -30 5 -54 10 -54 6 0 10 25 10 55 0 48 2 55 20
55 11 0 20 5 20 10 0 6 -9 10 -19 10 -14 0 -18 5 -14 20 3 11 12 20 19 20 8 0
14 5 14 10 0 14 -33 13 -48 -2z"/>
<path d="M16325 8201 c-6 -11 9 -23 19 -14 9 9 7 23 -3 23 -6 0 -12 -4 -16 -9z"/>
<path d="M15800 8176 c0 -8 -6 -17 -12 -20 -10 -5 -10 -7 0 -12 6 -3 12 -23
12 -44 0 -21 3 -45 6 -54 7 -17 54 -22 54 -6 0 6 -6 10 -14 10 -17 0 -26 22
-26 61 0 22 5 29 20 29 11 0 20 5 20 10 0 6 -9 10 -20 10 -11 0 -20 7 -20 15
0 8 -4 15 -10 15 -5 0 -10 -6 -10 -14z"/>
<path d="M16240 8176 c0 -8 -6 -17 -12 -20 -10 -5 -10 -7 0 -12 6 -3 12 -23
12 -44 0 -21 3 -45 6 -54 7 -17 54 -22 54 -6 0 6 -6 10 -14 10 -17 0 -26 22
-26 61 0 22 5 29 20 29 11 0 20 5 20 10 0 6 -9 10 -20 10 -11 0 -20 7 -20 15
0 8 -4 15 -10 15 -5 0 -10 -6 -10 -14z"/>
<path d="M7050 8160 c0 -20 -7 -20 -530 -20 -464 0 -530 -2 -530 -15 0 -13 66
-15 530 -15 523 0 530 0 530 -20 0 -25 2 -25 50 0 22 11 40 18 40 15 0 -3 9
-1 21 6 23 12 15 27 -18 33 -12 3 -35 12 -52 20 -38 20 -41 20 -41 -4z"/>
<path d="M10680 8160 c0 -20 -7 -20 -530 -20 -464 0 -530 -2 -530 -15 0 -13
66 -15 530 -15 523 0 530 0 530 -20 0 -25 2 -25 50 0 22 11 40 18 40 15 0 -3
9 -1 21 6 23 12 15 27 -18 33 -12 3 -35 12 -52 20 -38 20 -41 20 -41 -4z"/>
<path d="M14920 8160 c0 -20 -7 -20 -835 -20 -736 0 -835 -2 -835 -15 0 -13
99 -15 835 -15 828 0 835 0 835 -20 0 -11 2 -20 4 -20 10 0 116 50 116 55 0 5
-106 55 -116 55 -2 0 -4 -9 -4 -20z"/>
<path d="M8130 8103 c0 -73 17 -86 22 -15 2 38 7 49 26 57 32 14 27 25 -13 23
l-35 -1 0 -64z"/>
<path d="M8237 8152 c-21 -23 -22 -76 -1 -96 39 -39 104 -5 104 55 0 52 -69
79 -103 41z m74 -23 c8 -16 8 -28 0 -45 -18 -41 -71 -25 -71 21 0 44 50 61 71
24z"/>
<path d="M8380 8103 c0 -76 18 -85 22 -10 3 44 6 52 24 55 24 3 34 -19 34 -75
0 -54 19 -37 22 20 3 44 6 52 24 55 24 3 34 -19 34 -75 0 -18 5 -33 10 -33 13
0 13 86 0 111 -11 20 -54 26 -65 9 -5 -8 -11 -8 -19 -1 -7 6 -29 10 -49 9
l-37 -1 0 -64z"/>
<path d="M8660 8160 c-16 -11 -8 -13 29 -10 13 1 28 -4 32 -12 6 -9 -1 -16
-29 -24 -32 -9 -37 -15 -37 -40 0 -28 2 -29 48 -30 l47 -2 0 52 c0 29 -5 57
-12 64 -14 14 -57 15 -78 2z m68 -77 c-4 -20 -35 -30 -50 -15 -15 15 0 32 28
32 19 0 25 -5 22 -17z"/>
<path d="M15546 8144 c-9 -8 -16 -31 -16 -49 0 -18 7 -41 16 -49 17 -18 79
-22 89 -6 4 6 -10 10 -33 10 -27 0 -42 5 -46 16 -9 24 -9 24 39 24 48 0 56 11
35 51 -13 23 -62 26 -84 3z m68 -19 c4 -12 -3 -15 -29 -15 -26 0 -33 3 -29 15
4 8 16 15 29 15 13 0 25 -7 29 -15z"/>
<path d="M15680 8128 c19 -32 19 -32 -1 -65 -16 -25 -17 -33 -7 -33 8 0 21 11
28 25 l14 26 15 -26 c9 -14 22 -25 29 -25 11 0 9 8 -6 34 -20 33 -20 33 0 65
23 36 6 43 -22 9 l-17 -22 -12 22 c-6 12 -18 22 -26 22 -12 0 -11 -6 5 -32z"/>
<path d="M15890 8093 c0 -73 17 -86 22 -15 2 38 7 49 26 57 32 14 27 25 -13
23 l-35 -1 0 -64z"/>
<path d="M15990 8150 c-16 -11 -8 -13 29 -10 13 1 28 -4 32 -12 6 -9 -1 -16
-29 -24 -32 -9 -37 -15 -37 -40 0 -28 2 -29 48 -30 l47 -2 0 52 c0 29 -5 57
-12 64 -14 14 -57 15 -78 2z m68 -77 c-4 -20 -35 -30 -50 -15 -15 15 0 32 28
32 19 0 25 -5 22 -17z"/>
<path d="M16126 8145 c-19 -20 -21 -74 -3 -99 14 -19 68 -19 74 0 2 7 -8 9
-26 6 -23 -3 -30 0 -36 18 -4 12 -4 33 0 47 5 21 10 24 36 21 18 -3 28 -1 26
6 -6 18 -53 18 -71 1z"/>
<path d="M16330 8095 c0 -37 4 -65 10 -65 6 0 10 28 10 65 0 37 -4 65 -10 65
-6 0 -10 -28 -10 -65z"/>
<path d="M16397 8142 c-21 -23 -22 -76 -1 -96 39 -39 104 -5 104 55 0 52 -69
79 -103 41z m74 -23 c8 -16 8 -28 0 -45 -18 -41 -71 -25 -71 21 0 44 50 61 71
24z"/>
<path d="M16540 8093 c0 -35 4 -63 10 -63 6 0 10 22 10 49 0 41 4 51 20 56 31
10 40 -2 40 -56 0 -27 5 -49 10 -49 15 0 12 106 -3 119 -8 6 -30 10 -50 9
l-37 -1 0 -64z"/>
<path d="M16777 8142 c-21 -23 -22 -76 -1 -96 39 -39 104 -5 104 55 0 52 -69
79 -103 41z m74 -23 c8 -16 8 -28 0 -45 -18 -41 -71 -25 -71 21 0 44 50 61 71
24z"/>
<path d="M4220 8027 c0 -32 -2 -33 -32 -29 -37 6 -58 -16 -58 -61 0 -51 15
-67 65 -65 l45 2 0 93 c0 55 -4 93 -10 93 -5 0 -10 -15 -10 -33z m-12 -59 c26
-26 7 -78 -29 -78 -28 0 -40 55 -17 78 7 7 17 12 23 12 6 0 16 -5 23 -12z"/>
<path d="M4652 8048 c-7 -7 -12 -20 -12 -29 0 -10 -6 -20 -12 -23 -10 -5 -10
-7 0 -12 7 -3 12 -26 12 -60 0 -30 5 -54 10 -54 6 0 10 25 10 55 0 48 2 55 20
55 11 0 20 5 20 10 0 6 -9 10 -19 10 -14 0 -18 5 -14 20 3 11 12 20 19 20 8 0
14 5 14 10 0 14 -33 13 -48 -2z"/>
<path d="M11497 8053 c-4 -3 -7 -16 -7 -29 0 -12 -6 -25 -12 -28 -10 -5 -10
-7 0 -12 7 -3 12 -26 12 -60 0 -30 5 -54 10 -54 6 0 10 25 10 55 0 42 3 55 15
55 8 0 15 5 15 10 0 6 -7 10 -15 10 -8 0 -15 9 -15 20 0 13 7 20 20 20 11 0
20 5 20 10 0 11 -43 14 -53 3z"/>
<path d="M11710 8026 c0 -30 -2 -33 -25 -28 -14 2 -32 -1 -39 -8 -24 -19 -30
-68 -12 -95 14 -21 23 -24 61 -23 l45 2 0 93 c0 76 -3 93 -15 93 -10 0 -15
-10 -15 -34z m-5 -91 c0 -36 -2 -40 -25 -40 -20 0 -26 6 -28 28 -5 42 5 59 30
55 20 -3 23 -9 23 -43z"/>
<path d="M4420 8016 c0 -8 -6 -17 -12 -20 -10 -5 -10 -7 0 -12 6 -3 12 -23 12
-44 0 -21 3 -45 6 -54 7 -17 54 -22 54 -6 0 6 -6 10 -14 10 -17 0 -26 22 -26
61 0 22 5 29 20 29 11 0 20 5 20 10 0 6 -9 10 -20 10 -11 0 -20 7 -20 15 0 8
-4 15 -10 15 -5 0 -10 -6 -10 -14z"/>
<path d="M11920 8015 c0 -8 -8 -15 -17 -15 -17 -1 -17 -1 -1 -13 11 -9 18 -31
20 -63 3 -42 6 -49 26 -52 12 -2 22 1 22 7 0 6 -7 11 -15 11 -11 0 -15 12 -15
45 0 33 4 45 15 45 8 0 15 5 15 10 0 6 -7 10 -15 10 -8 0 -15 7 -15 15 0 8 -4
15 -10 15 -5 0 -10 -7 -10 -15z"/>
<path d="M12140 8015 c0 -8 -8 -15 -17 -15 -17 -1 -17 -1 -1 -13 11 -9 18 -31
20 -63 3 -42 6 -49 26 -52 12 -2 22 1 22 7 0 6 -7 11 -15 11 -11 0 -15 12 -15
45 0 33 4 45 15 45 8 0 15 5 15 10 0 6 -7 10 -15 10 -8 0 -15 7 -15 15 0 8 -4
15 -10 15 -5 0 -10 -7 -10 -15z"/>
<path d="M4290 7990 c-16 -11 -8 -13 29 -10 13 1 28 -4 32 -12 6 -9 -1 -16
-29 -24 -32 -9 -37 -15 -37 -40 0 -28 2 -29 48 -30 l47 -2 0 52 c0 29 -5 57
-12 64 -14 14 -57 15 -78 2z m68 -77 c-4 -20 -35 -30 -50 -15 -15 15 0 32 28
32 19 0 25 -5 22 -17z"/>
<path d="M4510 7990 c-16 -11 -8 -13 29 -10 13 1 28 -4 32 -12 6 -9 -1 -16
-29 -24 -32 -9 -37 -15 -37 -40 0 -28 2 -29 48 -30 l47 -2 0 52 c0 29 -5 57
-12 64 -14 14 -57 15 -78 2z m68 -77 c-4 -20 -35 -30 -50 -15 -15 15 0 32 28
32 19 0 25 -5 22 -17z"/>
<path d="M4730 7933 c0 -73 17 -86 22 -15 2 38 7 49 26 57 32 14 27 25 -13 23
l-35 -1 0 -64z"/>
<path d="M4830 7990 c-16 -11 -8 -13 29 -10 13 1 28 -4 32 -12 6 -9 -1 -16
-29 -24 -32 -9 -37 -15 -37 -40 0 -28 2 -29 48 -30 l47 -2 0 52 c0 29 -5 57
-12 64 -14 14 -57 15 -78 2z m68 -77 c-4 -20 -35 -30 -50 -15 -15 15 0 32 28
32 19 0 25 -5 22 -17z"/>
<path d="M4960 7933 c0 -76 18 -85 22 -10 3 44 6 52 24 55 24 3 34 -19 34 -75
0 -54 19 -37 22 20 3 44 6 52 24 55 24 3 34 -19 34 -75 0 -18 5 -33 10 -33 13
0 13 86 0 111 -11 20 -54 26 -65 9 -5 -8 -11 -8 -19 -1 -7 6 -29 10 -49 9
l-37 -1 0 -64z"/>
<path d="M5186 7984 c-9 -8 -16 -31 -16 -49 0 -18 7 -41 16 -49 17 -18 79 -22
89 -6 4 6 -10 10 -33 10 -27 0 -42 5 -46 16 -9 24 -9 24 39 24 48 0 56 11 35
51 -13 23 -62 26 -84 3z m68 -19 c4 -12 -3 -15 -29 -15 -26 0 -33 3 -29 15 4
8 16 15 29 15 13 0 25 -7 29 -15z"/>
<path d="M5320 7985 c-16 -20 -6 -43 25 -57 36 -16 33 -41 -5 -36 -21 3 -30 0
-30 -9 0 -10 11 -13 38 -11 32 3 37 7 40 30 3 21 -3 30 -27 43 -40 20 -40 35
0 35 17 0 28 4 24 10 -9 15 -51 12 -65 -5z"/>
<path d="M11336 7978 c-33 -46 -7 -108 44 -108 46 0 66 29 60 85 -3 32 -20 45
-56 45 -23 0 -38 -7 -48 -22z m80 -22 c10 -41 -4 -68 -34 -64 -21 2 -28 9 -30
31 -5 41 4 57 32 57 19 0 27 -7 32 -24z"/>
<path d="M11787 7994 c-14 -14 -7 -19 25 -19 41 0 48 -21 9 -30 -70 -15 -65
-69 8 -71 l42 -2 -3 62 -3 61 -35 3 c-20 2 -39 0 -43 -4z m61 -81 c-4 -22 -48
-31 -48 -10 0 19 10 27 32 27 13 0 18 -6 16 -17z"/>
<path d="M12007 7994 c-14 -14 -7 -19 25 -19 41 0 48 -21 9 -30 -70 -15 -65
-69 8 -71 l42 -2 -3 62 -3 61 -35 3 c-20 2 -39 0 -43 -4z m61 -81 c-4 -22 -48
-31 -48 -10 0 19 10 27 32 27 13 0 18 -6 16 -17z"/>
<path d="M12210 7990 c0 -5 9 -34 20 -64 13 -34 18 -64 14 -80 -11 -45 13 -28
32 22 9 26 23 62 31 81 16 41 17 54 1 49 -6 -2 -19 -26 -28 -54 l-17 -49 -17
53 c-10 28 -22 52 -27 52 -5 0 -9 -4 -9 -10z"/>
<path d="M12350 7908 c0 -52 4 -88 10 -88 6 0 10 13 10 30 0 27 2 29 30 24 42
-9 60 10 60 61 0 52 -14 65 -68 62 l-42 -1 0 -88z m85 51 c4 -11 4 -31 1 -45
-11 -42 -66 -25 -66 21 0 43 53 63 65 24z"/>
<path d="M12512 7988 c-40 -49 -15 -118 43 -118 47 0 54 18 8 22 -27 2 -39 8
-41 21 -3 14 4 17 37 17 47 0 54 8 38 41 -14 27 -67 38 -85 17z m66 -25 c2 -9
-7 -13 -27 -13 -30 0 -39 9 -24 24 11 10 46 3 51 -11z"/>
<path d="M12642 7983 c-13 -25 -4 -43 24 -53 13 -5 24 -17 24 -26 0 -12 -7
-15 -30 -12 -19 3 -29 1 -27 -6 5 -16 56 -20 73 -5 22 18 17 38 -16 57 -36 21
-39 42 -5 42 14 0 25 5 25 10 0 18 -59 11 -68 -7z"/>
<path d="M8250 7795 c0 -57 4 -95 10 -95 6 0 10 38 10 95 0 57 -4 95 -10 95
-6 0 -10 -38 -10 -95z"/>
<path d="M16092 7878 c-7 -7 -12 -20 -12 -29 0 -10 -6 -20 -12 -23 -10 -5 -10
-7 0 -12 7 -3 12 -26 12 -60 0 -30 5 -54 10 -54 6 0 10 25 10 55 0 48 2 55 20
55 11 0 20 5 20 10 0 6 -9 10 -19 10 -14 0 -18 5 -14 20 3 11 12 20 19 20 8 0
14 5 14 10 0 14 -33 13 -48 -2z"/>
<path d="M8305 7871 c-6 -11 9 -23 19 -14 9 9 7 23 -3 23 -6 0 -12 -4 -16 -9z"/>
<path d="M8675 7871 c-6 -11 9 -23 19 -14 9 9 7 23 -3 23 -6 0 -12 -4 -16 -9z"/>
<path d="M8370 7846 c0 -8 -6 -17 -12 -20 -10 -5 -10 -7 0 -12 6 -3 12 -23 12
-44 0 -21 3 -45 6 -54 7 -17 54 -22 54 -6 0 6 -6 10 -14 10 -17 0 -26 22 -26
61 0 22 5 29 20 29 11 0 20 5 20 10 0 6 -9 10 -20 10 -11 0 -20 7 -20 15 0 8
-4 15 -10 15 -5 0 -10 -6 -10 -14z"/>
<path d="M8590 7846 c0 -8 -6 -17 -12 -20 -10 -5 -10 -7 0 -12 6 -3 12 -23 12
-44 0 -21 3 -45 6 -54 7 -17 54 -22 54 -6 0 6 -6 10 -14 10 -17 0 -26 22 -26
61 0 22 5 29 20 29 11 0 20 5 20 10 0 6 -9 10 -20 10 -11 0 -20 7 -20 15 0 8
-4 15 -10 15 -5 0 -10 -6 -10 -14z"/>
<path d="M16440 7846 c0 -8 -6 -17 -12 -20 -10 -5 -10 -7 0 -12 6 -3 12 -23
12 -44 0 -21 3 -45 6 -54 7 -17 54 -22 54 -6 0 6 -6 10 -14 10 -17 0 -26 22
-26 61 0 22 5 29 20 29 11 0 20 5 20 10 0 6 -9 10 -20 10 -11 0 -20 7 -20 15
0 8 -4 15 -10 15 -5 0 -10 -6 -10 -14z"/>
<path d="M7820 7811 c-14 -27 -13 -74 3 -96 11 -14 22 -17 45 -12 30 6 32 5
32 -23 0 -17 5 -30 10 -30 6 0 10 36 10 88 l0 89 -45 1 c-35 2 -46 -2 -55 -17z
m68 -13 c26 -26 7 -78 -29 -78 -28 0 -40 55 -17 78 7 7 17 12 23 12 6 0 16 -5
23 -12z"/>
<path d="M7963 7814 c-3 -9 -2 -37 3 -63 l9 -46 48 -1 47 -1 0 64 c0 35 -4 63
-10 63 -5 0 -10 -20 -10 -44 0 -46 -19 -72 -45 -62 -11 4 -15 20 -15 56 0 49
-14 67 -27 34z"/>
<path d="M8120 7820 c-16 -11 -8 -13 29 -10 13 1 28 -4 32 -12 6 -9 -1 -16
-29 -24 -32 -9 -37 -15 -37 -40 0 -28 2 -29 48 -30 l47 -2 0 52 c0 29 -5 57
-12 64 -14 14 -57 15 -78 2z m68 -77 c-4 -20 -35 -30 -50 -15 -15 15 0 32 28
32 19 0 25 -5 22 -17z"/>
<path d="M8310 7765 c0 -37 4 -65 10 -65 6 0 10 28 10 65 0 37 -4 65 -10 65
-6 0 -10 -28 -10 -65z"/>
<path d="M8460 7820 c-16 -11 -8 -13 29 -10 13 1 28 -4 32 -12 6 -9 -1 -16
-29 -24 -32 -9 -37 -15 -37 -40 0 -28 2 -29 48 -30 l47 -2 0 52 c0 29 -5 57
-12 64 -14 14 -57 15 -78 2z m68 -77 c-4 -20 -35 -30 -50 -15 -15 15 0 32 28
32 19 0 25 -5 22 -17z"/>
<path d="M8680 7765 c0 -37 4 -65 10 -65 6 0 10 28 10 65 0 37 -4 65 -10 65
-6 0 -10 -28 -10 -65z"/>
<path d="M8722 7819 c3 -8 13 -38 23 -67 23 -71 43 -67 72 16 17 47 19 62 9
62 -7 0 -19 -20 -26 -45 -7 -25 -16 -45 -19 -45 -4 0 -13 19 -21 42 -8 23 -21
44 -29 46 -9 3 -12 0 -9 -9z"/>
<path d="M8876 7814 c-9 -8 -16 -31 -16 -49 0 -18 7 -41 16 -49 17 -18 79 -22
89 -6 4 6 -10 10 -33 10 -27 0 -42 5 -46 16 -9 24 -9 24 39 24 48 0 56 11 35
51 -13 23 -62 26 -84 3z m68 -19 c4 -12 -3 -15 -29 -15 -26 0 -33 3 -29 15 4
8 16 15 29 15 13 0 25 -7 29 -15z"/>
<path d="M15530 7763 c0 -35 4 -63 10 -63 6 0 10 22 10 49 0 41 4 51 20 56 31
10 40 -2 40 -56 0 -27 5 -49 10 -49 15 0 12 106 -3 119 -8 6 -30 10 -50 9
l-37 -1 0 -64z"/>
<path d="M15686 7814 c-9 -8 -16 -31 -16 -49 0 -18 7 -41 16 -49 17 -18 79
-22 89 -6 4 6 -10 10 -33 10 -27 0 -42 5 -46 16 -9 24 -9 24 39 24 48 0 56 11
35 51 -13 23 -62 26 -84 3z m68 -19 c4 -12 -3 -15 -29 -15 -26 0 -33 3 -29 15
4 8 16 15 29 15 13 0 25 -7 29 -15z"/>
<path d="M15802 7818 c3 -7 13 -37 22 -65 21 -63 41 -68 56 -13 6 22 13 40 15
40 2 0 9 -18 15 -40 15 -55 35 -50 56 13 9 28 19 58 22 65 2 6 -2 12 -10 12
-9 0 -20 -20 -28 -52 l-14 -53 -14 53 c-8 28 -21 52 -27 52 -7 0 -19 -24 -26
-52 l-13 -53 -14 53 c-9 32 -20 52 -30 52 -8 0 -12 -6 -10 -12z"/>
<path d="M16176 7814 c-9 -8 -16 -31 -16 -49 0 -18 7 -41 16 -49 17 -18 79
-22 89 -6 4 6 -10 10 -33 10 -27 0 -42 5 -46 16 -9 24 -9 24 39 24 48 0 56 11
35 51 -13 23 -62 26 -84 3z m68 -19 c4 -12 -3 -15 -29 -15 -26 0 -33 3 -29 15
4 8 16 15 29 15 13 0 25 -7 29 -15z"/>
<path d="M16310 7820 c-16 -11 -8 -13 29 -10 13 1 28 -4 32 -12 6 -9 -1 -16
-29 -24 -32 -9 -37 -15 -37 -40 0 -28 2 -29 48 -30 l47 -2 0 52 c0 29 -5 57
-12 64 -14 14 -57 15 -78 2z m68 -77 c-4 -20 -35 -30 -50 -15 -15 15 0 32 28
32 19 0 25 -5 22 -17z"/>
<path d="M16523 7814 c-3 -9 -2 -37 3 -63 l9 -46 48 -1 47 -1 0 64 c0 35 -4
63 -10 63 -5 0 -10 -20 -10 -44 0 -46 -19 -72 -45 -62 -11 4 -15 20 -15 56 0
49 -14 67 -27 34z"/>
<path d="M16680 7763 c0 -73 17 -86 22 -15 2 38 7 49 26 57 32 14 27 25 -13
23 l-35 -1 0 -64z"/>
<path d="M16786 7814 c-9 -8 -16 -31 -16 -49 0 -18 7 -41 16 -49 17 -18 79
-22 89 -6 4 6 -10 10 -33 10 -27 0 -42 5 -46 16 -9 24 -9 24 39 24 48 0 56 11
35 51 -13 23 -62 26 -84 3z m68 -19 c4 -12 -3 -15 -29 -15 -26 0 -33 3 -29 15
4 8 16 15 29 15 13 0 25 -7 29 -15z"/>
<path d="M16920 7815 c-16 -20 -6 -43 25 -57 36 -16 33 -41 -5 -36 -21 3 -30
0 -30 -9 0 -10 11 -13 38 -11 32 3 37 7 40 30 3 21 -3 30 -27 43 -40 20 -40
35 0 35 17 0 28 4 24 10 -9 15 -51 12 -65 -5z"/>
<path d="M8360 7517 c0 -32 -2 -33 -32 -29 -37 6 -58 -16 -58 -61 0 -51 15
-67 65 -65 l45 2 0 93 c0 55 -4 93 -10 93 -5 0 -10 -15 -10 -33z m-12 -59 c26
-26 7 -78 -29 -78 -28 0 -40 55 -17 78 7 7 17 12 23 12 6 0 16 -5 23 -12z"/>
<path d="M8725 7531 c-6 -11 9 -23 19 -14 9 9 7 23 -3 23 -6 0 -12 -4 -16 -9z"/>
<path d="M7910 7506 c0 -8 -6 -17 -12 -20 -10 -5 -10 -7 0 -12 6 -3 12 -23 12
-44 0 -21 3 -45 6 -54 7 -17 54 -22 54 -6 0 6 -6 10 -14 10 -17 0 -26 22 -26
61 0 22 5 29 20 29 11 0 20 5 20 10 0 6 -9 10 -20 10 -11 0 -20 7 -20 15 0 8
-4 15 -10 15 -5 0 -10 -6 -10 -14z"/>
<path d="M8940 7506 c0 -8 -6 -17 -12 -20 -10 -5 -10 -7 0 -12 6 -3 12 -23 12
-44 0 -21 3 -45 6 -54 7 -17 54 -22 54 -6 0 6 -6 10 -14 10 -17 0 -26 22 -26
61 0 22 5 29 20 29 11 0 20 5 20 10 0 6 -9 10 -20 10 -11 0 -20 7 -20 15 0 8
-4 15 -10 15 -5 0 -10 -6 -10 -14z"/>
<path d="M7800 7475 c-16 -20 -6 -43 25 -57 36 -16 33 -41 -5 -36 -21 3 -30 0
-30 -9 0 -10 11 -13 38 -11 32 3 37 7 40 30 3 21 -3 30 -27 43 -40 20 -40 35
0 35 17 0 28 4 24 10 -9 15 -51 12 -65 -5z"/>
<path d="M8000 7480 c-16 -11 -8 -13 29 -10 13 1 28 -4 32 -12 6 -9 -1 -16
-29 -24 -32 -9 -37 -15 -37 -40 0 -28 2 -29 48 -30 l47 -2 0 52 c0 29 -5 57
-12 64 -14 14 -57 15 -78 2z m68 -77 c-4 -20 -35 -30 -50 -15 -15 15 0 32 28
32 19 0 25 -5 22 -17z"/>
<path d="M8130 7423 c0 -35 4 -63 10 -63 6 0 10 22 10 49 0 41 4 51 20 56 31
10 40 -2 40 -56 0 -27 5 -49 10 -49 15 0 12 106 -3 119 -8 6 -30 10 -50 9
l-37 -1 0 -64z"/>
<path d="M8430 7398 c0 -52 4 -88 10 -88 6 0 10 13 10 28 0 26 3 28 29 24 48
-7 78 58 51 109 -9 15 -20 19 -55 17 l-45 -1 0 -89z m75 27 c0 -36 -2 -40 -25
-40 -20 0 -26 6 -28 28 -5 42 5 59 30 55 20 -3 23 -9 23 -43z"/>
<path d="M8587 7472 c-21 -23 -22 -76 -1 -96 39 -39 104 -5 104 55 0 52 -69
79 -103 41z m74 -23 c8 -16 8 -28 0 -45 -18 -41 -71 -25 -71 21 0 44 50 61 71
24z"/>
<path d="M8730 7425 c0 -37 4 -65 10 -65 6 0 10 28 10 65 0 37 -4 65 -10 65
-6 0 -10 -28 -10 -65z"/>
<path d="M8790 7423 c0 -35 4 -63 10 -63 6 0 10 22 10 49 0 41 4 51 20 56 31
10 40 -2 40 -56 0 -27 5 -49 10 -49 15 0 12 106 -3 119 -8 6 -30 10 -50 9
l-37 -1 0 -64z"/>
<path d="M16250 6525 c0 -378 0 -385 -20 -385 -24 0 -24 -3 -4 -41 8 -17 17
-40 20 -52 6 -33 21 -41 33 -18 7 12 9 21 6 21 -3 0 4 18 15 40 25 48 25 50 0
50 -20 0 -20 7 -20 385 0 336 -2 385 -15 385 -13 0 -15 -49 -15 -385z"/>
<path d="M4537 5179 c-21 -29 -10 -58 30 -77 25 -12 33 -22 31 -37 -2 -16 -10
-20 -41 -19 -47 2 -45 -20 2 -24 39 -4 73 22 69 52 -2 11 -19 31 -38 44 -46
31 -47 58 -2 56 34 -2 43 10 16 20 -29 11 -53 6 -67 -15z"/>
<path d="M4810 5165 c0 -8 -8 -15 -17 -15 -17 -1 -17 -1 -1 -13 11 -9 18 -31
20 -63 3 -42 6 -49 26 -52 12 -2 22 1 22 7 0 6 -7 11 -15 11 -11 0 -15 12 -15
45 0 33 4 45 15 45 8 0 15 5 15 10 0 6 -7 10 -15 10 -8 0 -15 7 -15 15 0 8 -4
15 -10 15 -5 0 -10 -7 -10 -15z"/>
<path d="M4672 5138 c-40 -49 -15 -118 43 -118 47 0 54 18 8 22 -27 2 -39 8
-41 21 -3 14 4 17 37 17 47 0 54 8 38 41 -14 27 -67 38 -85 17z m66 -25 c2 -9
-7 -13 -27 -13 -30 0 -39 9 -24 24 11 10 46 3 51 -11z"/>
<path d="M4890 5096 c0 -64 11 -76 68 -73 l42 1 0 63 c0 48 -3 63 -14 63 -11
0 -16 -15 -18 -52 -2 -42 -7 -54 -22 -56 -25 -5 -36 14 -36 66 0 23 -4 42 -10
42 -5 0 -10 -24 -10 -54z"/>
<path d="M5040 5058 c0 -52 4 -88 10 -88 6 0 10 13 10 30 0 27 2 29 30 24 42
-9 60 10 60 61 0 52 -14 65 -68 62 l-42 -1 0 -88z m85 51 c4 -11 4 -31 1 -45
-11 -42 -66 -25 -66 21 0 43 53 63 65 24z"/>
<path d="M8170 4975 c0 -57 4 -95 10 -95 6 0 10 38 10 95 0 57 -4 95 -10 95
-6 0 -10 -38 -10 -95z"/>
<path d="M8312 5058 c-7 -7 -12 -20 -12 -29 0 -10 -6 -20 -12 -23 -10 -5 -10
-7 0 -12 7 -3 12 -26 12 -60 0 -30 5 -54 10 -54 6 0 10 25 10 55 0 48 2 55 20
55 11 0 20 5 20 10 0 6 -9 10 -19 10 -14 0 -18 5 -14 20 3 11 12 20 19 20 8 0
14 5 14 10 0 14 -33 13 -48 -2z"/>
<path d="M7700 4970 c0 -53 4 -90 10 -90 6 0 10 18 10 40 0 39 1 40 35 40 19
0 35 5 35 10 0 6 -16 10 -35 10 -32 0 -35 2 -35 30 0 28 3 30 35 30 19 0 35 5
35 10 0 6 -20 10 -45 10 l-45 0 0 -90z"/>
<path d="M7825 5051 c-6 -11 9 -23 19 -14 9 9 7 23 -3 23 -6 0 -12 -4 -16 -9z"/>
<path d="M12000 4955 c0 -57 4 -95 10 -95 6 0 10 38 10 95 0 57 -4 95 -10 95
-6 0 -10 -38 -10 -95z"/>
<path d="M12810 5017 c0 -32 -2 -33 -32 -29 -37 6 -58 -16 -58 -61 0 -51 15
-67 65 -65 l45 2 0 93 c0 55 -4 93 -10 93 -5 0 -10 -15 -10 -33z m-12 -59 c26
-26 7 -78 -29 -78 -28 0 -40 55 -17 78 7 7 17 12 23 12 6 0 16 -5 23 -12z"/>
<path d="M15840 4960 c0 -53 4 -90 10 -90 6 0 10 18 10 40 0 39 1 40 35 40 19
0 35 5 35 10 0 6 -16 10 -35 10 -32 0 -35 2 -35 30 0 28 3 30 35 30 19 0 35 5
35 10 0 6 -20 10 -45 10 l-45 0 0 -90z"/>
<path d="M8660 5026 c0 -8 -6 -17 -12 -20 -10 -5 -10 -7 0 -12 6 -3 12 -23 12
-44 0 -21 3 -45 6 -54 7 -17 54 -22 54 -6 0 6 -6 10 -14 10 -17 0 -26 22 -26
61 0 22 5 29 20 29 11 0 20 5 20 10 0 6 -9 10 -20 10 -11 0 -20 7 -20 15 0 8
-4 15 -10 15 -5 0 -10 -6 -10 -14z"/>
<path d="M11220 4950 c0 -107 18 -122 22 -19 l3 71 38 -71 c53 -99 67 -95 67
19 0 53 -4 90 -10 90 -6 0 -10 -31 -10 -72 l0 -73 -40 73 c-56 100 -70 96 -70
-18z"/>
<path d="M12055 5031 c-6 -11 9 -23 19 -14 9 9 7 23 -3 23 -6 0 -12 -4 -16 -9z"/>
<path d="M16240 5016 c0 -8 -6 -17 -12 -20 -10 -5 -10 -7 0 -12 6 -3 12 -23
12 -44 0 -21 3 -45 6 -54 7 -17 54 -22 54 -6 0 6 -6 10 -14 10 -17 0 -26 22
-26 61 0 22 5 29 20 29 11 0 20 5 20 10 0 6 -9 10 -20 10 -11 0 -20 7 -20 15
0 8 -4 15 -10 15 -5 0 -10 -6 -10 -14z"/>
<path d="M7830 4945 c0 -37 4 -65 10 -65 6 0 10 28 10 65 0 37 -4 65 -10 65
-6 0 -10 -28 -10 -65z"/>
<path d="M7890 4943 c0 -35 4 -63 10 -63 6 0 10 22 10 49 0 41 4 51 20 56 31
10 40 -2 40 -56 0 -27 5 -49 10 -49 15 0 12 106 -3 119 -8 6 -30 10 -50 9
l-37 -1 0 -64z"/>
<path d="M8040 5000 c-16 -11 -8 -13 29 -10 13 1 28 -4 32 -12 6 -9 -1 -16
-29 -24 -32 -9 -37 -15 -37 -40 0 -28 2 -29 48 -30 l47 -2 0 52 c0 29 -5 57
-12 64 -14 14 -57 15 -78 2z m68 -77 c-4 -20 -35 -30 -50 -15 -15 15 0 32 28
32 19 0 25 -5 22 -17z"/>
<path d="M8396 4994 c-9 -8 -16 -31 -16 -49 0 -18 7 -41 16 -49 17 -18 79 -22
89 -6 4 6 -10 10 -33 10 -27 0 -42 5 -46 16 -9 24 -9 24 39 24 48 0 56 11 35
51 -13 23 -62 26 -84 3z m68 -19 c4 -12 -3 -15 -29 -15 -26 0 -33 3 -29 15 4
8 16 15 29 15 13 0 25 -7 29 -15z"/>
<path d="M8530 5000 c-16 -11 -8 -13 29 -10 13 1 28 -4 32 -12 6 -9 -1 -16
-29 -24 -32 -9 -37 -15 -37 -40 0 -28 2 -29 48 -30 l47 -2 0 52 c0 29 -5 57
-12 64 -14 14 -57 15 -78 2z m68 -77 c-4 -20 -35 -30 -50 -15 -15 15 0 32 28
32 19 0 25 -5 22 -17z"/>
<path d="M8743 4994 c-3 -9 -2 -37 3 -63 l9 -46 48 -1 47 -1 0 64 c0 35 -4 63
-10 63 -5 0 -10 -20 -10 -44 0 -46 -19 -72 -45 -62 -11 4 -15 20 -15 56 0 49
-14 67 -27 34z"/>
<path d="M8900 4943 c0 -73 17 -86 22 -15 2 38 7 49 26 57 32 14 27 25 -13 23
l-35 -1 0 -64z"/>
<path d="M9006 4994 c-9 -8 -16 -31 -16 -49 0 -18 7 -41 16 -49 17 -18 79 -22
89 -6 4 6 -10 10 -33 10 -27 0 -42 5 -46 16 -9 24 -9 24 39 24 48 0 56 11 35
51 -13 23 -62 26 -84 3z m68 -19 c4 -12 -3 -15 -29 -15 -26 0 -33 3 -29 15 4
8 16 15 29 15 13 0 25 -7 29 -15z"/>
<path d="M15976 4984 c-9 -8 -16 -31 -16 -49 0 -18 7 -41 16 -49 17 -18 79
-22 89 -6 4 6 -10 10 -33 10 -27 0 -42 5 -46 16 -9 24 -9 24 39 24 48 0 56 11
35 51 -13 23 -62 26 -84 3z m68 -19 c4 -12 -3 -15 -29 -15 -26 0 -33 3 -29 15
4 8 16 15 29 15 13 0 25 -7 29 -15z"/>
<path d="M16110 4990 c-16 -11 -8 -13 29 -10 13 1 28 -4 32 -12 6 -9 -1 -16
-29 -24 -32 -9 -37 -15 -37 -40 0 -28 2 -29 48 -30 l47 -2 0 52 c0 29 -5 57
-12 64 -14 14 -57 15 -78 2z m68 -77 c-4 -20 -35 -30 -50 -15 -15 15 0 32 28
32 19 0 25 -5 22 -17z"/>
<path d="M16323 4984 c-3 -9 -2 -37 3 -63 l9 -46 48 -1 47 -1 0 64 c0 35 -4
63 -10 63 -5 0 -10 -20 -10 -44 0 -46 -19 -72 -45 -62 -11 4 -15 20 -15 56 0
49 -14 67 -27 34z"/>
<path d="M16480 4933 c0 -73 17 -86 22 -15 2 38 7 49 26 57 32 14 27 25 -13
23 l-35 -1 0 -64z"/>
<path d="M16586 4984 c-9 -8 -16 -31 -16 -49 0 -18 7 -41 16 -49 17 -18 79
-22 89 -6 4 6 -10 10 -33 10 -27 0 -42 5 -46 16 -9 24 -9 24 39 24 48 0 56 11
35 51 -13 23 -62 26 -84 3z m68 -19 c4 -12 -3 -15 -29 -15 -26 0 -33 3 -29 15
4 8 16 15 29 15 13 0 25 -7 29 -15z"/>
<path d="M11407 4972 c-21 -23 -22 -76 -1 -96 39 -39 104 -5 104 55 0 52 -69
79 -103 41z m74 -23 c8 -16 8 -28 0 -45 -18 -41 -71 -25 -71 21 0 44 50 61 71
24z"/>
<path d="M11550 4923 c0 -73 17 -86 22 -15 2 38 7 49 26 57 32 14 27 25 -13
23 l-35 -1 0 -64z"/>
<path d="M11650 4923 c0 -76 18 -85 22 -10 3 44 6 52 24 55 24 3 34 -19 34
-75 0 -54 19 -37 22 20 3 44 6 52 24 55 24 3 34 -19 34 -75 0 -18 5 -33 10
-33 13 0 13 86 0 111 -11 20 -54 26 -65 9 -5 -8 -11 -8 -19 -1 -7 6 -29 10
-49 9 l-37 -1 0 -64z"/>
<path d="M11870 4980 c-16 -11 -8 -13 29 -10 13 1 28 -4 32 -12 6 -9 -1 -16
-29 -24 -32 -9 -37 -15 -37 -40 0 -28 2 -29 48 -30 l47 -2 0 52 c0 29 -5 57
-12 64 -14 14 -57 15 -78 2z m68 -77 c-4 -20 -35 -30 -50 -15 -15 15 0 32 28
32 19 0 25 -5 22 -17z"/>
<path d="M12060 4925 c0 -37 4 -65 10 -65 6 0 10 28 10 65 0 37 -4 65 -10 65
-6 0 -10 -28 -10 -65z"/>
<path d="M12110 4980 c0 -5 11 -10 25 -10 14 0 25 -2 25 -6 0 -3 -11 -22 -25
-42 -35 -51 -32 -62 15 -62 22 0 40 5 40 10 0 6 -11 10 -25 10 -14 0 -25 2
-25 5 0 3 11 23 25 45 14 22 25 44 25 50 0 5 -18 10 -40 10 -22 0 -40 -4 -40
-10z"/>
<path d="M12236 4974 c-9 -8 -16 -31 -16 -49 0 -18 7 -41 16 -49 17 -18 79
-22 89 -6 4 6 -10 10 -33 10 -27 0 -42 5 -46 16 -9 24 -9 24 39 24 48 0 56 11
35 51 -13 23 -62 26 -84 3z m68 -19 c4 -12 -3 -15 -29 -15 -26 0 -33 3 -29 15
4 8 16 15 29 15 13 0 25 -7 29 -15z"/>
<path d="M12450 4980 c-16 -11 -8 -13 29 -10 13 1 28 -4 32 -12 6 -9 -1 -16
-29 -24 -32 -9 -37 -15 -37 -40 0 -28 2 -29 48 -30 l47 -2 0 52 c0 29 -5 57
-12 64 -14 14 -57 15 -78 2z m68 -77 c-4 -20 -35 -30 -50 -15 -15 15 0 32 28
32 19 0 25 -5 22 -17z"/>
<path d="M12580 4923 c0 -35 4 -63 10 -63 6 0 10 22 10 49 0 41 4 51 20 56 31
10 40 -2 40 -56 0 -27 5 -49 10 -49 15 0 12 106 -3 119 -8 6 -30 10 -50 9
l-37 -1 0 -64z"/>
<path d="M920 4867 c0 -32 -2 -33 -32 -29 -37 6 -58 -16 -58 -61 0 -51 15 -67
65 -65 l45 2 0 93 c0 55 -4 93 -10 93 -5 0 -10 -15 -10 -33z m-12 -59 c26 -26
7 -78 -29 -78 -28 0 -40 55 -17 78 7 7 17 12 23 12 6 0 16 -5 23 -12z"/>
<path d="M1450 4805 c0 -57 4 -95 10 -95 6 0 10 38 10 95 0 57 -4 95 -10 95
-6 0 -10 -38 -10 -95z"/>
<path d="M460 4800 c0 -53 4 -90 10 -90 6 0 10 16 10 35 0 32 2 35 29 35 30 0
61 30 61 57 0 25 -39 53 -75 53 l-35 0 0 -90z m73 49 c15 -24 1 -49 -28 -49
-22 0 -25 4 -25 36 0 31 3 35 21 32 12 -2 27 -10 32 -19z"/>
<path d="M985 4881 c-6 -11 9 -23 19 -14 9 9 7 23 -3 23 -6 0 -12 -4 -16 -9z"/>
<path d="M1170 4856 c0 -8 -6 -17 -12 -20 -10 -5 -10 -7 0 -12 6 -3 12 -23 12
-44 0 -21 3 -45 6 -54 7 -17 54 -22 54 -6 0 6 -6 10 -14 10 -17 0 -26 22 -26
61 0 22 5 29 20 29 11 0 20 5 20 10 0 6 -9 10 -20 10 -11 0 -20 7 -20 15 0 8
-4 15 -10 15 -5 0 -10 -6 -10 -14z"/>
<path d="M1770 4856 c0 -8 -6 -17 -12 -20 -10 -5 -10 -7 0 -12 6 -3 12 -23 12
-44 0 -21 3 -45 6 -54 7 -17 54 -22 54 -6 0 6 -6 10 -14 10 -17 0 -26 22 -26
61 0 22 5 29 20 29 11 0 20 5 20 10 0 6 -9 10 -20 10 -11 0 -20 7 -20 15 0 8
-4 15 -10 15 -5 0 -10 -6 -10 -14z"/>
<path d="M4390 4775 c0 -57 4 -95 10 -95 6 0 10 38 10 95 0 57 -4 95 -10 95
-6 0 -10 -38 -10 -95z"/>
<path d="M4264 4837 c-53 -45 -28 -157 35 -157 35 0 61 9 61 21 0 5 -14 6 -30
2 -61 -12 -97 70 -50 117 23 23 33 24 61 10 15 -8 19 -7 19 4 0 32 -59 34 -96
3z"/>
<path d="M5042 4851 c2 -7 7 -12 11 -12 12 1 9 15 -3 20 -7 2 -11 -2 -8 -8z"/>
<path d="M2560 4830 c-19 -11 -43 -19 -52 -20 -37 -1 -25 -20 28 -44 31 -14
58 -26 59 -26 1 0 5 10 8 21 5 20 10 21 104 15 54 -3 267 -8 473 -11 206 -3
392 -8 413 -11 32 -5 37 -3 37 14 0 19 -12 19 -422 26 -233 4 -462 9 -510 13
-77 5 -88 8 -88 24 0 23 -6 23 -50 -1z"/>
<path d="M9700 4830 c-19 -11 -43 -19 -52 -20 -37 -1 -25 -20 28 -44 31 -14
58 -26 59 -26 1 0 5 10 8 21 6 20 10 21 114 15 59 -3 284 -8 498 -11 215 -3
407 -8 428 -11 32 -5 37 -3 37 14 0 19 -13 19 -437 26 -241 3 -482 9 -535 12
-87 6 -98 9 -98 25 0 23 -6 23 -50 -1z"/>
<path d="M600 4773 c0 -73 17 -86 22 -15 2 38 7 49 26 57 32 14 27 25 -13 23
l-35 -1 0 -64z"/>
<path d="M706 4824 c-21 -20 -21 -78 0 -98 17 -18 79 -22 89 -6 4 6 -10 10
-33 10 -27 0 -42 5 -46 16 -9 24 -9 24 39 24 48 0 56 11 35 51 -13 23 -62 26
-84 3z m68 -19 c4 -12 -3 -15 -29 -15 -26 0 -33 3 -29 15 4 8 16 15 29 15 13
0 25 -7 29 -15z"/>
<path d="M990 4775 c0 -37 4 -65 10 -65 6 0 10 28 10 65 0 37 -4 65 -10 65 -6
0 -10 -28 -10 -65z"/>
<path d="M1056 4825 c-19 -20 -21 -74 -3 -99 14 -19 68 -19 74 0 2 7 -8 9 -26
6 -23 -3 -30 0 -36 18 -4 12 -4 33 0 47 5 21 10 24 36 21 18 -3 28 -1 26 6 -6
18 -53 18 -71 1z"/>
<path d="M1336 4825 c-19 -20 -21 -74 -3 -99 14 -19 68 -19 74 0 2 7 -8 9 -26
6 -23 -3 -30 0 -36 18 -4 12 -4 33 0 47 5 21 10 24 36 21 18 -3 28 -1 26 6 -6
18 -53 18 -71 1z"/>
<path d="M1503 4824 c-3 -9 -2 -37 3 -63 l9 -46 48 -1 47 -1 0 64 c0 35 -4 63
-10 63 -5 0 -10 -20 -10 -44 0 -46 -19 -72 -45 -62 -11 4 -15 20 -15 56 0 49
-14 67 -27 34z"/>
<path d="M1660 4825 c-16 -20 -6 -43 25 -57 36 -16 33 -41 -5 -36 -21 3 -30 0
-30 -9 0 -10 11 -13 38 -11 32 3 37 7 40 30 3 21 -3 30 -27 43 -40 20 -40 35
0 35 17 0 28 4 24 10 -9 15 -51 12 -65 -5z"/>
<path d="M1866 4824 c-9 -8 -16 -31 -16 -49 0 -18 7 -41 16 -49 17 -18 79 -22
89 -6 4 6 -10 10 -33 10 -27 0 -42 5 -46 16 -9 24 -9 24 39 24 48 0 56 11 35
51 -13 23 -62 26 -84 3z m68 -19 c4 -12 -3 -15 -29 -15 -26 0 -33 3 -29 15 4
8 16 15 29 15 13 0 25 -7 29 -15z"/>
<path d="M2000 4773 c0 -73 17 -86 22 -15 2 38 7 49 26 57 32 14 27 25 -13 23
l-35 -1 0 -64z"/>
<path d="M4720 4825 c0 -8 -8 -15 -17 -15 -17 -1 -17 -1 -1 -13 11 -9 18 -31
20 -63 3 -42 6 -49 26 -52 12 -2 22 1 22 7 0 6 -7 11 -15 11 -11 0 -15 12 -15
45 0 33 4 45 15 45 8 0 15 5 15 10 0 6 -7 10 -15 10 -8 0 -15 7 -15 15 0 8 -4
15 -10 15 -5 0 -10 -7 -10 -15z"/>
<path d="M6128 4801 c-57 -25 -73 -41 -43 -41 9 0 33 -9 55 -20 49 -25 60 -25
60 -1 0 20 46 22 790 36 174 3 195 6 199 21 3 16 -12 16 -205 10 -115 -3 -340
-9 -501 -12 -283 -7 -291 -6 -295 13 -3 18 -5 18 -60 -6z"/>
<path d="M13306 4800 l-59 -27 58 -27 c69 -31 75 -32 75 -6 0 20 7 20 288 20
159 0 532 3 830 7 458 5 542 8 542 20 0 13 -117 14 -834 7 -825 -7 -834 -7
-838 13 -3 19 -5 19 -62 -7z"/>
<path d="M4450 4756 c0 -64 11 -76 68 -73 l42 1 0 63 c0 48 -3 63 -14 63 -11
0 -16 -15 -18 -52 -2 -42 -7 -54 -22 -56 -25 -5 -36 14 -36 66 0 23 -4 42 -10
42 -5 0 -10 -24 -10 -54z"/>
<path d="M4602 4793 c-13 -25 -4 -43 24 -53 13 -5 24 -17 24 -26 0 -12 -7 -15
-30 -12 -19 3 -29 1 -27 -6 5 -16 56 -20 73 -5 22 18 17 38 -16 57 -36 21 -39
42 -5 42 14 0 25 5 25 10 0 18 -59 11 -68 -7z"/>
<path d="M4812 4798 c-40 -49 -15 -118 43 -118 47 0 54 18 8 22 -27 2 -39 8
-41 21 -3 14 4 17 37 17 47 0 54 8 38 41 -14 27 -67 38 -85 17z m66 -25 c2 -9
-7 -13 -27 -13 -30 0 -39 9 -24 24 11 10 46 3 51 -11z"/>
<path d="M4940 4743 c0 -73 17 -86 22 -15 2 38 7 49 26 57 32 14 27 23 -13 22
l-35 -1 0 -63z"/>
<path d="M5040 4745 c0 -37 4 -65 10 -65 6 0 10 28 10 65 0 37 -4 65 -10 65
-6 0 -10 -28 -10 -65z"/>
<path d="M5100 4743 c0 -35 4 -63 10 -63 6 0 10 19 10 43 0 46 13 67 42 67 15
0 18 -9 18 -55 0 -42 3 -55 15 -55 11 0 15 12 15 46 0 69 -12 84 -65 82 l-45
-2 0 -63z"/>
<path d="M5262 4801 c-9 -5 -15 -36 -17 -84 -4 -76 -4 -77 22 -83 35 -9 77 7
81 31 5 24 -23 45 -60 45 -15 0 -28 4 -28 10 0 5 8 9 18 8 36 -3 51 3 56 22 3
11 9 29 12 40 5 18 1 20 -33 20 -21 0 -44 -4 -51 -9z m54 -22 c8 -14 -21 -43
-35 -35 -19 12 -13 46 8 46 11 0 23 -5 27 -11z m3 -98 c7 -5 10 -14 7 -20 -9
-14 -53 -15 -61 -1 -15 25 24 40 54 21z"/>
<path d="M5370 4750 c0 -5 16 -10 36 -10 21 0 33 4 29 10 -3 6 -19 10 -36 10
-16 0 -29 -4 -29 -10z"/>
<path d="M8160 4635 c0 -57 4 -95 10 -95 6 0 10 38 10 95 0 57 -4 95 -10 95
-6 0 -10 -38 -10 -95z"/>
<path d="M8565 4711 c-6 -11 9 -23 19 -14 9 9 7 23 -3 23 -6 0 -12 -4 -16 -9z"/>
<path d="M11710 4615 c0 -57 4 -95 10 -95 6 0 10 38 10 95 0 57 -4 95 -10 95
-6 0 -10 -38 -10 -95z"/>
<path d="M12530 4617 l0 -94 39 -1 c45 -2 71 23 71 68 0 42 -22 63 -58 58 -30
-4 -32 -3 -32 29 0 18 -4 33 -10 33 -6 0 -10 -38 -10 -93z m75 -32 c0 -36 -2
-40 -25 -40 -20 0 -26 6 -28 28 -5 42 5 59 30 55 20 -3 23 -9 23 -43z"/>
<path d="M12680 4615 c0 -57 4 -95 10 -95 6 0 10 38 10 95 0 57 -4 95 -10 95
-6 0 -10 -38 -10 -95z"/>
<path d="M16485 4701 c-6 -11 9 -23 19 -14 9 9 7 23 -3 23 -6 0 -12 -4 -16 -9z"/>
<path d="M8480 4686 c0 -8 -6 -17 -12 -20 -10 -5 -10 -7 0 -12 6 -3 12 -23 12
-44 0 -21 3 -45 6 -54 7 -17 54 -22 54 -6 0 6 -6 10 -14 10 -17 0 -26 22 -26
61 0 22 5 29 20 29 11 0 20 5 20 10 0 6 -9 10 -20 10 -11 0 -20 7 -20 15 0 8
-4 15 -10 15 -5 0 -10 -6 -10 -14z"/>
<path d="M12335 4691 c-6 -11 9 -23 19 -14 9 9 7 23 -3 23 -6 0 -12 -4 -16 -9z"/>
<path d="M15960 4676 c0 -8 -6 -17 -12 -20 -10 -5 -10 -7 0 -12 6 -3 12 -23
12 -44 0 -21 3 -45 6 -54 7 -17 54 -22 54 -6 0 6 -6 10 -14 10 -17 0 -26 22
-26 61 0 22 5 29 20 29 11 0 20 5 20 10 0 6 -9 10 -20 10 -11 0 -20 7 -20 15
0 8 -4 15 -10 15 -5 0 -10 -6 -10 -14z"/>
<path d="M16400 4676 c0 -8 -6 -17 -12 -20 -10 -5 -10 -7 0 -12 6 -3 12 -23
12 -44 0 -21 3 -45 6 -54 7 -17 54 -22 54 -6 0 6 -6 10 -14 10 -17 0 -26 22
-26 61 0 22 5 29 20 29 11 0 20 5 20 10 0 6 -9 10 -20 10 -11 0 -20 7 -20 15
0 8 -4 15 -10 15 -5 0 -10 -6 -10 -14z"/>
<path d="M7910 4655 c-16 -20 -6 -43 25 -57 36 -16 33 -41 -5 -36 -21 3 -30 0
-30 -9 0 -10 11 -13 38 -11 32 3 37 7 40 30 3 21 -3 30 -27 43 -40 20 -40 35
0 35 17 0 28 4 24 10 -9 15 -51 12 -65 -5z"/>
<path d="M8026 4654 c-9 -8 -16 -31 -16 -49 0 -18 7 -41 16 -49 17 -18 79 -22
89 -6 4 6 -10 10 -33 10 -27 0 -42 5 -46 16 -9 24 -9 24 39 24 48 0 56 11 35
51 -13 23 -62 26 -84 3z m68 -19 c4 -12 -3 -15 -29 -15 -26 0 -33 3 -29 15 4
8 16 15 29 15 13 0 25 -7 29 -15z"/>
<path d="M8226 4654 c-9 -8 -16 -31 -16 -49 0 -18 7 -41 16 -49 17 -18 79 -22
89 -6 4 6 -10 10 -33 10 -27 0 -42 5 -46 16 -9 24 -9 24 39 24 48 0 56 11 35
51 -13 23 -62 26 -84 3z m68 -19 c4 -12 -3 -15 -29 -15 -26 0 -33 3 -29 15 4
8 16 15 29 15 13 0 25 -7 29 -15z"/>
<path d="M8366 4655 c-19 -20 -21 -74 -3 -99 14 -19 68 -19 74 0 2 7 -8 9 -26
6 -23 -3 -30 0 -36 18 -4 12 -4 33 0 47 5 21 10 24 36 21 18 -3 28 -1 26 6 -6
18 -53 18 -71 1z"/>
<path d="M8570 4605 c0 -37 4 -65 10 -65 6 0 10 28 10 65 0 37 -4 65 -10 65
-6 0 -10 -28 -10 -65z"/>
<path d="M8637 4652 c-21 -23 -22 -76 -1 -96 39 -39 104 -5 104 55 0 52 -69
79 -103 41z m74 -23 c8 -16 8 -28 0 -45 -18 -41 -71 -25 -71 21 0 44 50 61 71
24z"/>
<path d="M8780 4603 c0 -35 4 -63 10 -63 6 0 10 22 10 49 0 41 4 51 20 56 31
10 40 -2 40 -56 0 -27 5 -49 10 -49 15 0 12 106 -3 119 -8 6 -30 10 -50 9
l-37 -1 0 -64z"/>
<path d="M15706 4644 c-9 -8 -16 -31 -16 -49 0 -18 7 -41 16 -49 17 -18 79
-22 89 -6 4 6 -10 10 -33 10 -27 0 -42 5 -46 16 -9 24 -9 24 39 24 48 0 56 11
35 51 -13 23 -62 26 -84 3z m68 -19 c4 -12 -3 -15 -29 -15 -26 0 -33 3 -29 15
4 8 16 15 29 15 13 0 25 -7 29 -15z"/>
<path d="M15840 4628 c19 -32 19 -32 -1 -65 -16 -25 -17 -33 -7 -33 8 0 21 11
28 25 l14 26 15 -26 c9 -14 22 -25 29 -25 11 0 9 8 -6 34 -20 33 -20 33 0 65
23 36 6 43 -22 9 l-17 -22 -12 22 c-6 12 -18 22 -26 22 -12 0 -11 -6 5 -32z"/>
<path d="M16050 4593 c0 -73 17 -86 22 -15 2 38 7 49 26 57 32 14 27 25 -13
23 l-35 -1 0 -64z"/>
<path d="M16150 4650 c-16 -11 -8 -13 29 -10 13 1 28 -4 32 -12 6 -9 -1 -16
-29 -24 -32 -9 -37 -15 -37 -40 0 -28 2 -29 48 -30 l47 -2 0 52 c0 29 -5 57
-12 64 -14 14 -57 15 -78 2z m68 -77 c-4 -20 -35 -30 -50 -15 -15 15 0 32 28
32 19 0 25 -5 22 -17z"/>
<path d="M16286 4645 c-19 -20 -21 -74 -3 -99 14 -19 68 -19 74 0 2 7 -8 9
-26 6 -23 -3 -30 0 -36 18 -4 12 -4 33 0 47 5 21 10 24 36 21 18 -3 28 -1 26
6 -6 18 -53 18 -71 1z"/>
<path d="M16490 4595 c0 -37 4 -65 10 -65 6 0 10 28 10 65 0 37 -4 65 -10 65
-6 0 -10 -28 -10 -65z"/>
<path d="M16557 4642 c-21 -23 -22 -76 -1 -96 39 -39 104 -5 104 55 0 52 -69
79 -103 41z m74 -23 c8 -16 8 -28 0 -45 -18 -41 -71 -25 -71 21 0 44 50 61 71
24z"/>
<path d="M16700 4593 c0 -35 4 -63 10 -63 6 0 10 22 10 49 0 41 4 51 20 56 31
10 40 -2 40 -56 0 -27 5 -49 10 -49 15 0 12 106 -3 119 -8 6 -30 10 -50 9
l-37 -1 0 -64z"/>
<path d="M11110 4583 c0 -73 17 -86 22 -15 2 38 7 49 26 57 32 14 27 25 -13
23 l-35 -1 0 -64z"/>
<path d="M11216 4634 c-9 -8 -16 -31 -16 -49 0 -18 7 -41 16 -49 17 -18 79
-22 89 -6 4 6 -10 10 -33 10 -27 0 -42 5 -46 16 -9 24 -9 24 39 24 48 0 56 11
35 51 -13 23 -62 26 -84 3z m68 -19 c4 -12 -3 -15 -29 -15 -26 0 -33 3 -29 15
4 8 16 15 29 15 13 0 25 -7 29 -15z"/>
<path d="M11350 4635 c-16 -20 -6 -43 25 -57 36 -16 33 -41 -5 -36 -21 3 -30
0 -30 -9 0 -10 11 -13 38 -11 32 3 37 7 40 30 3 21 -3 30 -27 43 -40 20 -40
35 0 35 17 0 28 4 24 10 -9 15 -51 12 -65 -5z"/>
<path d="M11466 4635 c-19 -20 -21 -74 -3 -99 14 -19 68 -19 74 0 2 7 -8 9
-26 6 -23 -3 -30 0 -36 18 -4 12 -4 33 0 47 5 21 10 24 36 21 18 -3 28 -1 26
6 -6 18 -53 18 -71 1z"/>
<path d="M11580 4640 c-16 -11 -8 -13 29 -10 13 1 28 -4 32 -12 6 -9 -1 -16
-29 -24 -32 -9 -37 -15 -37 -40 0 -28 2 -29 48 -30 l47 -2 0 52 c0 29 -5 57
-12 64 -14 14 -57 15 -78 2z m68 -77 c-4 -20 -35 -30 -50 -15 -15 15 0 32 28
32 19 0 25 -5 22 -17z"/>
<path d="M11776 4634 c-9 -8 -16 -31 -16 -49 0 -18 7 -41 16 -49 17 -18 79
-22 89 -6 4 6 -10 10 -33 10 -27 0 -42 5 -46 16 -9 24 -9 24 39 24 48 0 56 11
35 51 -13 23 -62 26 -84 3z m68 -19 c4 -12 -3 -15 -29 -15 -26 0 -33 3 -29 15
4 8 16 15 29 15 13 0 25 -7 29 -15z"/>
<path d="M11962 4639 c3 -8 13 -38 23 -67 23 -71 43 -67 72 16 17 47 19 62 9
62 -7 0 -19 -20 -26 -45 -7 -25 -16 -45 -19 -45 -4 0 -13 19 -21 42 -8 23 -21
44 -29 46 -9 3 -12 0 -9 -9z"/>
<path d="M12110 4640 c-16 -11 -8 -13 29 -10 13 1 28 -4 32 -12 6 -9 -1 -16
-29 -24 -32 -9 -37 -15 -37 -40 0 -28 2 -29 48 -30 l47 -2 0 52 c0 29 -5 57
-12 64 -14 14 -57 15 -78 2z m68 -77 c-4 -20 -35 -30 -50 -15 -15 15 0 32 28
32 19 0 25 -5 22 -17z"/>
<path d="M12240 4583 c0 -73 17 -86 22 -15 2 38 7 49 26 57 32 14 27 25 -13
23 l-35 -1 0 -64z"/>
<path d="M12340 4585 c0 -37 4 -65 10 -65 6 0 10 28 10 65 0 37 -4 65 -10 65
-6 0 -10 -28 -10 -65z"/>
<path d="M12400 4640 c-16 -11 -8 -13 29 -10 13 1 28 -4 32 -12 6 -9 -1 -16
-29 -24 -32 -9 -37 -15 -37 -40 0 -28 2 -29 48 -30 l47 -2 0 52 c0 29 -5 57
-12 64 -14 14 -57 15 -78 2z m68 -77 c-4 -20 -35 -30 -50 -15 -15 15 0 32 28
32 19 0 25 -5 22 -17z"/>
<path d="M12746 4634 c-9 -8 -16 -31 -16 -49 0 -18 7 -41 16 -49 17 -18 79
-22 89 -6 4 6 -10 10 -33 10 -27 0 -42 5 -46 16 -9 24 -9 24 39 24 48 0 56 11
35 51 -13 23 -62 26 -84 3z m68 -19 c4 -12 -3 -15 -29 -15 -26 0 -33 3 -29 15
4 8 16 15 29 15 13 0 25 -7 29 -15z"/>
<path d="M12880 4635 c-16 -20 -6 -43 25 -57 36 -16 33 -41 -5 -36 -21 3 -30
0 -30 -9 0 -10 11 -13 38 -11 32 3 37 7 40 30 3 21 -3 30 -27 43 -40 20 -40
35 0 35 17 0 28 4 24 10 -9 15 -51 12 -65 -5z"/>
<path d="M4440 4445 c0 -57 4 -95 10 -95 6 0 10 38 10 95 0 57 -4 95 -10 95
-6 0 -10 -38 -10 -95z"/>
<path d="M5030 4445 c0 -57 4 -95 10 -95 6 0 10 19 10 43 0 46 13 67 42 67 15
0 18 -9 18 -55 0 -42 3 -55 15 -55 11 0 15 12 15 48 0 64 -17 87 -58 79 -31
-6 -32 -5 -32 28 0 19 -4 35 -10 35 -6 0 -10 -38 -10 -95z"/>
<path d="M4882 4521 c2 -7 7 -12 11 -12 12 1 9 15 -3 20 -7 2 -11 -2 -8 -8z"/>
<path d="M4950 4495 c0 -8 -8 -15 -17 -15 -17 -1 -17 -1 -1 -13 11 -9 18 -31
20 -63 3 -42 6 -49 26 -52 12 -2 22 1 22 7 0 6 -7 11 -15 11 -11 0 -15 12 -15
45 0 33 4 45 15 45 8 0 15 5 15 10 0 6 -7 10 -15 10 -8 0 -15 7 -15 15 0 8 -4
15 -10 15 -5 0 -10 -7 -10 -15z"/>
<path d="M4317 4474 c-14 -14 -7 -19 25 -19 41 0 48 -21 9 -30 -70 -15 -65
-69 8 -71 l42 -2 -3 62 -3 61 -35 3 c-20 2 -39 0 -43 -4z m61 -81 c-4 -22 -48
-31 -48 -10 0 19 10 27 32 27 13 0 18 -6 16 -17z"/>
<path d="M4512 4471 c-9 -5 -15 -36 -17 -84 -4 -76 -4 -77 22 -83 35 -9 77 7
81 31 5 24 -23 45 -60 45 -15 0 -28 4 -28 10 0 5 8 9 18 8 36 -3 51 3 56 22 3
11 9 29 12 40 5 18 1 20 -33 20 -21 0 -44 -4 -51 -9z m54 -22 c3 -6 0 -18 -9
-26 -18 -18 -37 -9 -37 18 0 21 34 27 46 8z m3 -98 c7 -5 10 -14 7 -20 -9 -14
-53 -15 -61 -1 -15 25 24 40 54 21z"/>
<path d="M4636 4458 c-33 -46 -7 -108 44 -108 46 0 66 29 60 85 -3 32 -20 45
-56 45 -23 0 -38 -7 -48 -22z m80 -22 c10 -41 -4 -68 -34 -64 -21 2 -28 9 -30
31 -5 41 4 57 32 57 19 0 27 -7 32 -24z"/>
<path d="M4780 4413 c0 -73 17 -86 22 -15 2 38 7 49 26 57 32 14 27 23 -13 22
l-35 -1 0 -63z"/>
<path d="M4880 4415 c0 -37 4 -65 10 -65 6 0 10 28 10 65 0 37 -4 65 -10 65
-6 0 -10 -28 -10 -65z"/>
<path d="M5180 4413 c0 -35 4 -63 10 -63 6 0 10 20 10 44 0 46 19 72 45 62 11
-4 15 -20 15 -56 0 -27 5 -50 10 -50 6 0 10 20 10 44 0 46 19 72 45 62 11 -4
15 -20 15 -56 0 -28 5 -50 10 -50 7 0 10 24 8 63 -3 56 -5 62 -26 65 -13 2
-29 -2 -37 -8 -9 -7 -15 -8 -20 -1 -3 6 -26 10 -50 9 l-45 -2 0 -63z"/>
<path d="M1260 3572 c0 -6 4 -13 9 -16 5 -3 12 -17 15 -30 3 -14 11 -37 16
-52 10 -25 11 -26 24 -9 12 17 97 -64 1007 -964 547 -541 1059 -1048 1138
-1127 79 -79 147 -144 152 -144 31 0 -14 51 -273 307 -1826 1803 -1989 1966
-1973 1983 13 15 10 18 -38 35 -28 10 -58 20 -64 23 -7 2 -13 -1 -13 -6z"/>
<path d="M4830 3075 c0 -478 0 -485 -20 -485 -11 0 -20 -2 -20 -4 0 -7 52
-116 55 -116 3 0 55 109 55 116 0 2 -9 4 -20 4 -20 0 -20 7 -20 485 0 424 -2
485 -15 485 -13 0 -15 -61 -15 -485z"/>
<path d="M5090 1585 c0 -57 4 -95 10 -95 6 0 10 14 10 30 0 38 10 38 35 0 11
-16 26 -30 33 -30 18 0 15 8 -14 42 l-25 31 27 28 c36 37 10 39 -28 2 l-28
-27 0 57 c0 31 -4 57 -10 57 -6 0 -10 -38 -10 -95z"/>
<path d="M4237 1649 c-21 -29 -10 -58 30 -77 25 -12 33 -22 31 -37 -2 -16 -10
-20 -41 -19 -47 2 -45 -20 2 -24 39 -4 73 22 69 52 -2 11 -19 31 -38 44 -46
31 -47 58 -2 56 34 -2 43 10 16 20 -29 11 -53 6 -67 -15z"/>
<path d="M4672 1661 c4 -13 18 -16 19 -4 0 4 -5 9 -11 12 -7 2 -11 -2 -8 -8z"/>
<path d="M4370 1635 c0 -8 -8 -15 -17 -15 -17 -1 -17 -1 -1 -13 11 -9 18 -31
20 -63 3 -42 6 -49 26 -52 12 -2 22 1 22 7 0 6 -7 11 -15 11 -11 0 -15 12 -15
45 0 33 4 45 15 45 8 0 15 5 15 10 0 6 -7 10 -15 10 -8 0 -15 7 -15 15 0 8 -4
15 -10 15 -5 0 -10 -7 -10 -15z"/>
<path d="M4590 1635 c0 -8 -8 -15 -17 -15 -17 -1 -17 -1 -1 -13 11 -9 18 -31
20 -63 3 -42 6 -49 26 -52 12 -2 22 1 22 7 0 6 -7 11 -15 11 -11 0 -15 12 -15
45 0 33 4 45 15 45 8 0 15 5 15 10 0 6 -7 10 -15 10 -8 0 -15 7 -15 15 0 8 -4
15 -10 15 -5 0 -10 -7 -10 -15z"/>
<path d="M4457 1614 c-14 -14 -7 -19 25 -19 41 0 48 -21 9 -30 -70 -15 -65
-69 8 -71 l42 -2 -3 62 -3 61 -35 3 c-20 2 -39 0 -43 -4z m61 -81 c-4 -22 -48
-31 -48 -10 0 19 10 27 32 27 13 0 18 -6 16 -17z"/>
<path d="M4670 1555 c0 -37 4 -65 10 -65 6 0 10 28 10 65 0 37 -4 65 -10 65
-6 0 -10 -28 -10 -65z"/>
<path d="M4730 1553 c0 -35 4 -63 10 -63 6 0 10 19 10 43 0 46 13 67 42 67 15
0 18 -9 18 -55 0 -42 3 -55 15 -55 11 0 15 12 15 46 0 69 -12 84 -65 82 l-45
-2 0 -63z"/>
<path d="M4892 1611 c-9 -5 -15 -36 -17 -84 -4 -76 -4 -77 22 -83 35 -9 77 7
81 31 5 24 -23 45 -60 45 -15 0 -28 4 -28 10 0 5 8 9 18 8 36 -3 51 3 56 22 3
11 9 29 12 40 5 18 1 20 -33 20 -21 0 -44 -4 -51 -9z m54 -22 c8 -14 -21 -43
-35 -35 -6 4 -11 16 -11 27 0 21 34 27 46 8z m3 -98 c7 -5 10 -14 7 -20 -9
-14 -53 -15 -61 -1 -15 25 24 40 54 21z"/>
<path d="M5232 1608 c-40 -49 -15 -118 43 -118 47 0 54 18 8 22 -27 2 -39 8
-41 21 -3 14 4 17 37 17 47 0 54 8 38 41 -14 27 -67 38 -85 17z m66 -25 c2 -9
-7 -13 -27 -13 -30 0 -39 9 -24 24 11 10 46 3 51 -11z"/>
<path d="M5350 1610 c0 -5 9 -34 20 -64 13 -34 18 -64 14 -80 -11 -45 13 -28
32 22 9 26 23 62 31 81 16 41 17 54 1 49 -6 -2 -19 -26 -28 -54 l-17 -49 -17
53 c-10 28 -22 52 -27 52 -5 0 -9 -4 -9 -10z"/>
<path d="M4160 1245 c0 -57 4 -95 10 -95 6 0 10 19 10 43 0 46 13 67 42 67 15
0 18 -9 18 -55 0 -42 3 -55 15 -55 11 0 15 12 15 48 0 64 -17 87 -58 79 -31
-6 -32 -5 -32 28 0 19 -4 35 -10 35 -6 0 -10 -38 -10 -95z"/>
<path d="M5122 1321 c4 -13 18 -16 19 -4 0 4 -5 9 -11 12 -7 2 -11 -2 -8 -8z"/>
<path d="M5382 1321 c2 -7 7 -12 11 -12 12 1 9 15 -3 20 -7 2 -11 -2 -8 -8z"/>
<path d="M4800 1295 c0 -8 -8 -15 -17 -15 -17 -1 -17 -1 -1 -13 11 -9 18 -31
20 -63 3 -42 6 -49 26 -52 12 -2 22 1 22 7 0 6 -7 11 -15 11 -11 0 -15 12 -15
45 0 33 4 45 15 45 8 0 15 5 15 10 0 6 -7 10 -15 10 -8 0 -15 7 -15 15 0 8 -4
15 -10 15 -5 0 -10 -7 -10 -15z"/>
<path d="M5300 1295 c0 -8 -8 -15 -17 -15 -17 -1 -17 -1 -1 -13 11 -9 18 -31
20 -63 3 -42 6 -49 26 -52 12 -2 22 1 22 7 0 6 -7 11 -15 11 -11 0 -15 12 -15
45 0 33 4 45 15 45 8 0 15 5 15 10 0 6 -7 10 -15 10 -8 0 -15 7 -15 15 0 8 -4
15 -10 15 -5 0 -10 -7 -10 -15z"/>
<path d="M4046 1258 c-34 -48 -6 -111 47 -106 43 4 47 26 5 25 -32 -2 -33 -1
-33 38 0 39 1 40 33 38 42 -1 38 21 -5 25 -23 2 -35 -3 -47 -20z"/>
<path d="M4317 1274 c-14 -14 -7 -19 25 -19 41 0 48 -21 9 -30 -70 -15 -65
-69 8 -71 l42 -2 -3 62 -3 61 -35 3 c-20 2 -39 0 -43 -4z m61 -81 c-4 -22 -48
-31 -48 -10 0 19 10 27 32 27 13 0 18 -6 16 -17z"/>
<path d="M4440 1213 c0 -73 17 -86 22 -15 2 38 7 49 26 57 32 14 27 23 -13 22
l-35 -1 0 -63z"/>
<path d="M4547 1274 c-14 -14 -7 -19 25 -19 41 0 48 -21 9 -30 -70 -15 -65
-69 8 -71 l42 -2 -3 62 -3 61 -35 3 c-20 2 -39 0 -43 -4z m61 -81 c-4 -22 -48
-31 -48 -10 0 19 10 27 32 27 13 0 18 -6 16 -17z"/>
<path d="M4676 1258 c-34 -48 -6 -111 47 -106 43 4 47 26 5 25 -32 -2 -33 -1
-33 38 0 39 1 40 33 38 42 -1 38 21 -5 25 -23 2 -35 -3 -47 -20z"/>
<path d="M4892 1268 c-40 -49 -15 -118 43 -118 47 0 54 18 8 22 -27 2 -39 8
-41 21 -3 14 4 17 37 17 47 0 54 8 38 41 -14 27 -67 38 -85 17z m66 -25 c2 -9
-7 -13 -27 -13 -30 0 -39 9 -24 24 11 10 46 3 51 -11z"/>
<path d="M5020 1213 c0 -73 17 -86 22 -15 2 38 7 49 26 57 32 14 27 23 -13 22
l-35 -1 0 -63z"/>
<path d="M5120 1215 c0 -37 4 -65 10 -65 6 0 10 28 10 65 0 37 -4 65 -10 65
-6 0 -10 -28 -10 -65z"/>
<path d="M5182 1263 c-13 -25 -4 -43 24 -53 13 -5 24 -17 24 -26 0 -12 -7 -15
-30 -12 -19 3 -29 1 -27 -6 5 -16 56 -20 73 -5 22 18 17 38 -16 57 -36 21 -39
42 -5 42 14 0 25 5 25 10 0 18 -59 11 -68 -7z"/>
<path d="M5380 1215 c0 -37 4 -65 10 -65 6 0 10 28 10 65 0 37 -4 65 -10 65
-6 0 -10 -28 -10 -65z"/>
<path d="M5446 1258 c-34 -48 -6 -111 47 -106 43 4 47 26 5 25 -32 -2 -33 -1
-33 38 0 39 1 40 33 38 42 -1 38 21 -5 25 -23 2 -35 -3 -47 -20z"/>
<path d="M5562 1263 c-13 -25 -4 -43 24 -53 13 -5 24 -17 24 -26 0 -12 -7 -15
-30 -12 -19 3 -29 1 -27 -6 5 -16 56 -20 73 -5 22 18 17 38 -16 57 -36 21 -39
42 -5 42 14 0 25 5 25 10 0 18 -59 11 -68 -7z"/>
<path d="M4187 1003 c-4 -3 -7 -16 -7 -29 0 -12 -6 -25 -12 -28 -10 -5 -10 -7
0 -12 7 -3 12 -26 12 -60 0 -30 5 -54 10 -54 6 0 10 25 10 55 0 42 3 55 15 55
8 0 15 5 15 10 0 6 -7 10 -15 10 -8 0 -15 9 -15 20 0 13 7 20 20 20 11 0 20 5
20 10 0 11 -43 14 -53 3z"/>
<path d="M4710 915 c0 -57 4 -95 10 -95 6 0 10 19 10 43 0 46 13 67 42 67 15
0 18 -9 18 -55 0 -42 3 -55 15 -55 11 0 15 12 15 48 0 64 -17 87 -58 79 -31
-6 -32 -5 -32 28 0 19 -4 35 -10 35 -6 0 -10 -38 -10 -95z"/>
<path d="M5040 915 c0 -57 4 -95 10 -95 6 0 10 38 10 95 0 57 -4 95 -10 95 -6
0 -10 -38 -10 -95z"/>
<path d="M5370 965 c0 -8 -8 -15 -17 -15 -17 -1 -17 -1 -1 -13 11 -9 18 -31
20 -63 3 -42 6 -49 26 -52 12 -2 22 1 22 7 0 6 -7 11 -15 11 -11 0 -15 12 -15
45 0 33 4 45 15 45 8 0 15 5 15 10 0 6 -7 10 -15 10 -8 0 -15 7 -15 15 0 8 -4
15 -10 15 -5 0 -10 -7 -10 -15z"/>
<path d="M4026 928 c-33 -46 -7 -108 44 -108 46 0 66 29 60 85 -3 32 -20 45
-56 45 -23 0 -38 -7 -48 -22z m80 -22 c10 -41 -4 -68 -34 -64 -21 2 -28 9 -30
31 -5 41 4 57 32 57 19 0 27 -7 32 -24z"/>
<path d="M4332 938 c-40 -49 -15 -118 43 -118 47 0 54 18 8 22 -27 2 -39 8
-41 21 -3 14 4 17 37 17 47 0 54 8 38 41 -14 27 -67 38 -85 17z m66 -25 c2 -9
-7 -13 -27 -13 -30 0 -39 9 -24 24 11 10 46 3 51 -11z"/>
<path d="M4467 944 c-14 -14 -7 -19 25 -19 41 0 48 -21 9 -30 -70 -15 -65 -69
8 -71 l42 -2 -3 62 -3 61 -35 3 c-20 2 -39 0 -43 -4z m61 -81 c-4 -22 -48 -31
-48 -10 0 19 10 27 32 27 13 0 18 -6 16 -17z"/>
<path d="M4596 928 c-34 -48 -6 -111 47 -106 43 4 47 26 5 25 -32 -2 -33 -1
-33 38 0 39 1 40 33 38 42 -1 38 21 -5 25 -23 2 -35 -3 -47 -20z"/>
<path d="M4926 928 c-34 -48 -6 -111 47 -106 43 4 47 26 5 25 -32 -2 -33 -1
-33 38 0 39 1 40 33 38 42 -1 38 21 -5 25 -23 2 -35 -3 -47 -20z"/>
<path d="M5100 896 c0 -64 11 -76 68 -73 l42 1 0 63 c0 48 -3 63 -14 63 -11 0
-16 -15 -18 -52 -2 -42 -7 -54 -22 -56 -25 -5 -36 14 -36 66 0 23 -4 42 -10
42 -5 0 -10 -24 -10 -54z"/>
<path d="M5252 933 c-13 -25 -4 -43 24 -53 13 -5 24 -17 24 -26 0 -12 -7 -15
-30 -12 -19 3 -29 1 -27 -6 5 -16 56 -20 73 -5 22 18 17 38 -16 57 -36 21 -39
42 -5 42 14 0 25 5 25 10 0 18 -59 11 -68 -7z"/>
<path d="M5462 938 c-40 -49 -15 -118 43 -118 47 0 54 18 8 22 -27 2 -39 8
-41 21 -3 14 4 17 37 17 47 0 54 8 38 41 -14 27 -67 38 -85 17z m66 -25 c2 -9
-7 -13 -27 -13 -30 0 -39 9 -24 24 11 10 46 3 51 -11z"/>
<path d="M5590 883 c0 -73 17 -86 22 -15 2 38 7 49 26 57 32 14 27 23 -13 22
l-35 -1 0 -63z"/>
</g>
</svg>
